<svg version="1.1" xmlns="http://www.w3.org/2000/svg" xmlns:xlink="http://www.w3.org/1999/xlink" width="382.75946" height="686.22636" viewBox="525.49725,45.88484,382.75946,686.22636"><g fill="#ff5f15" fill-rule="nonzero" stroke="#000000" stroke-width="8" stroke-linecap="none" stroke-linejoin="none" stroke-miterlimit="10" stroke-dasharray="" stroke-dashoffset="0" font-family="none" font-weight="none" font-size="none" text-anchor="none" style="mix-blend-mode: normal"><path d="M562.54108,82.93263" id="Path 1" stroke-linecap="round" stroke-linejoin="round"/><path d="M562.04043,95.16037l-32.54318,32.54318v215.78628l32.04251,33.5445l34.04518,-33.04383l-0.50067,-214.78495z" id="Path 1" stroke-linecap="butt" stroke-linejoin="miter"/><path d="M870.70825,401.0662l-32.54318,32.54318v215.78628l32.04251,33.5445l34.04518,-33.04383l-0.50067,-214.78495z" id="Path 1" stroke-linecap="butt" stroke-linejoin="miter"/><path d="M562.04043,401.0662l-32.54318,32.54318v215.78628l32.04251,33.5445l34.04518,-33.04383l-0.50067,-214.78495z" id="Path 1" stroke-linecap="butt" stroke-linejoin="miter"/><path d="M575.45137,695.56802l32.54318,32.54318h215.78628l33.5445,-32.04251l-33.04383,-34.04518l-214.78495,0.50067z" id="Path 1" stroke-linecap="butt" stroke-linejoin="miter"/><path d="M870.70825,95.16037l-32.54318,32.54318v215.78628l32.04251,33.5445l34.04518,-33.04383l-0.50067,-214.78495z" id="Path 1" stroke-linecap="butt" stroke-linejoin="miter"/><path d="M575.45137,389.43966l32.54318,32.54318h215.78628l33.5445,-32.04251l-33.04383,-34.04518l-214.78495,0.50067z" id="Path 1" stroke-linecap="butt" stroke-linejoin="miter"/><path d="M575.45137,83.4333l32.54318,32.54318h215.78628l33.5445,-32.04251l-33.04383,-34.04518l-214.78495,0.50067z" id="Path 1" stroke-linecap="butt" stroke-linejoin="miter"/></g></svg>