<?xml version="1.0" encoding="UTF-8" standalone="no"?>
<!-- Generator: Adobe Illustrator 27.5.0, SVG Export Plug-In . SVG Version: 6.00 Build 0)  -->

<svg
   version="1.1"
   x="0px"
   y="0px"
   viewBox="0 0 61.237045 118.85501"
   xml:space="preserve"
   id="svg119"
   sodipodi:docname="y2k.svg"
   width="61.237045"
   height="118.85501"
   xmlns:inkscape="http://www.inkscape.org/namespaces/inkscape"
   xmlns:sodipodi="http://sodipodi.sourceforge.net/DTD/sodipodi-0.dtd"
   xmlns="http://www.w3.org/2000/svg"
   xmlns:svg="http://www.w3.org/2000/svg"><defs
   id="defs119" /><sodipodi:namedview
   id="namedview119"
   pagecolor="#ffffff"
   bordercolor="#000000"
   borderopacity="0.25"
   inkscape:showpageshadow="2"
   inkscape:pageopacity="0.0"
   inkscape:pagecheckerboard="0"
   inkscape:deskcolor="#d1d1d1"><inkscape:page
     x="0"
     y="0"
     width="61.237045"
     height="118.85501"
     id="page2"
     margin="0"
     bleed="0" /></sodipodi:namedview>

<g
   id="OBJECTS"
   transform="translate(-395.15481,-190.004)">
	<g
   id="g85">
		
		
		
		
		<g
   id="g31">
			<g
   id="g27">
				<path
   style="fill:#171717"
   d="m 400.616,308.485 c -0.515,0 -1.034,-0.132 -1.506,-0.407 -1.267,-0.736 -1.815,-2.279 -1.3,-3.649 l 14.911,-39.645 -15.52,-7.681 c -1.445,-0.715 -2.066,-2.445 -1.406,-3.917 l 27.396,-61.036 c 0.499,-1.11 1.591,-1.772 2.738,-1.772 0.384,0 0.773,0.074 1.149,0.229 l 27.086,11.229 c 0.852,0.354 1.494,1.08 1.741,1.969 0.247,0.889 0.071,1.842 -0.478,2.584 l -27.885,37.77 16.189,8.475 c 0.803,0.42 1.372,1.181 1.55,2.069 0.178,0.889 -0.056,1.81 -0.635,2.507 l -41.724,50.192 c -0.584,0.707 -1.438,1.083 -2.306,1.083 z"
   id="path26" />
				<path
   style="fill:#ffffff"
   d="m 400.616,308.859 c -0.595,0 -1.181,-0.158 -1.694,-0.457 -1.43,-0.831 -2.045,-2.558 -1.462,-4.105 l 14.791,-39.327 -15.215,-7.531 c -1.634,-0.808 -2.328,-2.743 -1.582,-4.406 l 27.396,-61.036 c 0.544,-1.211 1.753,-1.993 3.08,-1.993 0.443,0 0.878,0.086 1.292,0.257 l 27.086,11.23 c 0.965,0.4 1.679,1.207 1.959,2.214 0.28,1.008 0.084,2.067 -0.537,2.908 l -27.625,37.418 15.802,8.272 c 0.907,0.475 1.543,1.323 1.744,2.328 0.2,1.004 -0.06,2.031 -0.715,2.819 l -41.724,50.191 c -0.641,0.775 -1.588,1.218 -2.596,1.218 z m 25.315,-118.106 c -1.032,0 -1.973,0.609 -2.397,1.551 l -27.396,61.035 c -0.58,1.294 -0.039,2.799 1.23,3.428 l 15.52,7.682 c 0.173,0.085 0.253,0.288 0.185,0.468 l -14.911,39.645 c -0.452,1.204 0.025,2.547 1.138,3.193 1.077,0.626 2.543,0.364 3.338,-0.591 l 41.724,-50.191 c 0.509,-0.613 0.711,-1.413 0.555,-2.194 -0.156,-0.781 -0.65,-1.441 -1.355,-1.811 l -16.19,-8.475 c -0.097,-0.051 -0.167,-0.141 -0.191,-0.248 -0.024,-0.106 -0.002,-0.219 0.064,-0.307 l 27.885,-37.77 c 0.483,-0.654 0.636,-1.478 0.418,-2.261 -0.218,-0.783 -0.773,-1.411 -1.523,-1.723 l -27.086,-11.23 c -0.326,-0.133 -0.664,-0.201 -1.008,-0.201 z"
   id="path27" />
			</g>
			
				<linearGradient
   id="SVGID_00000032634255876628494720000006848598681967485104_"
   gradientUnits="userSpaceOnUse"
   x1="399.18561"
   y1="297.0545"
   x2="448.11292"
   y2="195.2542">
				<stop
   offset="0"
   style="stop-color:#56E7F2"
   id="stop27" />
				<stop
   offset="0.2918"
   style="stop-color:#C2A7DE"
   id="stop28" />
				<stop
   offset="0.6174"
   style="stop-color:#E8FBA9"
   id="stop29" />
				<stop
   offset="0.8366"
   style="stop-color:#32ABDF"
   id="stop30" />
				<stop
   offset="1"
   style="stop-color:#FEFCEF"
   id="stop31" />
			</linearGradient>
			<polygon
   style="fill:url(#SVGID_00000032634255876628494720000006848598681967485104_)"
   points="423.051,245.194 453.016,204.609 425.93,193.379 398.533,254.414 416.485,263.3 400.618,305.485 442.342,255.293 "
   id="polygon31" />
		</g>
		
		
		
		
		
		
		
	</g>
</g>

</svg>
