<?xml version="1.0" encoding="UTF-8" standalone="no"?>
<svg
   viewBox="0 0 7200.1387 1830.1371"
   fill="none"
   version="1.1"
   id="svg4"
   width="7200.1387"
   height="1830.1371"
   xmlns="http://www.w3.org/2000/svg"
   xmlns:svg="http://www.w3.org/2000/svg">
  <defs
     id="defs4" />
  <g
     id="g34"
     transform="matrix(1.003174,0,0,1,-450.07147,-240.18545)"
     style="stroke:#ffffff;stroke-width:0.998417;stroke-opacity:1">
    <path
       d="m 45,42.7769 c 21.7462,0 39.375,-8.3117 39.375,-18.5647 C 84.375,13.9592 66.7462,5.64746 45,5.64746 23.2538,5.64746 5.625,13.9592 5.625,24.2122 5.625,34.4652 23.2538,42.7769 45,42.7769 Z"
       stroke="#ffffff"
       strokeMiterlimit="10"
       strokeLinecap="round"
       id="path1"
       style="stroke:#ffffff;stroke-width:0.998417;stroke-opacity:1" />
    <path
       d="m 44.9992,42.7769 c 7.6733,0 13.8938,-8.3117 13.8938,-18.5647 0,-10.253 -6.2205,-18.56474 -13.8938,-18.56474 -7.6733,0 -13.8937,8.31174 -13.8937,18.56474 0,10.253 6.2204,18.5647 13.8937,18.5647 z"
       stroke="#ffffff"
       strokeMiterlimit="10"
       strokeLinecap="round"
       id="path2"
       style="stroke:#ffffff;stroke-width:0.998417;stroke-opacity:1" />
    <path
       d="m 44.9984,42.7769 c 15.4243,0 27.9282,-8.3117 27.9282,-18.5647 0,-10.253 -12.5039,-18.56474 -27.9282,-18.56474 -15.4243,0 -27.9281,8.31174 -27.9281,18.56474 0,10.253 12.5038,18.5647 27.9281,18.5647 z"
       stroke="#ffffff"
       strokeMiterlimit="10"
       strokeLinecap="round"
       id="path3"
       style="stroke:#ffffff;stroke-width:0.998417;stroke-opacity:1" />
    <path
       d="m 68.8785,9.44531 c -4.3734,3.09219 -13.4297,5.21019 -23.864,5.21019 -10.4485,0 -19.4907,-2.118 -23.8641,-5.21019 M 21.1387,38.9807 c 4.3734,-3.0922 13.4297,-5.2102 23.864,-5.2102 10.4485,0 19.4907,2.118 23.8641,5.2102 M 5.625,24.2119 H 84.3891 M 45,5.64746 V 42.7769"
       stroke="#ffffff"
       strokeMiterlimit="10"
       strokeLinecap="round"
       id="path4"
       style="fill:none;fill-opacity:1;stroke:#ffffff;stroke-width:0.998417;stroke-opacity:1" />
  </g>
  <g
     id="g10"
     style="fill:#000000;stroke:#ffffff;stroke-width:11.3206">
    <path
       id="path15"
       style="fill:#e9e9ff;fill-rule:evenodd;stroke:none;stroke-width:11.3386;stroke-linejoin:round"
       d="m 0.68147594,47.264554 0.008122,1e-6 v 1.91e-4 l -0.008122,-6e-6 z"
       points="0.68959783,47.264555 0.68959783,47.264746 0.68147594,47.26474 0.68147594,47.264554 " />
    <path
       id="path10"
       style="fill:#353564;fill-rule:evenodd;stroke:none;stroke-width:11.3386;stroke-linejoin:round"
       d="m 0.33265186,47.266863 v 0.0081 l 0.34882408,-0.01023 v -1.86e-4 z"
       points="0.33265186,47.274973 0.68147594,47.26474 0.68147594,47.264554 0.33265186,47.266863 " />
    <path
       id="path14"
       style="fill:#333333;fill-rule:evenodd;stroke:none;stroke-width:11.3386;stroke-linejoin:round"
       d="m 0.33265186,47.274973 0.16734182,0.535213 0.18960415,-0.54544 -0.008122,-6e-6 z"
       points="0.49999368,47.810186 0.68959783,47.264746 0.68147594,47.26474 0.33265186,47.274973 " />
    <path
       id="path11"
       style="fill:#000000;fill-opacity:1;fill-rule:evenodd;stroke:#ffffff;stroke-width:1.00159;stroke-linejoin:round;stroke-dasharray:none;stroke-opacity:1"
       d="m 0.33265186,47.266863 0.16734182,0.120801 0.18960415,-0.123109 -0.008122,-1e-6 z"
       points="0.49999368,47.387664 0.68959783,47.264555 0.68147594,47.264554 0.33265186,47.266863 " />
    <path
       id="path13"
       style="fill:#000000;fill-opacity:1;fill-rule:evenodd;stroke:#ffffff;stroke-width:1.00159;stroke-linejoin:bevel;stroke-dasharray:none;stroke-opacity:1"
       d="m 0.49999368,47.387664 v 0.422522 l 0.18960415,-0.54544 v -1.91e-4 z"
       points="0.49999368,47.810186 0.68959783,47.264746 0.68959783,47.264555 0.49999368,47.387664 " />
    <path
       id="path12"
       style="fill:#000000;fill-opacity:1;fill-rule:evenodd;stroke:#ffffff;stroke-width:1.00159;stroke-linejoin:round;stroke-dasharray:none;stroke-opacity:1"
       d="m 0.33265186,47.266863 0.16734182,0.120801 v 0.422522 L 0.33265186,47.274973 Z"
       points="0.49999368,47.387664 0.49999368,47.810186 0.33265186,47.274973 0.33265186,47.266863 " />
  </g>
</svg>
