<?xml version="1.0" encoding="UTF-8" standalone="no"?>
<!-- Generator: Adobe Illustrator 27.5.0, SVG Export Plug-In . SVG Version: 6.00 Build 0)  -->

<svg
   version="1.1"
   x="0px"
   y="0px"
   viewBox="0 0 196.69901 105.43"
   xml:space="preserve"
   id="svg119"
   width="196.69901"
   height="105.43"
   xmlns="http://www.w3.org/2000/svg"
   xmlns:svg="http://www.w3.org/2000/svg"><defs
   id="defs119" />

<g
   id="OBJECTS"
   transform="translate(-85.746,-42.798)">
	<g
   id="g85">
		<g
   id="g6">
			
			<linearGradient
   id="SVGID_1_"
   gradientUnits="userSpaceOnUse"
   x1="135.81931"
   y1="37.9743"
   x2="236.8761"
   y2="158.4198">
				<stop
   offset="0"
   style="stop-color:#56E7F2"
   id="stop2" />
				<stop
   offset="0.2918"
   style="stop-color:#C2A7DE"
   id="stop3" />
				<stop
   offset="0.6174"
   style="stop-color:#E8FBA9"
   id="stop4" />
				<stop
   offset="0.8366"
   style="stop-color:#32ABDF"
   id="stop5" />
				<stop
   offset="1"
   style="stop-color:#FEFCEF"
   id="stop6" />
			</linearGradient>
			<path
   style="fill:url(#SVGID_1_)"
   d="m 253.28,57.973 c -18.505,-9.785 -43.075,-15.175 -69.184,-15.175 -26.109,0 -50.68,5.39 -69.185,15.175 -18.808,9.945 -29.165,23.277 -29.165,37.54 0,14.263 10.357,27.595 29.165,37.54 18.505,9.786 43.075,15.175 69.185,15.175 26.109,0 50.68,-5.389 69.184,-15.175 18.808,-9.945 29.165,-23.277 29.165,-37.54 0,-14.263 -10.357,-27.595 -29.165,-37.54 z m 26.118,36.04 h -29.284 c -0.287,-8.127 -2.885,-15.795 -7.296,-22.607 h 24.64 c 7.193,6.734 11.472,14.425 11.94,22.607 z M 182.596,71.406 v 22.607 h -29.26 c 0.151,-8.182 1.528,-15.873 3.851,-22.607 z m -24.285,-3 c 5.243,-12.962 14.122,-21.754 24.285,-22.546 v 22.546 z m 24.285,28.607 v 22.607 h -25.409 c -2.323,-6.734 -3.699,-14.425 -3.851,-22.607 z m 0,25.607 v 22.546 c -10.162,-0.792 -19.042,-9.583 -24.285,-22.546 z m 3,-3 V 97.013 h 29.26 c -0.151,8.182 -1.528,15.873 -3.85,22.607 z m 24.284,3 c -5.243,12.963 -14.122,21.754 -24.285,22.546 V 122.62 Z M 185.596,94.013 V 71.406 h 25.409 c 2.322,6.735 3.699,14.425 3.85,22.607 z m 0,-25.607 V 45.86 c 10.162,0.792 19.042,9.583 24.285,22.546 z m 11.507,-21.539 c 16.612,2.757 30.826,10.685 39.819,21.538 H 213.057 C 209.362,58.828 203.772,51.226 197.103,46.867 Z M 155.134,68.406 H 131.27 c 8.993,-10.853 23.207,-18.781 39.819,-21.538 -6.67,4.358 -12.259,11.96 -15.955,21.538 z m -1.067,3 c -2.255,6.812 -3.584,14.48 -3.731,22.607 h -29.259 c 0.31,-8.182 3.13,-15.873 7.888,-22.607 z m -3.73,25.607 c 0.147,8.127 1.475,15.796 3.731,22.607 h -25.102 c -4.758,-6.734 -7.578,-14.425 -7.888,-22.607 z m 4.797,25.607 c 3.695,9.577 9.285,17.18 15.954,21.539 -16.612,-2.757 -30.826,-10.685 -39.819,-21.539 z m 57.923,0 h 23.864 c -8.993,10.854 -23.207,18.782 -39.819,21.539 6.67,-4.358 12.259,-11.962 15.955,-21.539 z m 1.067,-3 c 2.255,-6.812 3.584,-14.48 3.731,-22.607 h 29.259 c -0.31,8.182 -3.13,15.873 -7.889,22.607 z m 3.73,-25.607 c -0.147,-8.127 -1.476,-15.795 -3.731,-22.607 h 25.102 c 4.758,6.735 7.578,14.425 7.888,22.607 z m 46.131,-25.607 h -23.252 c -6.566,-8.701 -16.189,-15.771 -27.676,-20.26 21.108,3.516 39.041,10.768 50.928,20.26 z M 155.134,48.145 c -11.487,4.49 -21.11,11.56 -27.676,20.26 h -23.252 c 11.887,-9.491 29.82,-16.743 50.928,-20.26 z m -54.402,23.261 h 24.64 c -4.41,6.812 -7.009,14.48 -7.296,22.607 H 88.793 C 89.261,85.831 93.54,78.14 100.732,71.406 Z M 88.793,97.013 h 29.284 c 0.287,8.127 2.885,15.796 7.296,22.607 h -24.64 C 93.54,112.885 89.261,105.195 88.793,97.013 Z m 15.414,25.607 h 23.252 c 6.566,8.701 16.189,15.77 27.676,20.26 -21.109,-3.516 -39.042,-10.769 -50.928,-20.26 z m 108.85,20.261 c 11.487,-4.49 21.11,-11.559 27.676,-20.26 h 23.252 c -11.887,9.49 -29.82,16.743 -50.928,20.26 z m 54.402,-23.261 h -24.64 c 4.41,-6.812 7.009,-14.48 7.296,-22.607 h 29.284 c -0.469,8.182 -4.748,15.872 -11.94,22.607 z"
   id="path6" />
		</g>
		
		
		
		
		
		
		
		
		
		
		
	</g>
</g>

</svg>
