<svg version="1.2" xmlns="http://www.w3.org/2000/svg" viewBox="0 0 260 271" width="250" height="261"><defs><linearGradient id="P" gradientUnits="userSpaceOnUse"/><linearGradient id="g1" x2="1" href="#P" gradientTransform="matrix(371.948,-299.41,298.1,370.32,-508.288,-236.729)"><stop stop-color="#56e7f2"/><stop offset=".29" stop-color="#c2a7de"/><stop offset=".62" stop-color="#e8fba9"/><stop offset=".84" stop-color="#32abdf"/><stop offset="1" stop-color="#fefcef"/></linearGradient><linearGradient id="g2" x2="1" href="#P" gradientTransform="matrix(357.627,-287.882,264.077,328.055,-441.758,-147.633)"><stop stop-color="#56e7f2"/><stop offset=".29" stop-color="#c2a7de"/><stop offset=".62" stop-color="#e8fba9"/><stop offset=".84" stop-color="#32abdf"/><stop offset="1" stop-color="#fefcef"/></linearGradient><linearGradient id="g3" x2="1" href="#P" gradientTransform="matrix(407.155,-274.917,351.845,521.087,-670.508,-6.155)"><stop stop-color="#56e7f2"/><stop offset=".29" stop-color="#c2a7de"/><stop offset=".62" stop-color="#e8fba9"/><stop offset=".84" stop-color="#32abdf"/><stop offset="1" stop-color="#fefcef"/></linearGradient><linearGradient id="g4" x2="1" href="#P" gradientTransform="matrix(381.945,-357.103,357.112,381.954,-180.952,206.839)"><stop stop-color="#56e7f2"/><stop offset=".29" stop-color="#c2a7de"/><stop offset=".62" stop-color="#e8fba9"/><stop offset=".84" stop-color="#32abdf"/><stop offset="1" stop-color="#fefcef"/></linearGradient><linearGradient id="g5" x2="1" href="#P" gradientTransform="matrix(334.127,-327.75,328.147,334.532,-186.499,-225.092)"><stop stop-color="#56e7f2"/><stop offset=".29" stop-color="#c2a7de"/><stop offset=".62" stop-color="#e8fba9"/><stop offset=".84" stop-color="#32abdf"/><stop offset="1" stop-color="#fefcef"/></linearGradient><radialGradient id="g6" cx="0" cy="0" r="1" href="#P" gradientTransform="matrix(317.464,-402.048,402.048,317.464,-367.998,339.538)"><stop stop-color="#56e7f2"/><stop offset=".29" stop-color="#c2a7de"/><stop offset=".62" stop-color="#e8fba9"/><stop offset=".84" stop-color="#32abdf"/><stop offset="1" stop-color="#fefcef"/></radialGradient><linearGradient id="g7" x2="1" href="#P" gradientTransform="matrix(435.755,-343.041,343.053,435.77,-1096.681,23.779)"><stop stop-color="#56e7f2"/><stop offset=".29" stop-color="#c2a7de"/><stop offset=".62" stop-color="#e8fba9"/><stop offset=".84" stop-color="#32abdf"/><stop offset="1" stop-color="#fefcef"/></linearGradient><linearGradient id="g8" x2="1" href="#P" gradientTransform="matrix(139.131,-157.122,165.142,146.233,-814.881,88.385)"><stop stop-color="#56e7f2"/><stop offset=".29" stop-color="#c2a7de"/><stop offset=".62" stop-color="#e8fba9"/><stop offset=".84" stop-color="#32abdf"/><stop offset="1" stop-color="#fefcef"/></linearGradient><linearGradient id="g9" x2="1" href="#P" gradientTransform="matrix(384.761,-374.04,300.913,309.538,-883.886,-182.528)"><stop stop-color="#56e7f2"/><stop offset=".29" stop-color="#c2a7de"/><stop offset=".62" stop-color="#e8fba9"/><stop offset=".84" stop-color="#32abdf"/><stop offset="1" stop-color="#fefcef"/></linearGradient><linearGradient id="g10" x2="1" href="#P" gradientTransform="matrix(433.903,-239.37,153.713,278.633,-225.252,451.641)"><stop stop-color="#56e7f2"/><stop offset=".29" stop-color="#c2a7de"/><stop offset=".62" stop-color="#e8fba9"/><stop offset=".84" stop-color="#32abdf"/><stop offset="1" stop-color="#fefcef"/></linearGradient><linearGradient id="g11" x2="1" href="#P" gradientTransform="matrix(-422.176,230.606,-147.034,-269.179,275.576,322.037)"><stop stop-color="#56e7f2"/><stop offset=".29" stop-color="#c2a7de"/><stop offset=".62" stop-color="#e8fba9"/><stop offset=".84" stop-color="#32abdf"/><stop offset="1" stop-color="#fefcef"/></linearGradient><linearGradient id="g12" x2="1" href="#P" gradientTransform="matrix(157.534,-421.02,346.753,129.745,-987.365,443.1)"><stop stop-color="#56e7f2"/><stop offset=".29" stop-color="#c2a7de"/><stop offset=".62" stop-color="#e8fba9"/><stop offset=".84" stop-color="#32abdf"/><stop offset="1" stop-color="#fefcef"/></linearGradient><linearGradient id="g13" x2="1" href="#P" gradientTransform="matrix(157.534,-421.02,346.705,129.727,-573.571,643.968)"><stop stop-color="#56e7f2"/><stop offset=".29" stop-color="#c2a7de"/><stop offset=".62" stop-color="#e8fba9"/><stop offset=".84" stop-color="#32abdf"/><stop offset="1" stop-color="#fefcef"/></linearGradient><linearGradient id="g14" x2="1" href="#P" gradientTransform="matrix(46.11,-51.779,58.697,52.271,-5.666,-71.783)"><stop stop-color="#56e7f2"/><stop offset=".29" stop-color="#c2a7de"/><stop offset=".62" stop-color="#e8fba9"/><stop offset=".84" stop-color="#32abdf"/><stop offset="1" stop-color="#fefcef"/></linearGradient><linearGradient id="g15" x2="1" href="#P" gradientTransform="matrix(51.094,-57.376,55.809,49.699,48.277,-66.334)"><stop stop-color="#56e7f2"/><stop offset=".29" stop-color="#c2a7de"/><stop offset=".62" stop-color="#e8fba9"/><stop offset=".84" stop-color="#32abdf"/><stop offset="1" stop-color="#fefcef"/></linearGradient><linearGradient id="g16" x2="1" href="#P" gradientTransform="matrix(49.582,-55.678,54.391,48.436,99.902,-67.872)"><stop stop-color="#56e7f2"/><stop offset=".29" stop-color="#c2a7de"/><stop offset=".62" stop-color="#e8fba9"/><stop offset=".84" stop-color="#32abdf"/><stop offset="1" stop-color="#fefcef"/></linearGradient><linearGradient id="g17" x2="1" href="#P" gradientTransform="matrix(44.052,-49.468,49.339,43.937,151.397,-74.444)"><stop stop-color="#56e7f2"/><stop offset=".29" stop-color="#c2a7de"/><stop offset=".62" stop-color="#e8fba9"/><stop offset=".84" stop-color="#32abdf"/><stop offset="1" stop-color="#fefcef"/></linearGradient><linearGradient id="g18" x2="1" href="#P" gradientTransform="matrix(30.778,-39.041,38.793,30.583,-753.092,348.544)"><stop stop-color="#56e7f2"/><stop offset=".29" stop-color="#c2a7de"/><stop offset=".62" stop-color="#e8fba9"/><stop offset=".84" stop-color="#32abdf"/><stop offset="1" stop-color="#fefcef"/></linearGradient><linearGradient id="g19" x2="1" href="#P" gradientTransform="matrix(33.116,-42.006,42.63,33.608,-712.426,350.808)"><stop stop-color="#56e7f2"/><stop offset=".29" stop-color="#c2a7de"/><stop offset=".62" stop-color="#e8fba9"/><stop offset=".84" stop-color="#32abdf"/><stop offset="1" stop-color="#fefcef"/></linearGradient><linearGradient id="g20" x2="1" href="#P" gradientTransform="matrix(30.778,-39.041,38.78,30.572,-659.9,348.544)"><stop stop-color="#56e7f2"/><stop offset=".29" stop-color="#c2a7de"/><stop offset=".62" stop-color="#e8fba9"/><stop offset=".84" stop-color="#32abdf"/><stop offset="1" stop-color="#fefcef"/></linearGradient><linearGradient id="g21" x2="1" href="#P" gradientTransform="matrix(30.885,-39.176,38.892,30.661,-620.756,348.428)"><stop stop-color="#56e7f2"/><stop offset=".29" stop-color="#c2a7de"/><stop offset=".62" stop-color="#e8fba9"/><stop offset=".84" stop-color="#32abdf"/><stop offset="1" stop-color="#fefcef"/></linearGradient><linearGradient id="g22" x2="1" href="#P" gradientTransform="matrix(33.135,-42.03,42.578,33.567,-576.766,351.447)"><stop stop-color="#56e7f2"/><stop offset=".29" stop-color="#c2a7de"/><stop offset=".62" stop-color="#e8fba9"/><stop offset=".84" stop-color="#32abdf"/><stop offset="1" stop-color="#fefcef"/></linearGradient><linearGradient id="g23" x2="1" href="#P" gradientTransform="matrix(33.492,-42.483,40.571,31.985,-533.12,351.851)"><stop stop-color="#56e7f2"/><stop offset=".29" stop-color="#c2a7de"/><stop offset=".62" stop-color="#e8fba9"/><stop offset=".84" stop-color="#32abdf"/><stop offset="1" stop-color="#fefcef"/></linearGradient><linearGradient id="g24" x2="1" href="#P" gradientTransform="matrix(30.778,-39.041,38.793,30.583,-493.248,348.544)"><stop stop-color="#56e7f2"/><stop offset=".29" stop-color="#c2a7de"/><stop offset=".62" stop-color="#e8fba9"/><stop offset=".84" stop-color="#32abdf"/><stop offset="1" stop-color="#fefcef"/></linearGradient><linearGradient id="g25" x2="1" href="#P" gradientTransform="matrix(33.492,-42.483,40.583,31.994,-738.438,402.991)"><stop stop-color="#56e7f2"/><stop offset=".29" stop-color="#c2a7de"/><stop offset=".62" stop-color="#e8fba9"/><stop offset=".84" stop-color="#32abdf"/><stop offset="1" stop-color="#fefcef"/></linearGradient><linearGradient id="g26" x2="1" href="#P" gradientTransform="matrix(27.55,-34.946,42.624,33.603,-704.986,394.623)"><stop stop-color="#56e7f2"/><stop offset=".29" stop-color="#c2a7de"/><stop offset=".62" stop-color="#e8fba9"/><stop offset=".84" stop-color="#32abdf"/><stop offset="1" stop-color="#fefcef"/></linearGradient><linearGradient id="g27" x2="1" href="#P" gradientTransform="matrix(27.55,-34.946,42.621,33.601,-675.334,394.623)"><stop stop-color="#56e7f2"/><stop offset=".29" stop-color="#c2a7de"/><stop offset=".62" stop-color="#e8fba9"/><stop offset=".84" stop-color="#32abdf"/><stop offset="1" stop-color="#fefcef"/></linearGradient><linearGradient id="g28" x2="1" href="#P" gradientTransform="matrix(33.116,-42.006,42.605,33.588,-639.046,401.949)"><stop stop-color="#56e7f2"/><stop offset=".29" stop-color="#c2a7de"/><stop offset=".62" stop-color="#e8fba9"/><stop offset=".84" stop-color="#32abdf"/><stop offset="1" stop-color="#fefcef"/></linearGradient><linearGradient id="g29" x2="1" href="#P" gradientTransform="matrix(39.63,-50.269,51.599,40.678,-589.696,409.03)"><stop stop-color="#56e7f2"/><stop offset=".29" stop-color="#c2a7de"/><stop offset=".62" stop-color="#e8fba9"/><stop offset=".84" stop-color="#32abdf"/><stop offset="1" stop-color="#fefcef"/></linearGradient><linearGradient id="g30" x2="1" href="#P" gradientTransform="matrix(29.154,-36.981,36.424,28.715,-544.329,397.349)"><stop stop-color="#56e7f2"/><stop offset=".29" stop-color="#c2a7de"/><stop offset=".62" stop-color="#e8fba9"/><stop offset=".84" stop-color="#32abdf"/><stop offset="1" stop-color="#fefcef"/></linearGradient><linearGradient id="g31" x2="1" href="#P" gradientTransform="matrix(31.154,-39.518,39.385,31.049,-505.454,400.181)"><stop stop-color="#56e7f2"/><stop offset=".29" stop-color="#c2a7de"/><stop offset=".62" stop-color="#e8fba9"/><stop offset=".84" stop-color="#32abdf"/><stop offset="1" stop-color="#fefcef"/></linearGradient></defs><style>tspan{white-space:pre}.a{fill:#171717}.b{fill:#fff}.c{fill:url(#g1)}.d{fill:url(#g2)}.e{fill:url(#g3)}.f{fill:url(#g4)}.g{fill:url(#g5)}.h{fill:url(#g6)}.i{fill:url(#g7)}.j{fill:url(#g8)}.k{fill:url(#g9)}.l{opacity:.2;fill:url(#g10);stroke:#171717;stroke-miterlimit:10;stroke-width:6}.m{opacity:.2;fill:url(#g11);stroke:#171717;stroke-miterlimit:10;stroke-width:6}.n{fill:url(#g12)}.o{fill:url(#g13)}.p{fill:url(#g14)}.q{fill:url(#g15)}.r{fill:url(#g16)}.s{fill:url(#g17)}.t{font-size: 28px;fill: #000000;font-weight: 800;font-family: "Montserrat-ExtraBold", "Montserrat"}.u{font-size: 12px;fill: #000000;font-weight: 800;font-family: "Montserrat-ExtraBold", "Montserrat"}.v{font-size: 23px;fill: #171717;font-weight: 800;font-family: "Montserrat-ExtraBold", "Montserrat"}.w{font-size: 47px;fill: #000000;font-weight: 800;font-style: italic;font-family: "Montserrat-ExtraBoldItalic", "Montserrat"}.x{font-size: 18px;fill: #171717;font-weight: 800;font-family: "Montserrat-ExtraBold", "Montserrat"}.y{fill:url(#g18)}.z{fill:url(#g19)}.A{fill:url(#g20)}.B{fill:url(#g21)}.C{fill:url(#g22)}.D{fill:url(#g23)}.E{fill:url(#g24)}.F{fill:url(#g25)}.G{fill:url(#g26)}.H{fill:url(#g27)}.I{fill:url(#g28)}.J{fill:url(#g29)}.K{fill:url(#g30)}.L{fill:url(#g31)}</style><path class="a" d="m-681.5 633h-1499.5v-1000h1499.5z"/><path class="a" d="m-204.6-120.6c-76.3 0-138.3-60.9-138.3-135.7 0-74.7 62-135.6 138.3-135.6 76.3 0 138.3 60.9 138.3 135.6 0 74.8-62 135.7-138.3 135.7z"/><path fill-rule="evenodd" class="b" d="m-204.6-119.9c-76.7 0-139.1-61.1-139.1-136.4 0-75.2 62.4-136.3 139.1-136.3 76.7 0 139.1 61.1 139.1 136.3 0 75.3-62.4 136.4-139.1 136.4zm0-271.2c-75.9 0-137.6 60.5-137.6 134.8 0 74.4 61.7 134.9 137.6 134.9 75.8 0 137.6-60.5 137.6-134.9 0-74.3-61.8-134.8-137.6-134.8z"/><path class="a" d="m-79.2-256.3c0-67.8-56.1-122.7-125.4-122.7-69.3 0-125.5 54.9-125.5 122.7 0 67.9 56.2 122.8 125.5 122.8 69.3 0 125.4-54.9 125.4-122.8z"/><path fill-rule="evenodd" class="c" d="m-76.2-256.3c0 69.4-57.6 125.8-128.4 125.8-70.8 0-128.5-56.4-128.5-125.8 0-69.3 57.7-125.7 128.5-125.7 70.8 0 128.4 56.4 128.4 125.7zm-6 2h-36.8c-0.3 20.8-3.9 40.3-10.3 57.4h30.9c10-16.9 15.8-36.5 16.2-57.4zm-228.7 57.4h31c-6.4-17.1-10.1-36.6-10.3-57.4h-36.8c0.3 20.9 6.2 40.5 16.1 57.4zm-16.1-61.4h36.8c0.2-20.7 3.9-40.2 10.3-57.3h-31c-9.9 16.9-15.8 36.5-16.1 57.3zm204 0c-0.3-20.8-4.1-40.3-10.6-57.3h-32.3c3.1 17 5 36.5 5.1 57.3zm-47.9 65.4h-31.7v56.4q1.6 0 3.2-0.1c11.9-5 22.2-26.4 28.5-56.3zm-35.7 56.4v-56.4h-31.7c6.2 29.9 16.6 51.3 28.4 56.3q1.7 0.1 3.3 0.1zm-31.7-183.1h31.7v-56.4q-1.6 0-3.3 0.1c-11.8 5-22.2 26.4-28.4 56.3zm35.7-56.4v56.4h31.7c-6.3-29.9-16.6-51.3-28.5-56.3q-1.6-0.1-3.2-0.1zm-36.5 60.4c-3.3 17.1-5.2 36.7-5.3 57.3h37.8v-57.3zm-5.3 61.3c0.1 20.7 2 40.3 5.3 57.4h32.5v-57.4zm74.2 57.4c3.3-17.1 5.2-36.7 5.3-57.4h-37.7v57.4zm5.3-61.4c-0.1-20.6-2.1-40.2-5.3-57.3h-32.5v57.3zm29.6-61.3c-12-28.9-32.1-49.6-55.5-55.6q-0.2-0.1-0.5-0.1c10.5 9.3 19.1 29.3 24.5 55.7zm-83.4-55.6c-23.4 6-43.4 26.7-55.5 55.6h31.5c5.4-26.4 14.1-46.4 24.6-55.7q-0.3 0-0.6 0.1zm-57.1 59.6c-6.5 17-10.3 36.5-10.5 57.3h37.8c0.1-20.8 1.9-40.3 5.1-57.3zm0 118.7h32.3c-3.2-17-5-36.5-5.1-57.4h-37.8c0.2 20.9 4 40.4 10.6 57.4zm1.5 4c12.1 28.9 32.1 49.6 55.5 55.6q0.3 0.1 0.6 0.1c-10.5-9.3-19.2-29.3-24.5-55.7zm83.4 55.6c23.4-6 43.4-26.7 55.5-55.6h-31.6c-5.3 26.4-14 46.4-24.5 55.7q0.3 0 0.6-0.1zm57-59.6c6.6-17 10.4-36.5 10.6-57.4h-37.8c-0.1 20.9-1.9 40.4-5.1 57.4zm51.4-61.4c-0.4-20.8-6.2-40.4-16.2-57.3h-30.9c6.4 17.1 10 36.6 10.3 57.3zm-90.1-113.5c17.4 10.4 31.9 28.9 41.4 52.2h30.1c-16.1-25.2-41.5-44.1-71.5-52.2zm-136.1 52.2h30.1c9.5-23.3 24-41.8 41.3-52.2-29.9 8.1-55.3 27-71.4 52.2zm71.4 178.9c-17.3-10.4-31.8-28.9-41.3-52.2h-30.1c16.1 25.2 41.5 44.1 71.4 52.2zm136.2-52.2h-30.1c-9.5 23.3-24 41.8-41.4 52.2 30-8.1 55.4-27 71.5-52.2z"/><path fill-rule="evenodd" class="d" d="m-95.7-266.1q-2.1 1.1-4.4 1.5c-1.9 56-48.1 101-104.5 101-56.5 0-102.6-45-104.5-101q-2.3-0.4-4.4-1.5c-2.1-1-2.9-3.5-1.9-5.5 1-2.1 3.5-2.9 5.6-1.9 2.9 1.5 6.5 1.5 9.5 0 2-1 4.5-0.2 5.5 1.9 1 2 0.2 4.5-1.9 5.5q-2 1-4.2 1.5c2 51.4 44.4 92.7 96.3 92.7 51.9 0 94.3-41.3 96.2-92.7q-2.1-0.5-4.2-1.5c-2-1-2.9-3.5-1.8-5.5 1-2.1 3.5-2.9 5.5-1.9 2.9 1.5 6.6 1.5 9.5 0 2.1-1 4.5-0.2 5.5 1.9 1.1 2 0.2 4.5-1.8 5.5zm-159-1c0-20 7.3-36.1 16.2-36.1 8.9 0 16.1 16.1 16.1 36.1 0 20-7.2 36.2-16.1 36.2-8.9 0-16.2-16.2-16.2-36.2zm67.8 0c0-20 7.3-36.1 16.2-36.1 8.9 0 16.1 16.1 16.1 36.1 0 20-7.2 36.2-16.1 36.2-8.9 0-16.2-16.2-16.2-36.2z"/><path class="a" d="m-311.9-42.3q-0.3 0-0.7-0.1c-25.4-3.5-42-21.6-48-29.3-12.2-15.5-24.6-29.8-42.9-34.6-3.2-0.8-6.5-1.2-9.7-1.2-6.6 0-12.6 1.8-17.3 5.4-4.6 3.4-7.6 7.8-8.7 12.7-2.7 12.6 6.9 23.9 17.1 30.5q-1.7 0.5-3.3 1.3c-5.1 2.6-8.9 7.7-10.1 13.5q-2.4-2.7-4.9-5.3c-11.1-11.5-24.6-18.1-37.2-18.1-3.5 0-7 0.5-10.4 1.5-16.6 5.2-27.8 24.2-24.9 42.5 2.6 16.2 15.2 30.4 32.1 36.4 10.1 3.5 20.4 3.9 30.3 4.2 4.6 0.2 8.9 0.4 13.2 0.8 14.4 1.6 22.7 5.4 25.3 11.7 1 2.7 0.6 5.7-1.3 8-1.4 1.7-3.8 2.8-6.1 2.8-1.1 0-2.1-0.3-2.9-0.7-1.6-0.9-3.3-2.7-5.1-4.6l-0.4-0.4c-2.7-2.9-6-6.1-10.5-8q-3.1-1.2-6.6-1.3c-8 0-15.2 5.2-17.6 12.6-2.8 8.8 1.2 18.7 9.4 23.1 2.9 1.6 5.8 2.3 8.3 2.9 1.2 0.2 2.3 0.5 3.2 0.8 2.5 0.8 4.6 2.4 5.8 4.3 1.2 1.8 1.6 4.1 1 5.9-0.5 1.6-1.8 3-3.2 3.4-0.5 0.1-1.2 0.2-2 0.2-1.6 0-3.5-0.4-5.1-0.9-1.9-0.7-5-4.2-6.8-6.2-1.3-1.6-2.6-3.2-4-4.9-3.8-4.8-7.8-9.7-13.3-13.6-5.1-3.6-11.4-5.7-17.3-5.7-5.3 0-10.1 1.6-13.9 4.7-7.8 6.3-11.2 19.8-3.7 31.6 4.7 7.3 12.6 12.7 23.6 16 3.5 1.1 7.1 1.9 10.5 2.6 4.2 1 8.2 1.9 12 3.3 17.2 6.1 30.1 21.8 42.6 37q1.6 2.1 3.3 4.1c8.5 10.4 21.7 21.6 35.1 30.2 12.3 7.8 30.9 17 49.6 17q0.6 0 1.2 0 0.8 0 1.6 0c47.3 0 85.7-50.9 87.6-116 1.7-61.8-30.4-113.3-74.9-120.1z"/><path fill-rule="evenodd" class="b" d="m-324.6 194.6q-0.8 0-1.6 0-0.6 0-1.2 0c-18.9 0-37.6-9.4-50-17.2-13.5-8.6-26.7-19.9-35.3-30.3l-3.3-4.1c-12.4-15.1-25.2-30.7-42.3-36.8-3.7-1.4-7.6-2.3-11.8-3.2-3.5-0.8-7.1-1.6-10.6-2.7-11.2-3.4-19.2-8.8-24-16.3-7.8-12.1-4.2-26.1 3.8-32.6 4-3.2 8.9-4.9 14.4-4.9 6 0 12.5 2.2 17.8 5.9 5.5 4 9.5 8.9 13.4 13.7 1.4 1.7 2.7 3.3 4 4.9 1.6 1.9 4.7 5.4 6.5 6 1.4 0.5 3.3 0.8 4.8 0.8 0.7 0 1.4 0 1.8-0.2 1.2-0.3 2.3-1.5 2.7-2.8 0.5-1.7 0.1-3.7-0.9-5.3-1.1-1.8-3.1-3.3-5.4-4-0.9-0.3-2-0.6-3.1-0.8-2.6-0.6-5.6-1.3-8.6-2.9-8.5-4.6-12.7-14.9-9.7-24 2.5-7.7 10-13.1 18.3-13.1 2.4 0 4.7 0.5 6.9 1.3 4.6 1.9 8 5.2 10.7 8.2l0.4 0.4c1.8 1.9 3.4 3.6 4.9 4.4 0.8 0.4 1.6 0.6 2.6 0.6 2.1 0 4.3-1 5.5-2.5 1.7-2.1 2.1-4.8 1.2-7.2-2.5-6.1-10.6-9.7-24.7-11.2-4.2-0.5-8.5-0.6-13.1-0.8-10-0.4-20.4-0.8-30.6-4.3-17.1-6-29.8-20.5-32.5-37-3-18.6 8.4-38 25.4-43.3 3.4-1 7-1.6 10.6-1.6 12.8 0 26.5 6.7 37.8 18.3 1.3 1.4 2.5 2.8 3.9 4.3 1.6-5.4 5.3-10.1 10.2-12.6q0.9-0.4 1.9-0.8c-9.8-6.8-18.8-18.1-16.1-30.5 1.1-5 4.2-9.6 8.9-13.1 4.8-3.7 11-5.6 17.8-5.6 3.3 0 6.6 0.5 9.9 1.3 18.5 4.8 31 19.2 43.3 34.9 5.9 7.5 22.4 25.5 47.5 29q0.4 0 0.8 0.1c44.7 6.9 77.2 58.8 75.4 120.8-1.8 65.5-40.6 116.8-88.3 116.8zm-1.6-1.5q0.8 0 1.6 0c46.9 0 85-50.6 86.8-115.3 1.7-61.3-30.2-112.6-74.2-119.3q-0.4-0.1-0.7-0.2c-25.7-3.5-42.5-21.8-48.5-29.5-12.1-15.4-24.4-29.7-42.4-34.3-3.2-0.9-6.5-1.3-9.6-1.3-6.5 0-12.3 1.8-16.9 5.3-4.4 3.3-7.3 7.6-8.3 12.3-2.7 12.2 6.9 23.3 16.7 29.7 0.3 0.1 0.4 0.4 0.4 0.7-0.1 0.3-0.3 0.6-0.6 0.6q-1.6 0.5-3.1 1.3c-4.9 2.5-8.6 7.3-9.8 13-0.1 0.2-0.3 0.5-0.6 0.5-0.2 0.1-0.5 0-0.7-0.2-1.7-1.9-3.2-3.7-4.8-5.3-11-11.4-24.3-17.9-36.7-17.9-3.5 0-6.9 0.5-10.1 1.6-16.4 5-27.3 23.7-24.4 41.5 2.5 16 14.9 30 31.5 35.8 10 3.5 20.2 3.9 30.1 4.3 4.6 0.2 9 0.3 13.3 0.8 14.7 1.5 23.2 5.5 25.9 12.2 1.1 2.9 0.6 6.2-1.4 8.7-1.5 1.8-4.2 3-6.7 3-1.2 0-2.3-0.2-3.3-0.7-1.7-1-3.4-2.8-5.2-4.7l-0.4-0.5c-2.7-2.8-5.9-6-10.3-7.8q-3-1.2-6.3-1.2c-7.6 0-14.6 5-16.9 12.1-2.7 8.4 1.2 17.9 9 22.2 2.8 1.5 5.7 2.2 8.2 2.7 1.2 0.3 2.3 0.5 3.2 0.9 2.7 0.8 4.9 2.5 6.3 4.6 1.2 2 1.6 4.5 1 6.5-0.5 1.9-2 3.4-3.7 3.9-1.8 0.5-5.1 0.2-7.5-0.7-2-0.7-4.6-3.6-7.1-6.4-1.4-1.6-2.7-3.2-4.1-4.9-3.8-4.8-7.7-9.6-13.1-13.5-5-3.5-11.2-5.6-16.9-5.6-5.1 0-9.8 1.6-13.4 4.6-7.5 6.1-10.9 19.2-3.5 30.6 4.5 7.1 12.3 12.4 23.1 15.7 3.5 1 7.1 1.8 10.5 2.6 4.3 1 8.3 1.9 12 3.2 17.5 6.3 30.4 22.1 42.9 37.4l3.4 4c8.5 10.3 21.5 21.5 34.9 30 12.2 7.8 30.6 17 49.2 17q0.6 0 1.2 0z"/><path class="e" d="m-313.7-34.7v-0.1c-23.9-3.3-42.5-18.7-53-32.1-10.5-13.4-22.2-27.6-38.7-31.9-6.9-1.8-14.8-1.5-20.5 2.8-2.7 2.1-5 4.9-5.7 8.3-2.1 9.5 7.1 18.2 14.3 22.7 12.4 7.7 28.2 4.7 40.7 12.6 6.5 4 11.1 11.9 5.5 18.7-2.5 2.9-6.3 4.6-10.1 4.5-6.4-0.2-11.5-5.1-15.5-9.6-4.5-5.1-9.1-11-16.1-12.8-3-0.7-6.3-0.5-9.1 0.9-4 2.1-6.5 6.7-6.4 11.3 0.2 6.9 5.7 12.5 12.1 14.4 5.6 1.7 11.9 0.9 16.9 3.8 3.4 1.9 5.9 5.6 6.2 9.5 0.3 3.9-1.7 8-5.1 10-4.2 2.5-9.3 0.7-13-2.1-4.8-3.7-8.5-8.7-12.4-13.2-7.5-8.9-14.2-18.6-22.4-27.1-10.3-10.7-25.5-18.9-39.7-14.5-13.5 4.2-21.8 19.8-19.5 33.8 2.2 14.1 13.5 25.7 26.9 30.4 13.3 4.6 27.8 3.2 41.8 4.7 11.5 1.2 26.7 4.3 31.6 16.4 2.2 5.4 1.2 11.4-2.4 15.8-4.4 5.3-12.6 7.2-18.6 4-3-1.5-5.3-4.1-7.5-6.5-2.3-2.4-4.7-4.9-7.8-6.1-5.5-2.2-12.2 1-14 6.5-1.6 5.2 1 11.4 5.8 14 3.1 1.7 6.8 1.9 10.2 3 4 1.4 7.7 4 10 7.6 2.2 3.5 3 8.1 1.8 12.2-1.2 4-4.5 7.5-8.6 8.6-3.5 1-8.2 0.4-11.7-0.8-3.8-1.4-7.4-5.4-10-8.4-5.2-6-9.6-12.7-16-17.3-6.4-4.6-15.7-6.3-21.8-1.3-6.2 5-6.3 14.8-2.1 21.5 4.3 6.6 11.8 10.4 19.3 12.7 7.6 2.3 15.4 3.3 22.9 6 20.9 7.5 35.1 26.4 49.3 43.5 14.1 17.1 49.6 45.2 79.9 44.4 43.3 1.2 79.7-47.4 81.4-108.5 1.7-58.1-28.7-106.6-68.9-112.3z"/><path fill-rule="evenodd" class="a" d="m-263.6 99.7c-3.1-3.4-7-5.5-11-5.8-1.4-0.2-2.7 1.4-2.8 3.4-0.1 2 1 3.7 2.4 3.8q1 0.1 2 0.4c-8.3 30.5-29.1 50.5-52.2 49.8-23.1-0.6-42.7-21.7-49.3-52.6q1-0.3 2-0.3c1.5-0.1 2.6-1.7 2.6-3.7 0-2-1.2-3.6-2.6-3.6-4 0.2-8 2-11.3 5.2-1.2 1.1-1.5 3.4-0.7 5 0.5 1 1.2 1.6 2 1.6 0.5 0 1.1-0.2 1.5-0.6 0.5-0.5 1.1-0.9 1.6-1.3 7.2 33.8 28.7 56.9 54 57.6 25.3 0.7 48-21.1 57.1-54.5 0.6 0.4 1.1 0.9 1.5 1.4 0.5 0.4 1 0.7 1.5 0.7 0.8 0 1.6-0.5 2.1-1.5 0.9-1.6 0.7-3.8-0.4-5zm-81.1-4.2c6.4 0.2 12-15.1 12.5-34.2 0.5-19.2-4.2-34.8-10.5-35-6.4-0.2-11.9 15.2-12.5 34.3-0.5 19.1 4.2 34.8 10.5 34.9zm42.1 1.2c6.3 0.2 11.9-15.2 12.4-34.3 0.6-19.1-4.1-34.7-10.5-34.9-6.3-0.2-11.9 15.2-12.5 34.3-0.5 19.1 4.2 34.7 10.6 34.9z"/><path class="a" d="m127.1 264.5c-68 0-123.3-55.3-123.3-123.3 0-68 55.3-123.3 123.3-123.3 67.9 0 123.3 55.3 123.3 123.3 0 68-55.4 123.3-123.3 123.3z"/><path fill-rule="evenodd" class="b" d="m127.1 265.2c-68.4 0-124.1-55.6-124.1-124 0-68.4 55.7-124 124.1-124 68.4 0 124 55.6 124 124 0 68.4-55.6 124-124 124zm0-246.5c-67.6 0-122.6 54.9-122.6 122.5 0 67.6 55 122.5 122.6 122.5 67.5 0 122.5-54.9 122.5-122.5 0-67.6-55-122.5-122.5-122.5z"/><path class="f" d="m12.7 140.2c0 63.2 51.2 114.4 114.4 114.4 63.1 0 114.3-51.2 114.3-114.4 0-63.2-51.2-114.4-114.3-114.4-63.2 0-114.4 51.2-114.4 114.4z"/><path class="a" d="m224.7 137.5q-1.9 1-3.9 1.4c-1.8 50.2-43.1 90.5-93.7 90.5-50.7 0-92-40.3-93.8-90.5q-2-0.4-3.9-1.4c-1.8-0.9-2.6-3.1-1.7-4.9 0.9-1.9 3.2-2.6 5-1.7 2.7 1.3 5.8 1.3 8.5 0 1.9-0.9 4.1-0.2 5 1.7 0.9 1.8 0.1 4-1.7 4.9q-1.8 0.9-3.8 1.4c1.8 46.1 39.8 83.1 86.4 83.1 46.5 0 84.5-37 86.3-83.1q-2-0.5-3.8-1.4c-1.8-0.9-2.6-3.1-1.7-4.9 0.9-1.9 3.2-2.6 5-1.7 2.6 1.3 5.9 1.3 8.5 0 1.8-0.9 4.1-0.2 5 1.7 0.9 1.8 0.1 4-1.7 4.9z"/><path class="a" d="m159.9 112.1l11.2-11.3c1.7-1.6 1.7-4.3 0-5.9-1.6-1.7-4.3-1.7-5.9 0l-11.3 11.2-11.2-11.2c-1.7-1.7-4.3-1.7-6 0-1.6 1.6-1.6 4.3 0 5.9l11.3 11.3-11.3 11.2c-1.6 1.7-1.6 4.3 0 6 0.8 0.8 1.9 1.2 3 1.2q1.6 0 3-1.2l11.2-11.3 11.3 11.3c0.8 0.8 1.9 1.2 3 1.2 1 0 2.1-0.4 2.9-1.2 1.7-1.7 1.7-4.3 0-6z"/><path class="a" d="m117.4 94.9c-1.7-1.7-4.3-1.7-6 0l-11.2 11.2-11.3-11.2c-1.6-1.7-4.3-1.7-5.9 0-1.7 1.6-1.7 4.3 0 5.9l11.2 11.3-11.2 11.2c-1.7 1.7-1.7 4.3 0 6 0.8 0.8 1.9 1.2 2.9 1.2 1.1 0 2.2-0.4 3-1.2l11.3-11.3 11.2 11.3q1.4 1.2 3 1.2c1.1 0 2.2-0.4 3-1.2 1.6-1.7 1.6-4.3 0-6l-11.3-11.2 11.3-11.3c1.6-1.6 1.6-4.3 0-5.9z"/><path class="a" d="m123-391.9c-71.9 0-130.3 58.5-130.3 130.4v147.9 78c0 5.4 4.4 9.8 9.8 9.8h241c5.5 0 9.9-4.4 9.9-9.8v-78-147.9c0-71.9-58.5-130.4-130.4-130.4z"/><path fill-rule="evenodd" class="b" d="m243.5-25h-241c-5.9 0-10.6-4.8-10.6-10.6v-225.9c0-72.3 58.8-131.1 131.1-131.1 72.3 0 131.1 58.8 131.1 131.1v225.9c0 5.8-4.7 10.6-10.6 10.6zm-120.5-366.1c-71.5 0-129.6 58.1-129.6 129.6v225.9c0 5 4.1 9.1 9.1 9.1h241c5 0 9.1-4.1 9.1-9.1v-225.9c0-71.5-58.1-129.6-129.6-129.6z"/><path class="g" d="m123-382.1c-66.6 0-120.5 54-120.5 120.5v148h241v-148c0-66.5-53.9-120.5-120.5-120.5z"/><path fill-rule="evenodd" d="m183.5-230c-12.1 20.4-34.7 34.1-60.5 34.1-25.8 0-48.3-13.7-60.5-34.1q-0.2-0.2-0.3-0.5c-5.8-10-9.2-21.6-9.2-34 0-12.3 3.4-23.9 9.2-34q0.1-0.2 0.3-0.4c12.1-20.4 34.7-34.1 60.5-34.1 25.8 0 48.4 13.7 60.5 34.1q0.2 0.2 0.3 0.4c5.8 10.1 9.2 21.7 9.2 34 0 12.4-3.4 24-9.2 34q-0.1 0.3-0.3 0.5zm-118.3-3.1h15.7c-3.1-8.9-5-18.9-5.2-29.4h-18.7c0.3 10.6 3.3 20.6 8.2 29.4zm-8.2-33.3h18.7c0.2-10.6 2.1-20.6 5.2-29.4h-15.7c-4.9 8.7-7.9 18.7-8.2 29.4zm123.8-29.4h-15.7c3.1 8.8 5 18.8 5.2 29.4h18.7c-0.3-10.7-3.2-20.7-8.2-29.4zm-19.9 0h-15.9c1.6 8.8 2.5 18.7 2.6 29.4h18.8c-0.2-10.7-2.2-20.7-5.5-29.4zm-20.6 66.6h-15.3v29c5.9-1.9 11.7-12.5 15.3-29zm-19.3 29v-29h-15.3c3.6 16.5 9.5 27.1 15.3 29zm-15.3-99.5h15.3v-29.1c-5.8 2-11.7 12.5-15.3 29.1zm19.3-29.1v29.1h15.3c-3.6-16.6-9.4-27.1-15.3-29.1zm-20.1 33c-1.5 8.5-2.5 18.4-2.6 29.4h18.7v-29.4zm-2.6 33.3c0.1 10.9 1.1 20.8 2.6 29.4h16.1v-29.4zm38.8 29.4c1.6-8.6 2.5-18.5 2.6-29.4h-18.7v29.4zm2.6-33.3c-0.1-11-1-20.9-2.6-29.4h-16.1v29.4zm15.6-33.3c-6-13.7-15.3-23.8-26.3-27.7 4.7 5.7 8.6 15.4 11.2 27.7zm-46.3-27.7c-11 3.9-20.3 14-26.3 27.7h15.1c2.6-12.3 6.5-22 11.2-27.7zm-27.9 31.6c-3.3 8.7-5.3 18.7-5.5 29.4h18.8c0.1-10.7 1-20.6 2.6-29.4zm0 62.7h15.9c-1.6-8.8-2.5-18.8-2.6-29.4h-18.7c0.2 10.6 2.1 20.6 5.4 29.4zm1.6 3.9c6 13.7 15.4 23.8 26.4 27.6-4.8-5.7-8.7-15.4-11.3-27.6zm46.3 27.6c11-3.8 20.4-13.9 26.4-27.6h-15.1c-2.6 12.2-6.5 21.9-11.3 27.6zm28-31.5c3.3-8.8 5.2-18.8 5.4-29.4h-18.7c-0.1 10.6-1.1 20.6-2.7 29.4zm4.2 0h15.7c5-8.8 7.9-18.8 8.2-29.4h-18.7c-0.2 10.5-2.1 20.5-5.2 29.4zm-20.7-92.5c7.9 5.8 14.6 14.8 19.2 25.9h14.7c-7.9-12-19.9-21.2-33.9-25.9zm-76.7 25.9h14.7c4.6-11.1 11.3-20.1 19.2-25.9-14 4.7-25.9 13.9-33.9 25.9zm33.9 96.4c-7.9-5.9-14.6-14.9-19.2-25.9h-14.7c8 12 19.9 21.2 33.9 25.9zm76.7-25.9h-14.7c-4.6 11-11.3 20-19.2 25.9 14-4.7 26-13.9 33.9-25.9z"/><path class="a" d="m-30.9 201.9c2.4-4.1 3.7-8.5 3.7-13 0-9.4-5.3-18-15.3-25.1 3.5-5.2 4.4-10 4.4-13.5 0-10-6.2-18.2-16.2-24.5 3.3-4.1 5.2-8.8 5.2-14 0-10.1-6.8-18.1-17.6-23.9 4.5-4.6 6.7-9.7 6.7-14.7 0-8.9-7-18.3-21.6-24.4 8-5.6 14.7-12.8 19.8-21.1q0.2-0.4 0.4-0.8c6.1-10.3 9.6-22.2 9.6-34.9 0-12.6-3.5-24.6-9.6-34.8q-0.2-0.4-0.4-0.8c-12.5-20.5-35.2-34.2-61.2-34.2-26 0-48.8 13.7-61.2 34.2q-0.2 0.4-0.5 0.8c-6 10.2-9.5 22.1-9.5 34.8 0 12.7 3.5 24.6 9.5 34.9q0.2 0.4 0.5 0.8c5 8.3 11.8 15.5 19.8 21.1-14.7 6.1-21.6 15.5-21.6 24.4 0 5 2.2 10.1 6.6 14.7-10.7 5.8-17.6 13.8-17.6 23.9 0 5.2 1.9 9.9 5.3 14.1-13.8 8.7-16.2 18.6-16.2 24.4 0 5 1.5 9.5 4.3 13.6-10 7.1-15.3 15.7-15.3 25 0 4.5 1.3 8.9 3.7 13-9.1 7-14.6 15.6-14.6 25.6 0 31.7 55 48.8 106.8 48.8 51.7 0 106.8-17.1 106.8-48.8 0-10-5.5-18.6-14.7-25.6z"/><path fill-rule="evenodd" class="b" d="m-123 277.1c-52.2 0-107.6-17.4-107.6-49.6 0-9.6 4.9-18.3 14.5-25.8-2.3-4.1-3.5-8.4-3.5-12.8 0-9.3 5.2-18 15-25.2-2.7-4.2-4.1-8.6-4.1-13.4 0-5.3 2.1-15.6 15.9-24.6-3.3-4.3-4.9-9-4.9-13.9 0-9.4 5.9-17.7 17.1-24.1-4-4.5-6.2-9.5-6.2-14.5 0-9.8 7.6-18.7 20.9-24.5-7.7-5.7-14.1-12.6-18.9-20.6q-0.2-0.3-0.4-0.6l-0.1-0.3c-6.3-10.6-9.6-22.8-9.6-35.2 0-12.3 3.3-24.5 9.6-35.2l0.1-0.2q0.2-0.3 0.4-0.6c12.9-21.3 36.6-34.6 61.8-34.6 25.2 0 48.9 13.3 61.8 34.6q0.2 0.3 0.4 0.6l0.1 0.2c6.3 10.7 9.6 22.9 9.6 35.2 0 12.4-3.3 24.6-9.6 35.3l-0.1 0.2q-0.2 0.3-0.4 0.6c-4.9 8-11.2 14.9-18.9 20.6 13.3 5.8 20.8 14.7 20.8 24.5 0 5-2.1 10-6.2 14.5 11.3 6.4 17.2 14.7 17.2 24.1 0 4.9-1.7 9.6-4.9 13.9 10.5 6.8 15.8 15.1 15.8 24.6 0 3.2-0.7 8.1-4.1 13.3 9.9 7.2 15.1 16 15.1 25.3 0 4.4-1.2 8.7-3.5 12.8 9.6 7.5 14.4 16.2 14.4 25.8 0 32.2-55.4 49.6-107.5 49.6zm0-354.2c-24.7 0-47.9 13-60.6 33.9q-0.1 0.3-0.3 0.5l-0.1 0.2c-6.2 10.5-9.4 22.4-9.4 34.5 0 12.1 3.2 24 9.4 34.5l0.1 0.2q0.1 0.3 0.3 0.6c5 8.3 11.6 15.3 19.6 20.9 0.2 0.2 0.3 0.4 0.3 0.7 0 0.3-0.2 0.5-0.4 0.6-13.3 5.5-21.2 14.4-21.2 23.7 0 4.9 2.3 9.8 6.5 14.2 0.1 0.1 0.2 0.4 0.2 0.6-0.1 0.2-0.2 0.4-0.4 0.5-11.3 6.2-17.2 14.2-17.2 23.3 0 4.8 1.7 9.4 5.1 13.6q0.2 0.2 0.1 0.6 0 0.3-0.3 0.5c-13.8 8.8-15.9 18.7-15.9 23.8q0 7.1 4.2 13.2c0.2 0.3 0.1 0.8-0.2 1-9.8 7-14.9 15.4-14.9 24.4 0 4.3 1.2 8.6 3.6 12.6 0.2 0.3 0.1 0.7-0.2 1-9.5 7.3-14.4 15.7-14.4 25 0 31.2 54.7 48.1 106.1 48.1 51.4 0 106-16.9 106-48.1 0-9.3-4.8-17.7-14.3-25-0.3-0.3-0.4-0.7-0.2-1 2.4-4 3.6-8.3 3.6-12.6 0-9-5.2-17.5-15-24.5-0.4-0.2-0.4-0.7-0.2-1 3.5-5.2 4.2-10 4.2-13.1 0-9.2-5.3-17.2-15.8-23.8q-0.3-0.2-0.3-0.5-0.1-0.4 0.1-0.6c3.4-4.2 5.1-8.8 5.1-13.6 0-9.1-6-17.1-17.2-23.3-0.2-0.1-0.4-0.3-0.4-0.5 0-0.2 0-0.5 0.2-0.6 4.2-4.4 6.4-9.3 6.4-14.2 0-9.3-7.9-18.2-21.1-23.7-0.2-0.1-0.4-0.3-0.4-0.6-0.1-0.3 0-0.5 0.3-0.7 7.9-5.6 14.5-12.7 19.5-20.9q0.2-0.3 0.3-0.5l0.2-0.3c6.1-10.4 9.4-22.4 9.4-34.5 0-12-3.3-24-9.4-34.4l-0.2-0.3q-0.1-0.2-0.3-0.5c-12.7-20.9-35.9-33.9-60.5-33.9z"/><path fill-rule="evenodd" class="h" d="m-42.4 203.6c4.7-4.5 7.2-9.4 7.2-14.7 0-9-7.4-17.1-19.9-23.3 5.7-4.5 9-9.7 9-15.3 0-9-8.5-17-22.4-22.8 7.2-4.4 11.4-9.8 11.4-15.7 0-9.3-10.2-17.3-26.3-22.3 9.5-4.2 15.4-9.9 15.4-16.3 0-10.3-15.1-18.8-36.6-22 15.4-4.6 28.3-14.8 36.2-28.1q0.1-0.2 0.2-0.4c5.3-9.1 8.4-19.5 8.4-30.7 0-11.1-3.1-21.6-8.4-30.6q-0.1-0.2-0.2-0.4c-10.9-18.4-31.3-30.8-54.6-30.8-23.3 0-43.7 12.4-54.6 30.8q-0.2 0.2-0.3 0.4c-5.3 9-8.3 19.5-8.3 30.6 0 11.2 3 21.6 8.3 30.7q0.1 0.2 0.3 0.4c7.9 13.3 20.8 23.5 36.1 28.1-21.5 3.2-36.5 11.7-36.5 22 0 6.4 5.8 12.1 15.4 16.3-16.1 5-26.4 13-26.4 22.3 0 5.9 4.2 11.3 11.5 15.7-13.9 5.8-22.4 13.8-22.4 22.8 0 5.6 3.2 10.8 8.9 15.3-12.4 6.2-19.9 14.3-19.9 23.3 0 5.3 2.6 10.2 7.2 14.7-11.4 6.7-18.1 14.9-18.1 23.9 0 22.9 43.4 40.8 98.8 40.8 55.4 0 98.8-17.9 98.8-40.8 0-9-6.7-17.2-18.2-23.9zm-139.7-209.6h16.3c0.2 9.4 1.9 18.1 4.6 26h-13.6c-4.4-7.8-7-16.6-7.3-26zm7.3-29.9h13.6c-2.7 7.8-4.4 16.6-4.6 25.9h-16.3c0.3-9.3 2.9-18.2 7.3-25.9zm110.9 25.9h-16.4c-0.2-9.3-1.8-18.1-4.6-25.9h13.7c4.4 7.7 7 16.6 7.3 25.9zm-7.3 30h-13.7c2.8-7.9 4.4-16.6 4.6-26h16.4c-0.3 9.4-2.9 18.2-7.3 26zm-66.9 4h13.1v25.6c-5.6-2-10.2-12.3-13.1-25.6zm13.1-89.5v25.6h-13.1c2.9-13.3 7.5-23.6 13.1-25.6zm17.1 25.6h-13.1v-25.6c5.6 2 10.2 12.3 13.1 25.6zm-13.1 29.9v-25.9h13.9c1.5 8.2 2.3 17.2 2.5 25.9zm16.3 4c-0.1 8.8-1 17.8-2.4 26h-13.9v-26zm-20.4-29.9v25.9h-16.4c0.1-8.7 1-17.7 2.5-25.9zm0 29.9v26h-13.9c-1.5-8.2-2.4-17.2-2.5-26zm17.1 30c-2.9 13.3-7.5 23.6-13.1 25.6v-25.6zm4.1 0h13.1c-5.2 11.7-13.2 20.4-22.5 24.1 4.1-5.4 7.3-14 9.4-24.1zm0.8-4c1.5-8.2 2.3-17.1 2.4-26h16.4c-0.2 9.4-2 18.2-4.8 26zm18.7-30h-16.4c-0.1-8.8-0.9-17.8-2.3-25.9h13.9c2.9 7.7 4.6 16.6 4.8 25.9zm-19.5-29.9c-2.2-10.1-5.4-18.7-9.5-24.1 9.4 3.7 17.4 12.4 22.6 24.1zm-38.4 0h-13.1c5.2-11.7 13.2-20.4 22.5-24.1-4.1 5.4-7.3 14-9.4 24.1zm-0.8 4c-1.5 8.1-2.3 17.1-2.4 25.9h-16.4c0.2-9.3 2-18.2 4.8-25.9zm-18.7 29.9h16.4c0.1 8.9 0.9 17.8 2.3 26h-13.9c-2.9-7.8-4.6-16.6-4.8-26zm19.5 30c2.2 10.1 5.4 18.7 9.5 24.1-9.4-3.7-17.4-12.4-22.6-24.1zm39.7 22.3c6.7-5.2 12.2-13 16.1-22.3h12.7c-6.9 10.1-16.9 18-28.8 22.3zm28.8-86.2h-12.7c-3.9-9.3-9.4-17.1-16.1-22.3 11.9 4.2 21.9 12.2 28.8 22.3zm-69.8-22.3c-6.6 5.2-12.2 13-16.1 22.3h-12.7c6.9-10.1 17-18.1 28.8-22.3zm-28.8 86.2h12.7c3.9 9.3 9.5 17.1 16.1 22.3-11.8-4.3-21.9-12.2-28.8-22.3zm-1.7 49.2c0-9.3 20.5-19.3 51-19.3 30.5 0 51 10 51 19.3 0 5.3-6.6 10.8-17.9 14.5-9.7-2.3-20.9-3.6-33.1-3.6-12.1 0-23.4 1.3-33.1 3.6-11.3-3.7-17.9-9.2-17.9-14.5zm75.4 16.9c-7.1 1.5-15.3 2.4-24.4 2.4-9.1 0-17.3-0.9-24.3-2.4 7.5-1.3 15.7-2 24.3-2 8.6 0 16.8 0.7 24.4 2zm-86.3 21.7c0-8.3 11.6-15.6 28.8-19.9 9.2 2.9 20.6 4.6 33.1 4.6 12.5 0 24-1.7 33.1-4.6 17.2 4.3 28.9 11.6 28.9 19.9 0 5.1-4.6 9.9-12.3 13.9-13.3-4.7-30.6-7.4-49.7-7.4-19.1 0-36.4 2.7-49.7 7.4-7.6-3.9-12.2-8.8-12.2-13.9zm106 16.4c-11.3 4.4-27 7.2-44.1 7.2-17.1 0-32.8-2.8-44.1-7.2 12.3-3.7 27.7-5.9 44.1-5.9 16.4 0 31.8 2.2 44.1 5.9zm-117 22.1c0-7.8 9-15.1 23.1-20.2 12 5.7 29.7 9.3 49.8 9.3 20.1 0 37.8-3.6 49.8-9.3 14.1 5.1 23.1 12.4 23.1 20.2 0 4.8-3.3 9.4-9 13.3-15.9-6.9-38.5-11.2-63.9-11.2-25.4 0-47.9 4.3-63.8 11.2-5.8-3.9-9.1-8.5-9.1-13.3zm132.4 16c-13.3 7.3-35.2 12.1-59.5 12.1-24.2 0-46.1-4.8-59.5-12.1 15.3-6 36.5-9.9 59.5-9.9 23 0 44.2 3.9 59.5 9.9zm-143.3 22.6c0-7.8 7.5-15 19.7-20.6 13.7 8.5 37 14.1 64.1 14.1 27.1 0 50.5-5.6 64.1-14.1 12.3 5.6 19.8 12.8 19.8 20.6 0 4.5-2.5 8.8-7 12.7-17.9-9.2-45.5-15-76.9-15-31.4 0-58.9 5.8-76.9 15-4.4-3.9-6.9-8.2-6.9-12.7zm157.1 15.5c-14.5 10-42.2 17-73.3 17-31 0-58.8-7-73.3-17 17.6-8.3 44.2-13.8 73.3-13.8 29.2 0 55.7 5.5 73.3 13.8zm-73.3 59.9c-51.4 0-94.8-16.8-94.8-36.8 0-7.8 6.6-15 17.5-21 14.7 11.3 43.5 18.9 77.3 18.9 33.8 0 62.6-7.6 77.3-18.9 11 6 17.5 13.2 17.5 21 0 20-43.4 36.8-94.8 36.8z"/><path class="a" d="m-588.2 209.2c-32.3 0-75.7-23.3-113.4-61-7.6-7.6-14.7-15.5-21.2-23.7-6.5 8.2-13.6 16.1-21.2 23.7-37.6 37.7-81.1 61-113.3 61-13.3 0-24.4-4.1-32.2-11.8-13.9-13.9-15.6-37.4-4.9-66.1 9.8-26.1 29-54.3 54.1-79.4 7.6-7.6 15.5-14.7 23.7-21.2-8.2-6.5-16.1-13.6-23.7-21.2-25.1-25.1-44.3-53.3-54.1-79.5-10.7-28.7-9-52.1 4.9-66 7.8-7.8 18.9-11.9 32.2-11.9 32.2 0 75.7 23.4 113.3 61 7.6 7.7 14.7 15.6 21.2 23.7 6.5-8.1 13.6-16 21.2-23.7 37.7-37.6 81.1-61 113.4-61 13.2 0 24.4 4.1 32.1 11.9 13.9 13.9 15.7 37.3 4.9 66-9.7 26.2-28.9 54.4-54 79.5-7.7 7.6-15.6 14.7-23.7 21.2 8.1 6.5 16 13.6 23.7 21.2 25.1 25.1 44.3 53.3 54 79.4 10.8 28.7 9 52.2-4.9 66.1-7.7 7.7-18.9 11.8-32.1 11.8z"/><path fill-rule="evenodd" class="b" d="m-588.2 210c-32.5 0-76.1-23.5-113.9-61.3-7.4-7.3-14.3-15.1-20.7-23-6.3 7.9-13.3 15.7-20.7 23-37.7 37.8-81.4 61.3-113.8 61.3-13.5 0-24.8-4.2-32.7-12.1-14.1-14.1-15.9-37.9-5.1-66.9 9.8-26.2 29.1-54.5 54.3-79.6 7.3-7.4 15.1-14.4 23-20.7-7.9-6.4-15.7-13.3-23-20.7-25.2-25.2-44.5-53.5-54.3-79.7-10.8-29-9-52.7 5.1-66.9 7.9-7.9 19.2-12 32.7-12 32.4 0 76.1 23.4 113.8 61.2 7.4 7.4 14.4 15.1 20.7 23 6.4-7.9 13.3-15.6 20.7-23 37.8-37.8 81.4-61.2 113.9-61.2 13.4 0 24.7 4.1 32.6 12 14.2 14.2 16 37.9 5.1 66.9-9.8 26.2-29 54.5-54.2 79.7-7.4 7.4-15.1 14.3-23 20.7 7.9 6.3 15.6 13.3 23 20.7 25.2 25.1 44.4 53.4 54.2 79.6 10.9 29 9.1 52.8-5.1 66.9-7.9 7.9-19.2 12.1-32.6 12.1zm0-1.5c13 0 24-4 31.6-11.7 13.7-13.6 15.4-36.8 4.7-65.2-9.7-26-28.9-54.2-53.9-79.2-7.5-7.6-15.5-14.7-23.6-21.1q-0.3-0.3-0.3-0.6 0-0.5 0.3-0.6c8.1-6.5 16.1-13.6 23.6-21.2 25-25 44.2-53.1 53.9-79.1 10.7-28.4 9-51.6-4.7-65.3-7.6-7.6-18.6-11.6-31.6-11.6-32.1 0-75.3 23.3-112.8 60.8-7.6 7.5-14.7 15.5-21.2 23.6-0.3 0.4-0.9 0.4-1.2 0-6.4-8.1-13.6-16.1-21.1-23.6-37.5-37.5-80.8-60.8-112.8-60.8-13.1 0-24 4-31.7 11.6-13.6 13.7-15.3 36.9-4.7 65.3 9.7 26 28.9 54.1 53.9 79.1 7.6 7.6 15.5 14.7 23.6 21.2q0.3 0.1 0.3 0.6 0 0.3-0.3 0.6c-8.1 6.4-16 13.5-23.6 21.1-25 25-44.2 53.2-53.9 79.2-10.6 28.4-8.9 51.6 4.7 65.2 7.7 7.7 18.6 11.7 31.7 11.7 32 0 75.3-23.3 112.8-60.8 7.5-7.6 14.7-15.5 21.1-23.6 0.3-0.4 0.9-0.4 1.2 0 6.5 8.1 13.6 16 21.2 23.6 37.5 37.5 80.7 60.8 112.8 60.8z"/><path class="i" d="m-722.8 108c8 11.1 17.5 22.4 28.3 33.1 49.8 49.9 108.7 71.9 131.3 49.2 22.7-22.7 0.7-81.5-49.1-131.3-10.8-10.8-22-20.3-33.2-28.3 11.2-8 22.4-17.5 33.2-28.3 49.8-49.9 71.8-108.7 49.1-131.4-22.6-22.6-81.5-0.6-131.3 49.2-10.8 10.8-20.3 22-28.3 33.2-8-11.2-17.5-22.4-28.3-33.2-49.8-49.8-108.6-71.8-131.3-49.2-22.7 22.7-0.7 81.5 49.2 131.4 10.7 10.8 22 20.3 33.1 28.3-11.1 8-22.4 17.5-33.1 28.3-49.9 49.8-71.9 108.6-49.2 131.3 22.7 22.7 81.5 0.7 131.3-49.2 10.8-10.7 20.3-22 28.3-33.1z"/><path class="a" d="m-670.4 30.7c0 28.9-23.5 52.3-52.4 52.3-28.9 0-52.3-23.4-52.3-52.3 0-28.9 23.4-52.4 52.3-52.4 28.9 0 52.4 23.5 52.4 52.4z"/><path fill-rule="evenodd" class="j" d="m-686.4 32.8q-0.7 0.3-1.5 0.5c-0.6 18.6-16 33.6-34.9 33.6-18.8 0-34.2-15-34.9-33.6q-0.7-0.2-1.4-0.5c-0.7-0.4-1-1.2-0.7-1.9 0.4-0.7 1.2-1 1.9-0.6 1 0.5 2.2 0.5 3.2 0 0.7-0.4 1.5-0.1 1.8 0.6 0.4 0.7 0.1 1.5-0.6 1.9q-0.7 0.3-1.4 0.5c0.6 17.1 14.8 30.9 32.1 30.9 17.3 0 31.5-13.8 32.1-30.9q-0.7-0.2-1.4-0.5c-0.6-0.4-0.9-1.2-0.6-1.9 0.4-0.7 1.2-1 1.9-0.6 1 0.5 2.2 0.5 3.1 0 0.7-0.4 1.5-0.1 1.9 0.6 0.3 0.7 0.1 1.5-0.6 1.9zm-53.1-11.2c0-6.7 2.4-12.1 5.4-12.1 3 0 5.4 5.4 5.4 12.1 0 6.6-2.4 12-5.4 12-3 0-5.4-5.4-5.4-12zm22.6 0c0-6.7 2.5-12.1 5.4-12.1 3 0 5.4 5.4 5.4 12.1 0 6.6-2.4 12-5.4 12-2.9 0-5.4-5.4-5.4-12z"/><path class="a" d="m-524.7-201.5c29.3 0 63.1-16.3 90.4-43.6 44.7-44.7 57.1-102.4 28.1-131.3-10.1-10.1-24.2-15.5-40.9-15.5-19.4 0-41 7.2-61.6 20.3q-2-2.6-4.2-4.8c-10.1-10.1-24.3-15.5-41-15.5-19.4 0-41 7.2-61.5 20.3q-2-2.6-4.3-4.8c-10.1-10.1-24.2-15.5-40.9-15.5-19.4 0-41 7.2-61.6 20.3q-1.9-2.6-4.2-4.8c-10.1-10.1-24.3-15.5-41-15.5-29.3 0-63.1 16.3-90.4 43.6-20.8 20.8-35.4 45.5-41 69.6-6 25.5-1.4 47.4 12.9 61.7 10.1 10.1 24.3 15.5 41 15.5 19.4 0 41-7.2 61.5-20.3q2 2.6 4.3 4.8c10.1 10.1 24.2 15.5 40.9 15.5 19.4 0 41-7.2 61.6-20.3q2 2.5 4.2 4.8c10.1 10.1 24.3 15.5 41 15.5 19.4 0 41-7.2 61.5-20.3q2 2.6 4.3 4.8c10.1 10.1 24.2 15.5 40.9 15.5z"/><path fill-rule="evenodd" class="b" d="m-524.7-200.8c-16.9 0-31.2-5.4-41.5-15.7q-2-2-3.8-4.3c-20.5 12.9-42.3 20-61.4 20-16.9 0-31.3-5.4-41.5-15.7q-2.1-2-3.9-4.3c-20.4 12.9-42.2 20-61.4 20-16.9 0-31.2-5.4-41.4-15.7q-2.1-2-3.9-4.3c-20.5 12.9-42.2 20-61.4 20-16.9 0-31.2-5.4-41.5-15.7-14.5-14.5-19.2-36.6-13.1-62.3 5.6-24.3 20.3-49.1 41.2-70.1 27.4-27.4 61.4-43.7 90.9-43.7 16.9 0 31.3 5.4 41.5 15.6q2.1 2.1 3.9 4.4c20.4-12.9 42.2-20 61.4-20 16.9 0 31.2 5.4 41.5 15.6q2 2.1 3.8 4.4c20.5-12.9 42.3-20 61.4-20 16.9 0 31.3 5.4 41.5 15.6q2.1 2.1 3.9 4.4c20.4-12.9 42.2-20 61.4-20 16.9 0 31.2 5.4 41.5 15.6 14.1 14.2 19 35.7 13.7 60.5-5.3 24.7-20.1 50.2-41.9 71.9-27.4 27.5-61.4 43.8-90.9 43.8zm-45.2-21.8q0.4 0 0.6 0.3 2 2.6 4.2 4.8c10 10 23.9 15.2 40.4 15.2 29.2 0 62.7-16.2 89.9-43.3 21.5-21.5 36.2-46.8 41.5-71.2 5.2-24.3 0.4-45.3-13.4-59.1-10-10-24-15.2-40.4-15.2-19.1 0-40.8 7.1-61.2 20.1-0.3 0.2-0.7 0.2-1-0.1q-1.9-2.6-4.2-4.8c-9.9-10-23.9-15.2-40.4-15.2-19 0-40.8 7.1-61.1 20.1-0.4 0.2-0.8 0.2-1-0.1q-2-2.6-4.2-4.8c-10-10-23.9-15.2-40.4-15.2-19.1 0-40.8 7.1-61.2 20.1-0.3 0.2-0.7 0.2-1-0.1q-1.9-2.6-4.1-4.8c-10-10-24-15.2-40.5-15.2-29.1 0-62.7 16.2-89.8 43.3-20.8 20.7-35.3 45.3-40.9 69.3-5.9 25.2-1.4 46.9 12.8 61 9.9 10 23.9 15.2 40.4 15.2 19.1 0 40.8-7.1 61.1-20.2 0.4-0.2 0.8-0.1 1 0.2q2 2.6 4.2 4.8c10 10 23.9 15.2 40.4 15.2 19.1 0 40.8-7.1 61.2-20.2 0.3-0.2 0.8-0.1 1 0.2q1.9 2.6 4.2 4.8c9.9 10 23.9 15.2 40.4 15.2 19 0 40.8-7.1 61.1-20.2q0.2-0.1 0.4-0.1z"/><path class="k" d="m-852.1-342.7c40.9-40.9 94.6-53.5 120-28.1 3.1 3.1 5.6 6.6 7.6 10.4 36.8-26.3 77.9-31.6 99.2-10.4 3.1 3.1 5.6 6.6 7.5 10.4 36.9-26.3 78-31.6 99.2-10.4 3.1 3.1 5.6 6.6 7.6 10.4 36.8-26.3 77.9-31.6 99.2-10.4 25.4 25.4 12.8 79.2-28.1 120.1-40.9 40.9-94.7 53.4-120.1 28.1-3.1-3.1-5.6-6.6-7.5-10.4-36.9 26.2-78 31.6-99.2 10.4-3.1-3.1-5.6-6.6-7.6-10.4-36.8 26.2-77.9 31.6-99.2 10.4-3-3.1-5.5-6.6-7.5-10.4-36.8 26.2-78 31.6-99.2 10.4-25.4-25.4-12.8-79.2 28.1-120.1z"/><path class="a" d="m-435.6-303.7l-12.5 2.2c3.1-6.3 3.2-13.7 0.5-20.1l-8.1 9.7c-1.8-6.8-6.4-12.5-12.6-15.6v12.6c-5.7-4.1-13-5.5-19.7-3.9l8.1 9.7c-7 0.5-13.4 4.1-17.6 9.6l12.5 2.2c-5.1 4.9-7.7 11.8-7.3 18.7l10.9-6.3c-0.7 7 1.8 14 6.5 19l4.3-11.9c4 5.9 10.3 9.6 17.2 10.5l-4.4-11.9c6.8 1.9 14.1 0.7 19.9-3.1l-11-6.3c6.5-2.9 11.3-8.5 13.3-15.1z"/><path class="a" d="m178.7 317.1c-42.6-7.4-99-11.5-158.8-11.5-59.9 0-116.3 4.1-158.9 11.5-51.6 9-74.6 20.9-74.6 38.6v52.1c0 17.7 23 29.6 74.6 38.6 42.6 7.4 99 11.5 158.9 11.5 59.8 0 116.2-4.1 158.8-11.5 51.6-9 74.7-20.9 74.7-38.6v-52.1c0-17.7-23.1-29.6-74.7-38.6z"/><path fill-rule="evenodd" class="b" d="m19.9 458.6c-60 0-116.4-4-159-11.4-52.1-9.1-75.3-21.3-75.3-39.4v-52.1c0-18.2 23.2-30.3 75.3-39.4 42.6-7.4 99-11.5 159-11.5 59.9 0 116.3 4.1 158.9 11.5 52.1 9.1 75.3 21.2 75.3 39.4v52.1c0 18.1-23.2 30.3-75.3 39.4-42.6 7.4-99 11.4-158.9 11.4zm0-152.3c-59.9 0-116.2 4.1-158.7 11.5-51.2 8.9-74.1 20.6-74.1 37.9v52.1c0 17.3 22.9 29 74.1 37.9 42.5 7.4 98.8 11.4 158.7 11.4 59.8 0 116.2-4 158.6-11.4 51.3-8.9 74.1-20.6 74.1-37.9v-52.1c0-17.3-22.8-29-74.1-37.9-42.4-7.4-98.8-11.5-158.6-11.5z"/><path class="l" d="m241.3 417.8c0-22.1-100.5-40.1-224.4-40.1-124 0-224.5 18-224.5 40.1v-54.1c0-22.2 100.5-40.2 224.5-40.2 123.9 0 224.4 18 224.4 40.2z"/><path class="m" d="m-207.6 363.7c0 22.1 100.5 40.1 224.5 40.1 123.9 0 224.4-18 224.4-40.1v54.1c0 22.2-100.5 40.1-224.4 40.1-124 0-224.5-17.9-224.5-40.1z"/><path class="a" d="m-341.1 279.3c-17.1 0-32.8 6-45.2 16h-398.5c-12.4-10-28.1-16-45.2-16-39.9 0-72.4 32.5-72.4 72.4 0 22.5 9.1 48.4 24.9 70.9 15.5 22.1 33.3 35.3 47.5 35.3 8.5 0 18.2-4.7 28-13.2h432.3c0.2 0 0.4-0.1 0.6-0.1 9.8 8.5 19.5 13.3 28 13.3 14.3 0 32-13.2 47.5-35.3 15.8-22.5 24.9-48.4 24.9-70.9 0-39.9-32.5-72.4-72.4-72.4z"/><path fill-rule="evenodd" class="b" d="m-340.1 458.6c-8.5 0-18.2-4.5-28.3-13.2q-0.1 0-0.3 0h-432c-10.1 8.7-19.8 13.2-28.3 13.2-14.5 0-32.4-13.3-48.1-35.5-15.9-22.7-25-48.7-25-71.4 0-40.3 32.8-73.1 73.1-73.1 16.5 0 32.6 5.7 45.5 16h397.9c12.9-10.3 29.1-16 45.5-16 40.3 0 73.1 32.8 73.1 73.1 0 22.7-9.1 48.7-25 71.4-15.6 22.2-33.6 35.5-48.1 35.5zm-28-14.7q0.3 0 0.5 0.2c9.8 8.5 19.3 13 27.5 13 14 0 31.5-13 46.9-34.9 15.7-22.4 24.7-48.1 24.7-70.5 0-39.5-32.1-71.6-71.6-71.6-16.2 0-32.1 5.6-44.7 15.8q-0.3 0.2-0.5 0.2h-398.5q-0.2 0-0.4-0.2c-12.7-10.2-28.6-15.8-44.8-15.8-39.5 0-71.6 32.1-71.6 71.6 0 22.4 9 48.1 24.7 70.5 15.4 21.9 32.9 34.9 46.9 34.9 8.2 0 17.7-4.5 27.5-13q0.2-0.2 0.5-0.2c0.1 0 432.4 0 432.5 0q0.2 0 0.3 0 0.1 0 0.1 0z"/><path class="n" d="m-829 289.3c34.4 0 62.3 28 62.3 62.4 0 45.6-40.7 96.2-62.3 96.2-21.6 0-62.4-50.6-62.4-96.2 0-34.4 28-62.4 62.4-62.4z"/><path class="a" d="m-785.4 355.4c-5.5-4.5-15.5-1.2-22.5 7.2-9.2 11.3-12.9 29-9.5 31.8 3.4 2.8 20.1-4.4 29.2-15.6 7-8.4 8.2-18.9 2.8-23.4z"/><path class="a" d="m-872.6 355.4c5.5-4.5 15.5-1.2 22.4 7.2 9.2 11.3 13 29 9.6 31.8-3.4 2.8-20.1-4.4-29.3-15.6-6.9-8.4-8.1-18.9-2.7-23.4z"/><path class="o" d="m-340.1 289.3c34.5 0 62.4 28 62.4 62.4 0 45.6-40.8 96.2-62.4 96.2-21.6 0-62.3-50.6-62.3-96.2 0-34.4 27.9-62.4 62.3-62.4z"/><path class="a" d="m-296.5 355.4c-5.4-4.5-15.5-1.2-22.4 7.2-9.2 11.3-13 29-9.6 31.8 3.5 2.8 20.1-4.4 29.3-15.6 6.9-8.4 8.2-18.9 2.7-23.4z"/><path class="a" d="m-383.6 355.4c5.4-4.5 15.5-1.2 22.4 7.2 9.2 11.3 12.9 29 9.5 31.8-3.4 2.8-20-4.4-29.2-15.6-7-8.4-8.2-18.9-2.7-23.4z"/><path fill-rule="evenodd" class="p" d="m51.8-47.2l-6.8-13.8h-8v13.8h-15.1v-51h23.8c13.7 0 21.5 6.6 21.5 18.1 0 7.6-3 13.1-8.6 16.2l10.4 16.7zm-14.8-25.4h8.6c4.6 0 7.2-2.5 7.2-7 0-4.5-2.6-6.9-7.2-6.9h-8.6z"/><path fill-rule="evenodd" class="q" d="m108.9-55.4h-20.5l-3.1 8.2h-15.6l21.8-51h15.5l21 51h-16.1zm-4-11.1l-6.1-16.6-6.2 16.6z"/><path class="r" d="m139.2-98.2l11.7 35.3 11.6-35.3h15.5l-19.7 51h-15.7l-19.5-51z"/><path class="s" d="m223.6-98.2v11.7h-26.5v8h24.1v11.6h-24.1v8.1h27.3v11.6h-42.4v-51z"/><text style="transform:matrix(2,0,0,2,54.083,-132.661)" ><tspan x="0" y="0" class="t">2023
</tspan></text><text style="transform:matrix(2,0,0,2,48.566,-338.456)" ><tspan x="0" y="0" class="u">RAVE ON 
</tspan></text><text style="transform:matrix(2,0,0,2,48.566,-338.456)" ><tspan x="0" y="0" class="u">•
</tspan></text><text style="transform:matrix(2,0,0,2,48.566,-338.456)" ><tspan x="0" y="0" class="u"> 
</tspan></text><text style="transform:matrix(2,0,0,2,48.566,-318.856)" ><tspan x="0" y="0" class="u">RAVE ON 
</tspan></text><text style="transform:matrix(2,0,0,2,48.566,-318.856)" ><tspan x="0" y="0" class="u">•
</tspan></text><text style="transform:matrix(2,0,0,2,48.566,-318.856)" ><tspan x="0" y="0" class="u"> 
</tspan></text><text style="transform:matrix(2,0,0,2,48.566,-299.256)" ><tspan x="0" y="0" class="u">RAVE ON 
</tspan></text><text style="transform:matrix(2,0,0,2,48.566,-299.256)" ><tspan x="0" y="0" class="u">•
</tspan></text><text style="transform:matrix(2,0,0,2,48.566,-299.256)" ><tspan x="0" y="0" class="u"> 
</tspan></text><text style="transform:matrix(2,0,0,2,62.766,-279.656)" ><tspan x="0" y="0" class="u">RAVEON 
</tspan></text><text style="transform:matrix(1.414,1.414,-1.414,1.414,-691.283,82.707)" ><tspan x="0" y="0" class="v">RAVE
</tspan></text><text style="transform:matrix(1.414,1.414,-1.414,1.414,-873.81,-99.9)" ><tspan x="0" y="0" class="v">RAVE
</tspan></text><text style="transform:matrix(1.414,-1.414,1.414,1.414,-670.84,-2.045)" ><tspan x="0" y="0" class="v">RAVE
</tspan></text><text style="transform:matrix(1.414,-1.414,1.414,1.414,-853.444,180.483)" ><tspan x="0" y="0" class="v">RAVE
</tspan></text><text style="transform:matrix(2,0,0,2,-843.584,-264.37)" ><tspan x="0" y="0" class="w">HELLO
</tspan></text><text style="transform:matrix(2,0,0,2,-149.22,381.471)" ><tspan x="0" y="0" class="x">• RAVE PARTY •
</tspan></text><text style="transform:matrix(-2,0,0,-2,230.734,409.605)" ><tspan x="0" y="0" class="x">• GOOD MORNING •
</tspan></text><path class="y" d="m-725.1 327.1l15.3 20.3v-20.3h9.9v36.3h-9.2l-15.3-20.2v20.2h-9.9v-36.3z"/><path fill-rule="evenodd" class="z" d="m-656.4 345.2c0 10.7-8.4 18.6-19.8 18.6-11.4 0-19.7-7.9-19.7-18.6 0-10.6 8.3-18.4 19.7-18.4 11.4 0 19.8 7.8 19.8 18.4zm-28.5 0.1c0 5.4 4.1 9.5 8.9 9.5 4.7 0 8.5-4.1 8.5-9.5 0-5.5-3.8-9.5-8.5-9.5-4.8 0-8.9 4-8.9 9.5z"/><path class="A" d="m-630.4 327.1v14.5h12.9v-14.5h10.7v36.3h-10.7v-13.5h-12.9v13.5h-10.7v-36.3z"/><path class="B" d="m-584 354.8c3.5 0 6.1-2.5 6.1-6.7v-21h10.7v21c0 9.6-6.5 15.7-16.9 15.7-10.4 0-17.1-6.1-17.1-15.7v-21h10.7v21c0 4.1 2.9 6.7 6.5 6.7z"/><path class="C" d="m-550.1 327.1l8.7 20.1 8.7-20.1h11.5v36.3h-9.4v-21.5l-7.3 17.9h-7l-7.3-17.9v21.5h-9.5v-36.3z"/><path fill-rule="evenodd" class="D" d="m-490.7 357.6h-14.6l-2.2 5.8h-11l15.4-36.3h11.1l14.9 36.3h-11.5zm-2.8-7.9l-4.3-11.8-4.5 11.8z"/><path class="E" d="m-465.3 327.1l15.4 20.3v-20.3h9.8v36.3h-9.1l-15.4-20.2v20.2h-9.9v-36.3z"/><path fill-rule="evenodd" class="F" d="m-696 408.7h-14.6l-2.2 5.8h-11l15.4-36.2h11.1l14.9 36.2h-11.5zm-2.8-7.9l-4.4-11.8-4.4 11.8z"/><path class="G" d="m-669 378.3v27.2h15.2v9h-26v-36.2z"/><path class="H" d="m-639.4 378.3v27.2h15.2v9h-25.9v-36.2z"/><path fill-rule="evenodd" class="I" d="m-583.1 396.4c0 10.6-8.3 18.6-19.7 18.6-11.4 0-19.7-7.9-19.7-18.6 0-10.7 8.3-18.4 19.7-18.4 11.4 0 19.7 7.8 19.7 18.4zm-28.4 0c0 5.5 4.1 9.6 8.9 9.6 4.7 0 8.5-4.1 8.5-9.6 0-5.5-3.8-9.4-8.5-9.4-4.9 0-8.9 3.9-8.9 9.4z"/><path class="J" d="m-571.3 378.3l6.2 25 6.1-25h10.4l6.2 25 6.1-25h11l-11.9 36.2h-11.1l-5.7-23.1-5.9 23.1h-11.1l-11.8-36.2z"/><path class="K" d="m-493 378.3v8.2h-18.8v5.7h17.1v8.3h-17.1v5.7h19.3v8.3h-30.1v-36.2z"/><path fill-rule="evenodd" class="L" d="m-452 396.4c0 10.9-7.9 18.1-19.8 18.1h-15.5v-36.2h15.9c11.7 0 19.4 7.2 19.4 18.1zm-10.9 0.1c0-5.9-3.6-9.7-8.7-9.7h-4.9v19.3h5.4c4.9 0 8.2-3.8 8.2-9.6z"/></svg>