<?xml version="1.0" encoding="UTF-8" standalone="no"?>
<!-- Generator: Adobe Illustrator 27.5.0, SVG Export Plug-In . SVG Version: 6.00 Build 0)  -->

<svg
   version="1.1"
   x="0px"
   y="0px"
   viewBox="0 0 131.569 131.57001"
   xml:space="preserve"
   id="svg119"
   sodipodi:docname="y2k.svg"
   width="131.569"
   height="131.57001"
   xmlns:inkscape="http://www.inkscape.org/namespaces/inkscape"
   xmlns:sodipodi="http://sodipodi.sourceforge.net/DTD/sodipodi-0.dtd"
   xmlns="http://www.w3.org/2000/svg"
   xmlns:svg="http://www.w3.org/2000/svg"><defs
   id="defs119" /><sodipodi:namedview
   id="namedview119"
   pagecolor="#ffffff"
   bordercolor="#000000"
   borderopacity="0.25"
   inkscape:showpageshadow="2"
   inkscape:pageopacity="0.0"
   inkscape:pagecheckerboard="0"
   inkscape:deskcolor="#d1d1d1"><inkscape:page
     x="0"
     y="0"
     width="131.569"
     height="131.57001"
     id="page2"
     margin="0"
     bleed="0" /></sodipodi:namedview>

<g
   id="OBJECTS"
   transform="translate(-394.423,-329.007)">
	<g
   id="g85">
		
		
		
		
		
		
		
		<g
   id="g55"
   inkscape:export-filename="/Users/tal.hayut/Downloads/g55.svg"
   inkscape:export-xdpi="96"
   inkscape:export-ydpi="96">
			<g
   id="g45">
				<path
   style="fill:#171717"
   d="m 460.208,460.202 c -36.067,0 -65.41,-29.343 -65.41,-65.41 0,-36.067 29.343,-65.41 65.41,-65.41 36.066,0 65.409,29.343 65.409,65.41 0,36.067 -29.343,65.41 -65.409,65.41 z"
   id="path44" />
				<path
   style="fill:#ffffff"
   d="m 460.208,460.577 c -36.274,0 -65.785,-29.511 -65.785,-65.785 0,-36.274 29.511,-65.785 65.785,-65.785 36.273,0 65.784,29.511 65.784,65.785 0,36.274 -29.511,65.785 -65.784,65.785 z m 0,-130.82 c -35.86,0 -65.035,29.175 -65.035,65.035 0,35.86 29.175,65.035 65.035,65.035 35.86,0 65.034,-29.175 65.034,-65.035 0,-35.86 -29.174,-65.035 -65.034,-65.035 z"
   id="path45" />
			</g>
			
				<linearGradient
   id="SVGID_00000008868175236019036220000002101531349398688190_"
   gradientUnits="userSpaceOnUse"
   x1="397.79779"
   y1="394.79199"
   x2="522.61713"
   y2="394.79199">
				<stop
   offset="0"
   style="stop-color:#56E7F2"
   id="stop45" />
				<stop
   offset="0.2918"
   style="stop-color:#C2A7DE"
   id="stop46" />
				<stop
   offset="0.6174"
   style="stop-color:#E8FBA9"
   id="stop47" />
				<stop
   offset="0.8366"
   style="stop-color:#32ABDF"
   id="stop48" />
				<stop
   offset="1"
   style="stop-color:#FEFCEF"
   id="stop49" />
			</linearGradient>
			<circle
   style="fill:url(#SVGID_00000008868175236019036220000002101531349398688190_)"
   cx="460.207"
   cy="394.79199"
   r="62.41"
   id="circle49" />
			<path
   style="fill:#171717"
   d="m 507.302,421.644 c 4.536,-7.924 7.143,-17.086 7.143,-26.852 0,-9.766 -2.608,-18.929 -7.143,-26.853 -0.063,-0.185 -0.16,-0.352 -0.286,-0.496 -9.425,-16.069 -26.872,-26.89 -46.809,-26.89 -19.937,0 -37.384,10.82 -46.809,26.889 -0.126,0.145 -0.224,0.312 -0.287,0.498 -4.536,7.923 -7.143,17.086 -7.143,26.852 0,9.765 2.607,18.927 7.143,26.851 0.063,0.186 0.161,0.354 0.287,0.499 9.425,16.069 26.872,26.888 46.809,26.888 19.937,0 37.384,-10.82 46.809,-26.89 0.126,-0.144 0.223,-0.311 0.286,-0.496 z m -98.295,-25.352 h 23.35 c 0.113,8.456 1.173,16.37 2.989,23.369 h -19.915 c -3.881,-6.959 -6.178,-14.91 -6.424,-23.369 z m 6.424,-26.369 h 19.915 c -1.816,6.999 -2.876,14.913 -2.989,23.369 h -23.35 c 0.246,-8.459 2.543,-16.41 6.424,-23.369 z m 95.976,23.369 h -23.35 c -0.113,-8.457 -1.173,-16.37 -2.989,-23.369 h 19.916 c 3.88,6.959 6.178,14.91 6.423,23.369 z m -26.349,0 h -23.35 v -23.369 h 20.232 c 1.883,6.959 2.999,14.91 3.118,23.369 z m -23.35,-26.369 v -23.268 c 8.103,0.999 15.169,10.027 19.351,23.268 z m -3,-23.268 v 23.268 h -19.353 c 4.183,-13.24 11.249,-22.269 19.353,-23.268 z m 0,26.268 v 23.369 h -23.351 c 0.119,-8.459 1.234,-16.41 3.118,-23.369 z m -23.351,26.369 h 23.351 v 23.369 h -20.233 c -1.884,-6.959 -2.999,-14.91 -3.118,-23.369 z m 23.351,26.369 v 23.268 c -8.104,-0.999 -15.17,-10.027 -19.353,-23.268 z m 3,23.267 V 422.66 h 19.351 c -4.182,13.241 -11.248,22.269 -19.351,23.268 z m 0,-26.267 v -23.369 h 23.35 c -0.119,8.459 -1.234,16.41 -3.118,23.369 z m 26.349,-23.369 h 23.35 c -0.245,8.459 -2.543,16.41 -6.423,23.369 h -19.916 c 1.816,-6.999 2.876,-14.913 2.989,-23.369 z m 15.113,-29.369 h -18.939 c -2.996,-9.913 -7.564,-17.715 -13.092,-22.183 13.366,2.917 24.793,11.063 32.031,22.183 z M 449.276,344.74 c -5.527,4.468 -10.097,12.27 -13.092,22.183 h -18.939 c 7.238,-11.12 18.665,-19.266 32.031,-22.183 z m -32.031,77.921 h 18.939 c 2.995,9.913 7.564,17.715 13.092,22.183 -13.366,-2.917 -24.793,-11.064 -32.031,-22.183 z m 53.894,22.183 c 5.527,-4.468 10.097,-12.271 13.092,-22.183 h 18.939 c -7.238,11.119 -18.665,19.266 -32.031,22.183 z"
   id="path49" />
			<g
   id="g54">
				
					<circle
   transform="matrix(0.7071,-0.7071,0.7071,0.7071,-144.3685,441.0477)"
   style="fill:#171717"
   cx="460.207"
   cy="394.79199"
   id="ellipse49"
   r="37.186001" />
				
					<linearGradient
   id="SVGID_00000055689014572881607110000003501210287698443142_"
   gradientUnits="userSpaceOnUse"
   x1="412.16919"
   y1="442.81131"
   x2="515.00677"
   y2="348.8046">
					<stop
   offset="0"
   style="stop-color:#56E7F2"
   id="stop50" />
					<stop
   offset="0.2918"
   style="stop-color:#C2A7DE"
   id="stop51" />
					<stop
   offset="0.6174"
   style="stop-color:#E8FBA9"
   id="stop52" />
					<stop
   offset="0.8366"
   style="stop-color:#32ABDF"
   id="stop53" />
					<stop
   offset="1"
   style="stop-color:#FEFCEF"
   id="stop54" />
				</linearGradient>
				<path
   style="fill:url(#SVGID_00000055689014572881607110000003501210287698443142_)"
   d="m 490.297,395.389 c -0.387,0.193 -0.795,0.33 -1.212,0.421 -0.539,15.466 -13.28,27.884 -28.876,27.884 -15.596,0 -28.337,-12.418 -28.876,-27.884 -0.418,-0.09 -0.826,-0.228 -1.213,-0.421 -0.565,-0.282 -0.795,-0.968 -0.513,-1.533 0.282,-0.564 0.968,-0.794 1.534,-0.513 0.817,0.407 1.799,0.407 2.623,-0.001 0.57,-0.282 1.251,-0.048 1.532,0.517 0.28,0.565 0.048,1.251 -0.517,1.531 -0.372,0.184 -0.761,0.32 -1.16,0.41 0.533,14.211 12.253,25.608 26.591,25.608 14.338,0 26.058,-11.397 26.591,-25.607 -0.398,-0.09 -0.788,-0.227 -1.16,-0.411 -0.566,-0.281 -0.797,-0.966 -0.516,-1.532 0.279,-0.565 0.967,-0.796 1.531,-0.516 0.813,0.403 1.818,0.402 2.622,0.001 0.568,-0.281 1.251,-0.051 1.534,0.513 0.279,0.565 0.049,1.251 -0.515,1.533 z m -40.125,7.702 c 3.563,0 6.451,-6.467 6.451,-14.444 0,-7.978 -2.888,-14.444 -6.451,-14.444 -3.563,0 -6.451,6.466 -6.451,14.444 0,7.977 2.888,14.444 6.451,14.444 z m 20.071,0 c 3.563,0 6.451,-6.467 6.451,-14.444 0,-7.978 -2.888,-14.444 -6.451,-14.444 -3.563,0 -6.451,6.466 -6.451,14.444 -10e-4,7.977 2.888,14.444 6.451,14.444 z"
   id="path54" />
			</g>
		</g>
		
		
		
		
	</g>
</g>

</svg>
