<?xml version="1.0" encoding="utf-8"?>
<!-- Generator: Adobe Illustrator 27.5.0, SVG Export Plug-In . SVG Version: 6.00 Build 0)  -->
<svg version="1.1" xmlns="http://www.w3.org/2000/svg" xmlns:xlink="http://www.w3.org/1999/xlink" x="0px" y="0px"
	 viewBox="0 0 750 500" style="enable-background:new 0 0 750 500;" xml:space="preserve">
<g id="BACKGROUND">
	<rect style="fill:#171717;" width="749.775" height="500"/>
</g>
<g id="OBJECTS">
	<g>
		<g>
			<g>
				<path style="fill:#171717;" d="M184.096,151.227c-26.59,0-51.658-5.513-70.587-15.523
					c-19.838-10.49-30.763-24.764-30.763-40.192s10.925-29.702,30.763-40.192c18.93-10.01,43.998-15.523,70.587-15.523
					c26.589,0,51.657,5.513,70.587,15.523c19.838,10.49,30.763,24.764,30.763,40.192s-10.925,29.702-30.763,40.192
					C235.754,145.715,210.685,151.227,184.096,151.227z"/>
				<path style="fill:#FFFFFF;" d="M184.096,151.602c-26.65,0-51.781-5.528-70.762-15.566
					c-19.966-10.558-30.962-24.949-30.962-40.523s10.996-29.966,30.962-40.523c18.982-10.038,44.113-15.566,70.762-15.566
					s51.78,5.528,70.762,15.566c19.966,10.558,30.962,24.949,30.962,40.523s-10.996,29.966-30.962,40.523
					C235.876,146.074,210.746,151.602,184.096,151.602z M184.096,40.173c-26.529,0-51.535,5.497-70.412,15.479
					C93.975,66.074,83.121,80.23,83.121,95.513s10.854,29.439,30.563,39.86c18.876,9.982,43.881,15.479,70.412,15.479
					c26.53,0,51.536-5.497,70.412-15.479c19.709-10.421,30.563-24.578,30.563-39.86s-10.854-29.439-30.563-39.86
					C235.631,45.67,210.625,40.173,184.096,40.173z"/>
			</g>
			<linearGradient id="SVGID_1_" gradientUnits="userSpaceOnUse" x1="135.8193" y1="37.9743" x2="236.8761" y2="158.4198">
				<stop  offset="0" style="stop-color:#56E7F2"/>
				<stop  offset="0.2918" style="stop-color:#C2A7DE"/>
				<stop  offset="0.6174" style="stop-color:#E8FBA9"/>
				<stop  offset="0.8366" style="stop-color:#32ABDF"/>
				<stop  offset="1" style="stop-color:#FEFCEF"/>
			</linearGradient>
			<path style="fill:url(#SVGID_1_);" d="M253.28,57.973c-18.505-9.785-43.075-15.175-69.184-15.175
				c-26.109,0-50.68,5.39-69.185,15.175c-18.808,9.945-29.165,23.277-29.165,37.54s10.357,27.595,29.165,37.54
				c18.505,9.786,43.075,15.175,69.185,15.175c26.109,0,50.68-5.389,69.184-15.175c18.808-9.945,29.165-23.277,29.165-37.54
				S272.088,67.918,253.28,57.973z M279.398,94.013h-29.284c-0.287-8.127-2.885-15.795-7.296-22.607h24.64
				C274.651,78.14,278.93,85.831,279.398,94.013z M182.596,71.406v22.607h-29.26c0.151-8.182,1.528-15.873,3.851-22.607H182.596z
				 M158.311,68.406c5.243-12.962,14.122-21.754,24.285-22.546v22.546H158.311z M182.596,97.013v22.607h-25.409
				c-2.323-6.734-3.699-14.425-3.851-22.607H182.596z M182.596,122.62v22.546c-10.162-0.792-19.042-9.583-24.285-22.546H182.596z
				 M185.596,119.62V97.013h29.26c-0.151,8.182-1.528,15.873-3.85,22.607H185.596z M209.88,122.62
				c-5.243,12.963-14.122,21.754-24.285,22.546V122.62H209.88z M185.596,94.013V71.406h25.409c2.322,6.735,3.699,14.425,3.85,22.607
				H185.596z M185.596,68.406V45.86c10.162,0.792,19.042,9.583,24.285,22.546H185.596z M197.103,46.867
				c16.612,2.757,30.826,10.685,39.819,21.538h-23.865C209.362,58.828,203.772,51.226,197.103,46.867z M155.134,68.406H131.27
				c8.993-10.853,23.207-18.781,39.819-21.538C164.419,51.226,158.83,58.828,155.134,68.406z M154.067,71.406
				c-2.255,6.812-3.584,14.48-3.731,22.607h-29.259c0.31-8.182,3.13-15.873,7.888-22.607H154.067z M150.337,97.013
				c0.147,8.127,1.475,15.796,3.731,22.607h-25.102c-4.758-6.734-7.578-14.425-7.888-22.607H150.337z M155.134,122.62
				c3.695,9.577,9.285,17.18,15.954,21.539c-16.612-2.757-30.826-10.685-39.819-21.539H155.134z M213.057,122.62h23.864
				c-8.993,10.854-23.207,18.782-39.819,21.539C203.772,139.801,209.361,132.197,213.057,122.62z M214.124,119.62
				c2.255-6.812,3.584-14.48,3.731-22.607h29.259c-0.31,8.182-3.13,15.873-7.889,22.607H214.124z M217.854,94.013
				c-0.147-8.127-1.476-15.795-3.731-22.607h25.102c4.758,6.735,7.578,14.425,7.888,22.607H217.854z M263.985,68.406h-23.252
				c-6.566-8.701-16.189-15.771-27.676-20.26C234.165,51.662,252.098,58.914,263.985,68.406z M155.134,48.145
				c-11.487,4.49-21.11,11.56-27.676,20.26h-23.252C116.093,58.914,134.026,51.662,155.134,48.145z M100.732,71.406h24.64
				c-4.41,6.812-7.009,14.48-7.296,22.607H88.793C89.261,85.831,93.54,78.14,100.732,71.406z M88.793,97.013h29.284
				c0.287,8.127,2.885,15.796,7.296,22.607h-24.64C93.54,112.885,89.261,105.195,88.793,97.013z M104.207,122.62h23.252
				c6.566,8.701,16.189,15.77,27.676,20.26C134.026,139.364,116.093,132.111,104.207,122.62z M213.057,142.881
				c11.487-4.49,21.11-11.559,27.676-20.26h23.252C252.098,132.111,234.165,139.364,213.057,142.881z M267.459,119.62h-24.64
				c4.41-6.812,7.009-14.48,7.296-22.607h29.284C278.93,105.195,274.651,112.885,267.459,119.62z"/>
		</g>
		<g>
			<g>
				<circle style="fill:#171717;" cx="145.078" cy="248.946" r="62.332"/>
				<path style="fill:#FFFFFF;" d="M145.078,311.653c-34.577,0-62.707-28.13-62.707-62.707c0-34.577,28.13-62.707,62.707-62.707
					c34.577,0,62.707,28.13,62.707,62.707C207.785,283.523,179.655,311.653,145.078,311.653z M145.078,186.99
					c-34.163,0-61.957,27.794-61.957,61.957s27.794,61.957,61.957,61.957s61.957-27.794,61.957-61.957
					S179.241,186.99,145.078,186.99z"/>
			</g>
			
				<linearGradient id="SVGID_00000163765673568934835020000012199065046154974875_" gradientUnits="userSpaceOnUse" x1="87.4743" y1="288.4619" x2="209.5696" y2="204.7059">
				<stop  offset="0" style="stop-color:#56E7F2"/>
				<stop  offset="0.2918" style="stop-color:#C2A7DE"/>
				<stop  offset="0.6174" style="stop-color:#E8FBA9"/>
				<stop  offset="0.8366" style="stop-color:#32ABDF"/>
				<stop  offset="1" style="stop-color:#FEFCEF"/>
			</linearGradient>
			<circle style="fill:url(#SVGID_00000163765673568934835020000012199065046154974875_);" cx="145.078" cy="248.946" r="59.332"/>
			<path style="fill:#171717;" d="M200.706,228.273l-38.929,8.541l20.146-34.373c-1.291-1.024-2.625-1.994-3.999-2.91
				l-26.467,29.784l-3.905-39.646c-0.821-0.034-1.644-0.055-2.473-0.055c-0.829,0-1.652,0.021-2.473,0.055l-3.905,39.646
				l-26.467-29.784c-1.374,0.915-2.709,1.886-3.999,2.91l20.146,34.373l-38.929-8.541c-0.572,1.538-1.082,3.106-1.527,4.702
				l36.514,15.972l-36.514,15.972c0.445,1.595,0.955,3.164,1.527,4.702l38.929-8.541l-20.146,34.373
				c1.291,1.024,2.625,1.994,3.999,2.91l26.467-29.784l3.905,39.646c0.821,0.034,1.644,0.055,2.473,0.055
				c0.829,0,1.653-0.021,2.473-0.055l3.905-39.646l26.467,29.784c1.374-0.915,2.709-1.886,3.999-2.91l-20.146-34.373l38.929,8.541
				c0.572-1.538,1.082-3.106,1.527-4.702l-36.514-15.972l36.514-15.972C201.787,231.379,201.278,229.811,200.706,228.273z"/>
			<g>
				<path style="fill:#FFFFFF;" d="M145.078,258.754l-3.224-2.084c-0.166-0.107-1.666-1.085-3.219-2.364
					c-2.25-1.852-4.833-4.431-4.833-7.961c0-3.28,2.659-5.939,5.939-5.939c2.345,0,4.372,1.359,5.338,3.332
					c0.965-1.973,2.993-3.332,5.337-3.332c3.28,0,5.939,2.659,5.939,5.939c0,3.53-2.583,6.109-4.833,7.961
					c-1.553,1.279-3.053,2.256-3.219,2.363L145.078,258.754z"/>
			</g>
		</g>
		<g>
			<g>
				<circle style="fill:#171717;" cx="305.695" cy="253.393" r="66.824"/>
				<path style="fill:#FFFFFF;" d="M305.695,320.592c-37.054,0-67.199-30.146-67.199-67.199s30.146-67.199,67.199-67.199
					s67.199,30.145,67.199,67.199S342.749,320.592,305.695,320.592z M305.695,186.943c-36.64,0-66.449,29.809-66.449,66.449
					c0,36.641,29.809,66.449,66.449,66.449s66.449-29.809,66.449-66.449C372.145,216.752,342.335,186.943,305.695,186.943z"/>
			</g>
			
				<linearGradient id="SVGID_00000086662012117679041060000016910359352599482030_" gradientUnits="userSpaceOnUse" x1="346.6019" y1="309.6645" x2="263.7296" y2="195.6645">
				<stop  offset="0" style="stop-color:#56E7F2"/>
				<stop  offset="0.2918" style="stop-color:#C2A7DE"/>
				<stop  offset="0.6174" style="stop-color:#E8FBA9"/>
				<stop  offset="0.8366" style="stop-color:#32ABDF"/>
				<stop  offset="1" style="stop-color:#FEFCEF"/>
			</linearGradient>
			<circle style="fill:url(#SVGID_00000086662012117679041060000016910359352599482030_);" cx="305.695" cy="253.392" r="63.824"/>
			<path style="fill:#171717;" d="M334.551,226.859c-7.407-8.052-17.925-12.669-28.855-12.669c-10.932,0-21.449,4.618-28.857,12.669
				c-6.672,7.252-10.347,16.675-10.347,26.534c0,9.859,3.675,19.282,10.347,26.534c7.406,8.051,17.925,12.669,28.857,12.669
				c10.932,0,21.449-4.618,28.855-12.669c6.673-7.253,10.348-16.676,10.348-26.534S341.223,234.111,334.551,226.859z
				 M319.199,275.924c-0.152,0.394-0.306,0.782-0.465,1.16c-0.076,0.181-0.154,0.357-0.231,0.534
				c-0.149,0.342-0.301,0.679-0.455,1.009c-0.083,0.177-0.167,0.353-0.252,0.527c-0.158,0.323-0.318,0.637-0.481,0.946
				c-0.084,0.16-0.167,0.32-0.252,0.476c-0.181,0.33-0.365,0.648-0.552,0.962c-0.07,0.119-0.139,0.242-0.21,0.358
				c-0.52,0.848-1.06,1.631-1.619,2.348c-0.085,0.109-0.172,0.21-0.258,0.316c-0.195,0.24-0.391,0.477-0.589,0.701
				c-0.106,0.119-0.213,0.232-0.32,0.347c-0.184,0.198-0.37,0.391-0.557,0.574c-0.113,0.111-0.227,0.22-0.342,0.326
				c-0.188,0.174-0.378,0.34-0.569,0.5c-0.113,0.095-0.226,0.191-0.341,0.282c-0.206,0.163-0.415,0.313-0.624,0.458
				c-0.1,0.069-0.198,0.145-0.298,0.21c-0.308,0.202-0.618,0.389-0.931,0.554c-0.002,0.001-0.004,0.003-0.006,0.003
				c-0.315,0.167-0.633,0.31-0.953,0.439c-0.102,0.041-0.206,0.072-0.308,0.109c-0.219,0.08-0.439,0.155-0.661,0.216
				c-0.122,0.034-0.244,0.061-0.367,0.089c-0.121,0.028-0.242,0.049-0.364,0.071v-15.672c0.055,0.001,0.111,0.001,0.166,0.003
				c0.908,0.024,1.811,0.069,2.712,0.132c0.193,0.013,0.385,0.03,0.578,0.045c0.88,0.07,1.757,0.154,2.629,0.261
				c0.05,0.006,0.1,0.01,0.149,0.017c0.906,0.114,1.804,0.254,2.699,0.408c0.196,0.034,0.393,0.068,0.589,0.103
				c0.88,0.161,1.756,0.337,2.624,0.537c0.033,0.007,0.065,0.016,0.098,0.023c-0.02,0.055-0.039,0.113-0.059,0.167
				C319.32,275.621,319.259,275.771,319.199,275.924z M303.465,289.28c-0.222-0.062-0.443-0.137-0.663-0.217
				c-0.102-0.037-0.204-0.067-0.305-0.108c-0.641-0.257-1.272-0.591-1.893-0.997c-0.097-0.063-0.192-0.136-0.288-0.203
				c-0.213-0.148-0.426-0.301-0.636-0.467c-0.111-0.088-0.221-0.182-0.331-0.273c-0.195-0.163-0.388-0.332-0.58-0.51
				c-0.111-0.103-0.222-0.208-0.332-0.316c-0.191-0.188-0.381-0.384-0.569-0.586c-0.103-0.111-0.207-0.221-0.309-0.336
				c-0.204-0.229-0.404-0.471-0.604-0.718c-0.081-0.101-0.164-0.196-0.245-0.3c-0.56-0.719-1.103-1.505-1.624-2.355
				c-0.067-0.11-0.132-0.226-0.199-0.338c-0.19-0.32-0.379-0.645-0.563-0.982c-0.083-0.152-0.165-0.31-0.247-0.465
				c-0.165-0.312-0.327-0.63-0.486-0.955c-0.084-0.171-0.167-0.345-0.249-0.521c-0.156-0.332-0.308-0.671-0.459-1.016
				c-0.077-0.175-0.153-0.35-0.228-0.528c-0.159-0.379-0.313-0.769-0.466-1.163c-0.059-0.154-0.12-0.303-0.179-0.459
				c-0.02-0.054-0.039-0.112-0.059-0.167c0.033-0.008,0.065-0.017,0.098-0.024c0.868-0.2,1.743-0.376,2.623-0.537
				c0.196-0.036,0.392-0.07,0.589-0.103c0.895-0.154,1.793-0.294,2.699-0.408c0.049-0.006,0.1-0.01,0.149-0.017
				c0.872-0.107,1.749-0.191,2.629-0.261c0.192-0.016,0.384-0.032,0.577-0.045c0.9-0.063,1.805-0.108,2.712-0.132
				c0.055-0.001,0.111-0.001,0.166-0.003v15.672c-0.121-0.022-0.243-0.043-0.364-0.071
				C303.709,289.34,303.587,289.314,303.465,289.28z M292.19,230.861c0.152-0.394,0.307-0.784,0.466-1.163
				c0.075-0.179,0.152-0.353,0.228-0.528c0.15-0.345,0.303-0.684,0.459-1.016c0.082-0.176,0.165-0.35,0.249-0.521
				c0.159-0.326,0.322-0.643,0.486-0.955c0.082-0.156,0.163-0.314,0.247-0.465c0.184-0.337,0.373-0.663,0.563-0.982
				c0.066-0.112,0.131-0.228,0.199-0.338c0.521-0.851,1.064-1.637,1.624-2.356c0.08-0.103,0.163-0.198,0.244-0.299
				c0.2-0.247,0.401-0.489,0.605-0.72c0.102-0.115,0.205-0.224,0.308-0.335c0.188-0.202,0.378-0.399,0.57-0.586
				c0.11-0.108,0.221-0.213,0.332-0.316c0.192-0.178,0.385-0.347,0.58-0.51c0.11-0.092,0.22-0.186,0.331-0.273
				c0.21-0.165,0.423-0.318,0.636-0.467c0.096-0.067,0.191-0.14,0.288-0.203c0.62-0.406,1.252-0.74,1.893-0.997
				c0.101-0.04,0.204-0.071,0.305-0.108c0.22-0.08,0.441-0.155,0.663-0.217c0.122-0.034,0.244-0.06,0.366-0.088
				c0.121-0.028,0.243-0.049,0.364-0.071v15.672c-0.055-0.001-0.111-0.001-0.166-0.002c-0.908-0.024-1.813-0.069-2.714-0.132
				c-0.192-0.014-0.383-0.03-0.574-0.045c-0.881-0.07-1.76-0.154-2.632-0.262c-0.049-0.006-0.099-0.01-0.148-0.017
				c-0.906-0.114-1.804-0.254-2.699-0.408c-0.196-0.034-0.393-0.068-0.589-0.104c-0.88-0.161-1.756-0.337-2.623-0.537
				c-0.033-0.007-0.065-0.016-0.098-0.024c0.02-0.054,0.039-0.112,0.059-0.166C292.069,231.164,292.13,231.015,292.19,230.861z
				 M307.926,217.505c0.221,0.061,0.441,0.136,0.661,0.216c0.103,0.037,0.206,0.068,0.308,0.109c0.32,0.128,0.638,0.272,0.953,0.438
				c0.002,0.001,0.004,0.002,0.006,0.003c0.313,0.165,0.623,0.352,0.931,0.554c0.1,0.065,0.199,0.141,0.298,0.21
				c0.209,0.146,0.418,0.296,0.624,0.458c0.114,0.09,0.227,0.187,0.341,0.282c0.191,0.16,0.381,0.325,0.569,0.5
				c0.114,0.106,0.228,0.214,0.342,0.326c0.188,0.184,0.373,0.376,0.558,0.574c0.107,0.115,0.213,0.227,0.319,0.346
				c0.199,0.225,0.396,0.462,0.591,0.703c0.086,0.106,0.173,0.207,0.257,0.315c0.558,0.717,1.099,1.5,1.619,2.348
				c0.071,0.116,0.14,0.239,0.21,0.358c0.186,0.313,0.371,0.632,0.552,0.962c0.085,0.156,0.168,0.316,0.252,0.476
				c0.163,0.309,0.324,0.623,0.481,0.946c0.085,0.174,0.169,0.35,0.252,0.527c0.155,0.33,0.306,0.666,0.455,1.009
				c0.077,0.177,0.155,0.354,0.231,0.534c0.159,0.378,0.313,0.767,0.465,1.16c0.059,0.154,0.121,0.304,0.179,0.46
				c0.02,0.054,0.039,0.112,0.059,0.166c-0.033,0.008-0.065,0.017-0.098,0.024c-0.868,0.2-1.743,0.376-2.623,0.537
				c-0.196,0.036-0.392,0.07-0.589,0.104c-0.895,0.154-1.793,0.294-2.699,0.408c-0.049,0.006-0.099,0.01-0.148,0.017
				c-0.872,0.107-1.751,0.192-2.632,0.262c-0.191,0.015-0.382,0.032-0.574,0.045c-0.901,0.063-1.805,0.108-2.713,0.132
				c-0.055,0.001-0.111,0.001-0.166,0.002v-15.672c0.121,0.023,0.243,0.044,0.364,0.071
				C307.681,217.445,307.804,217.471,307.926,217.505z M322.972,256.578c-0.023,0.539-0.053,1.075-0.088,1.609
				c-0.02,0.31-0.039,0.621-0.063,0.929c-0.045,0.576-0.1,1.146-0.158,1.716c-0.026,0.256-0.048,0.516-0.077,0.771
				c-0.093,0.816-0.197,1.626-0.317,2.427c-0.012,0.078-0.027,0.155-0.039,0.233c-0.111,0.721-0.233,1.436-0.366,2.143
				c-0.051,0.268-0.108,0.53-0.162,0.796c-0.104,0.513-0.21,1.024-0.325,1.528c-0.068,0.295-0.14,0.587-0.212,0.879
				c-0.115,0.47-0.235,0.936-0.36,1.396c-0.079,0.29-0.16,0.578-0.243,0.864c-0.056,0.191-0.117,0.378-0.174,0.568
				c-0.06-0.014-0.121-0.024-0.181-0.038c-0.929-0.217-1.865-0.412-2.808-0.586c-0.19-0.035-0.381-0.067-0.571-0.101
				c-0.966-0.169-1.937-0.324-2.916-0.448c-0.012-0.001-0.024-0.004-0.036-0.005c-0.986-0.125-1.979-0.22-2.975-0.299
				c-0.198-0.016-0.396-0.033-0.595-0.047c-0.969-0.068-1.942-0.116-2.918-0.142c-0.064-0.001-0.127-0.008-0.191-0.009v-15.869
				h15.824c-0.005,0.239-0.006,0.479-0.013,0.717C322.997,255.933,322.986,256.256,322.972,256.578z M301.085,270.912
				c-0.199,0.014-0.397,0.031-0.595,0.047c-0.996,0.079-1.99,0.174-2.976,0.299c-0.012,0.001-0.024,0.004-0.036,0.005
				c-0.978,0.124-1.949,0.279-2.916,0.448c-0.191,0.034-0.381,0.066-0.572,0.101c-0.943,0.174-1.879,0.369-2.808,0.586
				c-0.06,0.014-0.121,0.024-0.181,0.038c-0.059-0.194-0.121-0.384-0.177-0.579c-0.081-0.277-0.159-0.557-0.236-0.838
				c-0.129-0.473-0.252-0.952-0.37-1.436c-0.068-0.279-0.138-0.557-0.202-0.839c-0.12-0.525-0.231-1.057-0.339-1.591
				c-0.049-0.246-0.103-0.488-0.149-0.735c-0.141-0.746-0.27-1.499-0.386-2.262c-0.006-0.04-0.014-0.078-0.02-0.118
				c-0.121-0.806-0.226-1.622-0.319-2.443c-0.028-0.245-0.048-0.493-0.074-0.739c-0.059-0.579-0.115-1.159-0.161-1.744
				c-0.024-0.304-0.042-0.611-0.062-0.917c-0.035-0.538-0.065-1.077-0.089-1.619c-0.014-0.321-0.025-0.643-0.035-0.965
				c-0.007-0.238-0.008-0.479-0.013-0.718h15.824v15.869c-0.064,0.001-0.127,0.007-0.191,0.009
				C303.027,270.796,302.054,270.844,301.085,270.912z M288.418,250.209c0.023-0.542,0.054-1.081,0.089-1.619
				c0.02-0.306,0.038-0.613,0.062-0.917c0.045-0.585,0.101-1.165,0.161-1.744c0.025-0.246,0.046-0.494,0.074-0.739
				c0.093-0.822,0.198-1.638,0.319-2.443c0.006-0.04,0.014-0.079,0.02-0.118c0.116-0.762,0.245-1.516,0.386-2.262
				c0.047-0.247,0.1-0.49,0.149-0.735c0.107-0.534,0.218-1.067,0.339-1.591c0.065-0.282,0.134-0.56,0.202-0.839
				c0.118-0.483,0.241-0.962,0.37-1.436c0.077-0.281,0.155-0.561,0.236-0.838c0.057-0.195,0.119-0.385,0.177-0.579
				c0.06,0.014,0.121,0.024,0.18,0.038c0.93,0.217,1.868,0.413,2.812,0.587c0.188,0.035,0.377,0.066,0.565,0.1
				c0.969,0.17,1.943,0.325,2.925,0.45c0.01,0.001,0.02,0.003,0.03,0.004c0.987,0.125,1.981,0.22,2.979,0.299
				c0.197,0.016,0.394,0.033,0.591,0.046c0.97,0.068,1.943,0.117,2.92,0.142c0.064,0.001,0.127,0.008,0.191,0.009v15.869h-15.824
				c0.005-0.239,0.006-0.48,0.013-0.718C288.393,250.852,288.405,250.53,288.418,250.209z M310.305,235.873
				c0.199-0.014,0.397-0.031,0.595-0.046c0.996-0.08,1.988-0.174,2.974-0.299c0.014-0.001,0.028-0.004,0.042-0.006
				c0.977-0.124,1.946-0.278,2.911-0.448c0.191-0.033,0.382-0.065,0.572-0.1c0.943-0.174,1.879-0.369,2.809-0.587
				c0.06-0.014,0.121-0.023,0.181-0.038c0.057,0.19,0.118,0.376,0.174,0.568c0.083,0.286,0.164,0.574,0.243,0.864
				c0.126,0.46,0.245,0.926,0.36,1.396c0.072,0.292,0.144,0.584,0.212,0.879c0.115,0.504,0.222,1.015,0.325,1.528
				c0.054,0.266,0.111,0.528,0.162,0.796c0.133,0.706,0.254,1.419,0.365,2.14c0.012,0.08,0.027,0.157,0.039,0.236
				c0.12,0.8,0.224,1.61,0.317,2.426c0.029,0.255,0.051,0.514,0.077,0.771c0.058,0.569,0.113,1.14,0.158,1.716
				c0.024,0.308,0.042,0.619,0.063,0.929c0.035,0.534,0.065,1.07,0.088,1.609c0.014,0.322,0.025,0.646,0.035,0.969
				c0.007,0.238,0.008,0.478,0.013,0.717h-15.824v-15.869c0.064-0.001,0.127-0.008,0.191-0.009
				C308.363,235.99,309.336,235.941,310.305,235.873z M326.032,251.892c-0.005-0.256-0.019-0.51-0.027-0.765
				c-0.01-0.352-0.022-0.702-0.037-1.052c-0.024-0.555-0.056-1.106-0.091-1.656c-0.021-0.326-0.04-0.653-0.065-0.978
				c-0.049-0.622-0.108-1.239-0.172-1.854c-0.025-0.244-0.045-0.491-0.073-0.733c-0.097-0.852-0.207-1.697-0.332-2.533
				c-0.026-0.173-0.059-0.343-0.086-0.516c-0.105-0.663-0.215-1.321-0.338-1.972c-0.055-0.29-0.116-0.573-0.174-0.86
				c-0.107-0.53-0.217-1.056-0.336-1.577c-0.071-0.311-0.146-0.617-0.221-0.924c-0.12-0.491-0.246-0.978-0.377-1.46
				c-0.083-0.304-0.167-0.607-0.254-0.908c-0.05-0.172-0.094-0.35-0.146-0.521c0.372-0.108,0.735-0.233,1.104-0.348
				c0.32-0.1,0.641-0.197,0.959-0.302c0.814-0.269,1.618-0.556,2.414-0.858c0.153-0.058,0.31-0.109,0.462-0.169
				c0.939-0.366,1.861-0.758,2.77-1.17c0.263-0.119,0.52-0.248,0.781-0.371c0.438-0.206,0.88-0.406,1.31-0.623
				c5.353,6.197,8.429,13.974,8.764,22.15H326.032z M314.97,218.404c5.967,1.588,11.488,4.689,15.965,9.04
				c-0.206,0.1-0.406,0.206-0.613,0.303c-0.248,0.116-0.497,0.23-0.748,0.342c-0.691,0.31-1.391,0.605-2.1,0.887
				c-0.175,0.07-0.347,0.145-0.524,0.212c-0.874,0.337-1.761,0.651-2.66,0.945c-0.218,0.072-0.44,0.136-0.659,0.205
				c-0.422,0.132-0.851,0.25-1.277,0.373c-0.041-0.111-0.086-0.215-0.127-0.326c-0.121-0.325-0.246-0.642-0.372-0.959
				c-0.13-0.328-0.261-0.654-0.396-0.973c-0.132-0.311-0.267-0.613-0.404-0.916c-0.138-0.306-0.277-0.61-0.42-0.907
				c-0.142-0.294-0.286-0.581-0.432-0.866c-0.147-0.287-0.295-0.571-0.446-0.849c-0.15-0.275-0.302-0.542-0.456-0.808
				c-0.156-0.269-0.313-0.535-0.474-0.793c-0.157-0.254-0.316-0.501-0.477-0.745c-0.165-0.251-0.332-0.498-0.501-0.738
				c-0.163-0.232-0.328-0.458-0.494-0.68c-0.175-0.233-0.352-0.462-0.53-0.684c-0.167-0.208-0.336-0.412-0.506-0.61
				c-0.185-0.215-0.371-0.424-0.559-0.628c-0.172-0.186-0.344-0.367-0.519-0.543C315.149,218.595,315.061,218.493,314.97,218.404z
				 M296.151,218.686c-0.175,0.177-0.348,0.359-0.521,0.545c-0.188,0.203-0.373,0.412-0.557,0.626
				c-0.171,0.199-0.34,0.402-0.507,0.611c-0.179,0.222-0.355,0.451-0.53,0.684c-0.166,0.222-0.331,0.448-0.494,0.679
				c-0.169,0.241-0.335,0.487-0.501,0.738c-0.161,0.244-0.32,0.491-0.477,0.745c-0.16,0.259-0.318,0.525-0.474,0.794
				c-0.154,0.265-0.306,0.532-0.456,0.806c-0.152,0.278-0.3,0.563-0.447,0.851c-0.145,0.284-0.29,0.569-0.431,0.863
				c-0.143,0.298-0.283,0.604-0.422,0.911c-0.136,0.301-0.271,0.602-0.402,0.912c-0.136,0.32-0.267,0.648-0.398,0.978
				c-0.125,0.314-0.25,0.63-0.37,0.953c-0.042,0.111-0.087,0.216-0.128,0.329c-0.423-0.122-0.849-0.239-1.267-0.37
				c-0.223-0.07-0.449-0.136-0.672-0.209c-0.897-0.294-1.784-0.607-2.656-0.944c-0.176-0.068-0.348-0.143-0.523-0.212
				c-0.71-0.282-1.412-0.578-2.104-0.888c-0.249-0.111-0.496-0.225-0.743-0.339c-0.209-0.098-0.41-0.205-0.617-0.305
				c4.477-4.351,9.998-7.451,15.965-9.039C296.329,218.493,296.241,218.595,296.151,218.686z M278.286,229.742
				c0.431,0.218,0.875,0.417,1.314,0.624c0.26,0.123,0.515,0.251,0.778,0.37c0.909,0.412,1.831,0.804,2.77,1.17
				c0.151,0.059,0.307,0.11,0.458,0.168c0.797,0.303,1.603,0.59,2.419,0.859c0.316,0.105,0.636,0.201,0.955,0.3
				c0.369,0.115,0.733,0.24,1.105,0.348c-0.052,0.173-0.097,0.353-0.147,0.528c-0.085,0.295-0.168,0.593-0.249,0.892
				c-0.133,0.488-0.26,0.982-0.382,1.48c-0.074,0.302-0.148,0.604-0.218,0.909c-0.12,0.525-0.231,1.057-0.339,1.591
				c-0.057,0.283-0.117,0.563-0.171,0.848c-0.124,0.657-0.236,1.323-0.341,1.993c-0.026,0.167-0.058,0.33-0.083,0.497
				c-0.125,0.837-0.236,1.682-0.332,2.534c-0.028,0.246-0.048,0.495-0.073,0.742c-0.063,0.612-0.123,1.226-0.171,1.844
				c-0.026,0.328-0.044,0.657-0.066,0.986c-0.035,0.547-0.067,1.095-0.091,1.646c-0.015,0.351-0.027,0.704-0.037,1.058
				c-0.007,0.255-0.022,0.507-0.027,0.763h-15.835C269.858,243.715,272.934,235.939,278.286,229.742z M285.358,254.892
				c0.005,0.255,0.019,0.508,0.027,0.763c0.01,0.354,0.022,0.706,0.037,1.058c0.024,0.551,0.055,1.099,0.091,1.647
				c0.021,0.329,0.04,0.659,0.066,0.986c0.048,0.618,0.108,1.232,0.171,1.844c0.025,0.247,0.046,0.496,0.073,0.742
				c0.097,0.852,0.207,1.697,0.332,2.534c0.025,0.167,0.057,0.332,0.083,0.499c0.105,0.669,0.217,1.334,0.341,1.991
				c0.054,0.285,0.114,0.565,0.171,0.848c0.108,0.534,0.219,1.066,0.339,1.591c0.07,0.305,0.144,0.606,0.218,0.909
				c0.122,0.498,0.249,0.991,0.382,1.479c0.081,0.299,0.164,0.597,0.249,0.892c0.051,0.175,0.095,0.354,0.147,0.528
				c-0.372,0.108-0.736,0.233-1.105,0.348c-0.319,0.099-0.639,0.196-0.955,0.3c-0.818,0.27-1.626,0.558-2.425,0.862
				c-0.149,0.057-0.302,0.107-0.451,0.165c-0.94,0.367-1.863,0.76-2.773,1.172c-0.261,0.119-0.515,0.246-0.774,0.368
				c-0.439,0.208-0.884,0.408-1.316,0.626c-5.353-6.196-8.428-13.974-8.763-22.15H285.358z M296.421,288.38
				c-5.968-1.588-11.489-4.689-15.967-9.039c0.205-0.099,0.405-0.206,0.612-0.303c0.25-0.117,0.502-0.232,0.754-0.345
				c0.689-0.309,1.387-0.603,2.094-0.884c0.177-0.07,0.35-0.146,0.528-0.214c0.873-0.336,1.76-0.65,2.658-0.944
				c0.22-0.072,0.444-0.137,0.666-0.207c0.42-0.132,0.847-0.249,1.271-0.371c0.041,0.112,0.086,0.217,0.128,0.329
				c0.121,0.324,0.246,0.64,0.371,0.956c0.13,0.328,0.261,0.655,0.397,0.974c0.132,0.311,0.267,0.612,0.403,0.914
				c0.139,0.307,0.278,0.612,0.422,0.91c0.141,0.294,0.286,0.58,0.432,0.864c0.147,0.287,0.294,0.57,0.446,0.848
				c0.151,0.276,0.304,0.545,0.459,0.812c0.155,0.267,0.311,0.53,0.47,0.787c0.159,0.257,0.32,0.506,0.482,0.753
				c0.163,0.248,0.327,0.491,0.494,0.729c0.166,0.236,0.333,0.465,0.503,0.691c0.171,0.229,0.344,0.452,0.519,0.67
				c0.172,0.214,0.345,0.422,0.52,0.626c0.179,0.209,0.36,0.412,0.543,0.61c0.177,0.192,0.356,0.38,0.536,0.562
				C296.247,288.195,296.332,288.294,296.421,288.38z M315.24,288.097c0.174-0.175,0.346-0.356,0.517-0.541
				c0.189-0.205,0.376-0.415,0.561-0.63c0.169-0.198,0.337-0.4,0.504-0.607c0.18-0.224,0.357-0.453,0.533-0.688
				c0.166-0.221,0.329-0.445,0.491-0.676c0.17-0.242,0.337-0.49,0.503-0.742c0.16-0.243,0.319-0.489,0.475-0.741
				c0.161-0.26,0.318-0.526,0.475-0.796c0.154-0.265,0.306-0.532,0.455-0.806c0.152-0.278,0.3-0.563,0.447-0.851
				c0.146-0.284,0.29-0.57,0.431-0.864c0.143-0.297,0.282-0.602,0.421-0.909c0.136-0.302,0.272-0.604,0.403-0.915
				c0.135-0.318,0.266-0.645,0.396-0.973c0.126-0.317,0.251-0.634,0.372-0.959c0.041-0.111,0.086-0.215,0.127-0.326
				c0.427,0.123,0.857,0.241,1.28,0.374c0.218,0.068,0.438,0.133,0.655,0.204c0.899,0.294,1.787,0.608,2.661,0.945
				c0.177,0.068,0.349,0.143,0.524,0.212c0.709,0.282,1.409,0.577,2.099,0.887c0.251,0.112,0.501,0.227,0.749,0.342
				c0.207,0.097,0.407,0.204,0.613,0.303c-4.478,4.351-9.998,7.451-15.965,9.04C315.061,288.291,315.149,288.189,315.24,288.097z
				 M333.103,277.042c-0.436-0.22-0.885-0.423-1.329-0.632c-0.252-0.119-0.5-0.244-0.755-0.359c-0.912-0.414-1.838-0.808-2.78-1.175
				c-0.142-0.055-0.288-0.103-0.431-0.158c-0.806-0.307-1.621-0.597-2.446-0.869c-0.313-0.104-0.63-0.199-0.946-0.298
				c-0.371-0.115-0.736-0.241-1.111-0.35c0.051-0.171,0.096-0.349,0.146-0.521c0.087-0.3,0.171-0.604,0.254-0.908
				c0.131-0.482,0.256-0.969,0.377-1.46c0.075-0.307,0.15-0.614,0.221-0.924c0.119-0.52,0.229-1.047,0.336-1.577
				c0.058-0.287,0.119-0.57,0.174-0.86c0.122-0.651,0.233-1.31,0.338-1.973c0.027-0.173,0.06-0.342,0.086-0.516
				c0.125-0.836,0.236-1.681,0.332-2.533c0.028-0.243,0.047-0.489,0.073-0.733c0.064-0.615,0.123-1.232,0.172-1.854
				c0.025-0.325,0.044-0.651,0.065-0.978c0.036-0.55,0.068-1.102,0.091-1.656c0.015-0.35,0.026-0.701,0.037-1.052
				c0.007-0.255,0.022-0.509,0.027-0.765h15.835C341.532,263.069,338.457,270.845,333.103,277.042z"/>
		</g>
		<g>
			<g>
				<g>
					<path style="fill:#171717;" d="M416.021,165.061c-38.606,0-74.563-21.194-96.184-56.695c-2.229-3.663-2.229-8.212,0-11.874
						c21.62-35.501,57.577-56.694,96.184-56.694c38.608,0,74.565,21.194,96.184,56.694c2.23,3.662,2.23,8.212-0.001,11.875
						C490.587,143.867,454.63,165.061,416.021,165.061z"/>
					<path style="fill:#FFFFFF;" d="M416.021,165.436c-38.739,0-74.815-21.262-96.504-56.875c-2.303-3.783-2.303-8.482,0-12.264
						c21.689-35.613,57.765-56.875,96.504-56.875c38.741,0,74.817,21.261,96.504,56.874c2.304,3.783,2.304,8.482-0.001,12.265
						C490.839,144.175,454.763,165.436,416.021,165.436z M416.021,40.173c-38.476,0-74.312,21.127-95.863,56.514
						c-2.156,3.542-2.156,7.942,0,11.484c21.551,35.388,57.389,56.515,95.863,56.515c38.478,0,74.314-21.127,95.862-56.514
						c2.158-3.542,2.158-7.943,0.001-11.485C490.335,61.299,454.499,40.173,416.021,40.173z"/>
				</g>
				
					<linearGradient id="SVGID_00000103971881710131541940000018272963939881364890_" gradientUnits="userSpaceOnUse" x1="382.0476" y1="61.0693" x2="463.1281" y2="159.7758">
					<stop  offset="0" style="stop-color:#56E7F2"/>
					<stop  offset="0.2918" style="stop-color:#C2A7DE"/>
					<stop  offset="0.6174" style="stop-color:#E8FBA9"/>
					<stop  offset="0.8366" style="stop-color:#32ABDF"/>
					<stop  offset="1" style="stop-color:#FEFCEF"/>
				</linearGradient>
				<path style="fill:url(#SVGID_00000103971881710131541940000018272963939881364890_);" d="M416.021,162.061
					c-37.551,0-72.55-20.656-93.621-55.255c-1.637-2.688-1.637-6.065,0-8.753c21.071-34.599,56.069-55.255,93.621-55.255
					c37.553,0,72.552,20.656,93.622,55.255c1.637,2.688,1.637,6.065,0,8.753C488.573,141.405,453.574,162.061,416.021,162.061z"/>
			</g>
			<path style="fill:#171717;" d="M503.781,103.118c0.015-0.029,0.034-0.056,0.047-0.086c0.021-0.046,0.034-0.097,0.05-0.146
				c0.01-0.031,0.021-0.062,0.029-0.093c0.004-0.018,0.012-0.034,0.016-0.052c0.021-0.099,0.032-0.201,0.033-0.305
				c0-0.004,0-0.009,0-0.014c-0.001-0.104-0.012-0.207-0.033-0.305c-0.004-0.018-0.012-0.034-0.016-0.052
				c-0.008-0.032-0.019-0.062-0.029-0.093c-0.016-0.049-0.029-0.1-0.05-0.146c-0.013-0.03-0.031-0.057-0.047-0.086
				c-0.007-0.013-0.013-0.025-0.021-0.038c-0.009-0.017-0.013-0.037-0.023-0.053c-11.091-18.212-26.257-32.311-43.622-41.195
				c-0.119-0.086-0.251-0.153-0.393-0.201c-13.538-6.852-28.398-10.541-43.701-10.541c-15.304,0-30.165,3.689-43.702,10.541
				c-0.141,0.049-0.273,0.115-0.391,0.2c-17.365,8.884-32.53,22.983-43.622,41.196c-0.01,0.017-0.014,0.036-0.023,0.054
				c-0.007,0.012-0.014,0.025-0.02,0.037c-0.015,0.029-0.034,0.056-0.047,0.086c-0.021,0.046-0.034,0.097-0.05,0.146
				c-0.01,0.031-0.021,0.062-0.029,0.093c-0.005,0.018-0.012,0.034-0.016,0.052c-0.021,0.098-0.032,0.2-0.033,0.305
				c0,0.004,0,0.009,0,0.014c0,0.104,0.012,0.207,0.033,0.305c0.004,0.018,0.012,0.035,0.016,0.052
				c0.008,0.032,0.019,0.062,0.029,0.093c0.016,0.049,0.029,0.1,0.05,0.146c0.013,0.03,0.032,0.057,0.047,0.086
				c0.007,0.013,0.013,0.025,0.02,0.037c0.01,0.018,0.013,0.037,0.023,0.054c11.088,18.207,26.247,32.302,43.605,41.186
				c0.13,0.098,0.277,0.171,0.435,0.222c13.53,6.843,28.381,10.528,43.675,10.528s30.145-3.685,43.675-10.528
				c0.158-0.051,0.304-0.124,0.435-0.222c17.358-8.884,32.518-22.979,43.606-41.186c0.01-0.017,0.014-0.036,0.023-0.053
				C503.768,103.144,503.775,103.131,503.781,103.118z M457.739,100.929h-40.217V76.473c14.061,0.122,27.708,1.945,40.217,5.252
				V100.929z M460.739,82.552c14.609,4.202,27.536,10.455,37.575,18.377h-37.575V82.552z M417.522,73.473V52.738
				c14.057,0.229,27.706,3.664,40.217,9.884v16.017C445.184,75.387,431.549,73.593,417.522,73.473z M414.522,73.473
				c-14.028,0.12-27.662,1.914-40.217,5.165V62.622c12.511-6.22,26.159-9.655,40.217-9.884V73.473z M414.522,76.473v24.456h-40.217
				V81.725C386.813,78.418,400.461,76.595,414.522,76.473z M371.305,100.929H333.73c10.039-7.922,22.966-14.175,37.574-18.377
				V100.929z M371.305,103.929v18.377c-14.609-4.202-27.536-10.455-37.574-18.377H371.305z M374.305,103.929h40.217v24.456
				c-14.061-0.122-27.708-1.945-40.217-5.252V103.929z M414.522,131.385v20.735c-14.057-0.229-27.706-3.664-40.217-9.884V126.22
				C386.86,129.471,400.494,131.265,414.522,131.385z M417.522,131.385c14.027-0.12,27.662-1.914,40.217-5.165v16.017
				c-12.511,6.22-26.159,9.655-40.217,9.884V131.385z M417.522,128.385v-24.456h40.217v19.204
				C445.23,126.441,431.582,128.264,417.522,128.385z M460.739,103.929h37.575c-10.039,7.922-22.967,14.175-37.575,18.377V103.929z
				 M496.069,95.545c-9.859-6.866-21.926-12.323-35.33-16.096V64.175C474.29,71.504,486.387,82.156,496.069,95.545z M371.305,64.175
				v15.274c-13.403,3.772-25.471,9.229-35.329,16.095C345.657,82.156,357.753,71.504,371.305,64.175z M335.976,109.315
				c9.858,6.866,21.926,12.323,35.329,16.095v15.274C357.753,133.355,345.657,122.703,335.976,109.315z M460.739,140.684V125.41
				c13.404-3.772,25.471-9.229,35.33-16.096C486.387,122.703,474.29,133.355,460.739,140.684z"/>
		</g>
		<g>
			<g>
				<path style="fill:#171717;" d="M400.616,308.485c-0.515,0-1.034-0.132-1.506-0.407c-1.267-0.736-1.815-2.279-1.3-3.649
					l14.911-39.645l-15.52-7.681c-1.445-0.715-2.066-2.445-1.406-3.917l27.396-61.036c0.499-1.11,1.591-1.772,2.738-1.772
					c0.384,0,0.773,0.074,1.149,0.229l27.086,11.229c0.852,0.354,1.494,1.08,1.741,1.969c0.247,0.889,0.071,1.842-0.478,2.584
					l-27.885,37.77l16.189,8.475c0.803,0.42,1.372,1.181,1.55,2.069c0.178,0.889-0.056,1.81-0.635,2.507l-41.724,50.192
					C402.338,308.109,401.484,308.485,400.616,308.485z"/>
				<path style="fill:#FFFFFF;" d="M400.616,308.859c-0.595,0-1.181-0.158-1.694-0.457c-1.43-0.831-2.045-2.558-1.462-4.105
					l14.791-39.327l-15.215-7.531c-1.634-0.808-2.328-2.743-1.582-4.406l27.396-61.036c0.544-1.211,1.753-1.993,3.08-1.993
					c0.443,0,0.878,0.086,1.292,0.257l27.086,11.23c0.965,0.4,1.679,1.207,1.959,2.214c0.28,1.008,0.084,2.067-0.537,2.908
					l-27.625,37.418l15.802,8.272c0.907,0.475,1.543,1.323,1.744,2.328c0.2,1.004-0.06,2.031-0.715,2.819l-41.724,50.191
					C402.571,308.416,401.624,308.859,400.616,308.859z M425.931,190.753c-1.032,0-1.973,0.609-2.397,1.551l-27.396,61.035
					c-0.58,1.294-0.039,2.799,1.23,3.428l15.52,7.682c0.173,0.085,0.253,0.288,0.185,0.468l-14.911,39.645
					c-0.452,1.204,0.025,2.547,1.138,3.193c1.077,0.626,2.543,0.364,3.338-0.591l41.724-50.191c0.509-0.613,0.711-1.413,0.555-2.194
					c-0.156-0.781-0.65-1.441-1.355-1.811l-16.19-8.475c-0.097-0.051-0.167-0.141-0.191-0.248c-0.024-0.106-0.002-0.219,0.064-0.307
					l27.885-37.77c0.483-0.654,0.636-1.478,0.418-2.261c-0.218-0.783-0.773-1.411-1.523-1.723l-27.086-11.23
					C426.613,190.821,426.275,190.753,425.931,190.753z"/>
			</g>
			
				<linearGradient id="SVGID_00000032634255876628494720000006848598681967485104_" gradientUnits="userSpaceOnUse" x1="399.1856" y1="297.0545" x2="448.1129" y2="195.2542">
				<stop  offset="0" style="stop-color:#56E7F2"/>
				<stop  offset="0.2918" style="stop-color:#C2A7DE"/>
				<stop  offset="0.6174" style="stop-color:#E8FBA9"/>
				<stop  offset="0.8366" style="stop-color:#32ABDF"/>
				<stop  offset="1" style="stop-color:#FEFCEF"/>
			</linearGradient>
			<polygon style="fill:url(#SVGID_00000032634255876628494720000006848598681967485104_);" points="453.016,204.609 
				425.93,193.379 398.533,254.414 416.485,263.3 400.618,305.485 442.342,255.293 423.051,245.194 			"/>
		</g>
		<g>
			<g>
				<path style="fill:#171717;" d="M138.498,460.202c-30.742,0-55.752-25.01-55.752-55.751s25.01-55.752,55.752-55.752
					c30.741,0,55.751,25.01,55.751,55.752S169.239,460.202,138.498,460.202z"/>
				<path style="fill:#FFFFFF;" d="M138.498,460.577c-30.949,0-56.127-25.179-56.127-56.127s25.178-56.126,56.127-56.126
					c30.948,0,56.126,25.178,56.126,56.126S169.446,460.577,138.498,460.577z M138.498,349.074
					c-30.535,0-55.377,24.842-55.377,55.376c0,30.535,24.842,55.377,55.377,55.377c30.534,0,55.376-24.842,55.376-55.377
					C193.874,373.916,169.032,349.074,138.498,349.074z"/>
			</g>
			
				<linearGradient id="SVGID_00000026866348809359241050000015067500641769736838_" gradientUnits="userSpaceOnUse" x1="96.1361" y1="444.7457" x2="182.708" y2="362.3969">
				<stop  offset="0" style="stop-color:#56E7F2"/>
				<stop  offset="0.2918" style="stop-color:#C2A7DE"/>
				<stop  offset="0.6174" style="stop-color:#E8FBA9"/>
				<stop  offset="0.8366" style="stop-color:#32ABDF"/>
				<stop  offset="1" style="stop-color:#FEFCEF"/>
			</linearGradient>
			<circle style="fill:url(#SVGID_00000026866348809359241050000015067500641769736838_);" cx="138.498" cy="404.451" r="52.751"/>
			<path style="fill:#171717;" d="M180.963,404.857c-0.629,0.313-1.299,0.513-1.983,0.622
				c-0.549,21.862-18.492,39.481-40.482,39.481c-21.991,0-39.933-17.619-40.482-39.481c-0.683-0.109-1.353-0.309-1.981-0.622
				c-0.559-0.278-0.786-0.956-0.508-1.514c0.278-0.558,0.959-0.786,1.514-0.508c1.299,0.647,2.853,0.646,4.159-0.001
				c0.559-0.279,1.236-0.047,1.514,0.51c0.277,0.559,0.047,1.237-0.511,1.514c-0.613,0.303-1.265,0.5-1.928,0.611
				c0.543,20.621,17.475,37.232,38.224,37.232c20.749,0,37.681-16.611,38.224-37.232c-0.663-0.111-1.315-0.308-1.928-0.611
				c-0.558-0.277-0.787-0.955-0.511-1.514c0.278-0.559,0.957-0.787,1.514-0.51c1.305,0.647,2.86,0.648,4.158,0.001
				c0.561-0.279,1.236-0.051,1.515,0.507C181.748,403.901,181.521,404.578,180.963,404.857z M124.262,416.223
				c5.054,0,9.152-9.173,9.152-20.49c0-11.316-4.097-20.49-9.152-20.49s-9.152,9.174-9.152,20.49
				C115.11,407.05,119.207,416.223,124.262,416.223z M152.733,416.223c5.054,0,9.152-9.173,9.152-20.49
				c0-11.316-4.097-20.49-9.152-20.49c-5.054,0-9.152,9.174-9.152,20.49C143.582,407.05,147.679,416.223,152.733,416.223z"/>
		</g>
		<g>
			<g>
				<path style="fill:#171717;" d="M645.887,184.073c-3.128,0-6.389-1.432-8.946-3.93c-2.075-2.026-3.292-4.446-4.469-6.786
					c-2.231-4.439-3.995-7.945-11.227-8.571c-12.86-1.113-20.623-6.706-23.071-16.625c-0.073-0.3-0.149-0.592-0.227-0.876
					c-0.006,0.005-0.012,0.011-0.018,0.016c-0.755,0.706-1.636,1.183-2.594,1.408c0.407,0.346,0.819,0.703,1.233,1.076
					c3.574,3.221,4.775,7.873,3.136,12.141c-1.46,3.802-4.807,6.258-8.524,6.258c-0.926,0-1.854-0.153-2.762-0.456
					c-6.396-2.132-7.306-6.667-8.565-12.944c-0.389-1.939-0.829-4.136-1.485-6.681c-2.053-7.964-5.938-10.266-12.377-14.079
					c-1.15-0.681-2.354-1.394-3.606-2.175c-7.423-4.634-13.518-9.604-19.13-18.783c-1.778-2.684-3.29-5.575-4.492-8.593
					c-0.015-0.036-0.028-0.073-0.042-0.109l-0.001,0c-2.193-5.545-3.306-11.384-3.306-17.352c0-26.034,21.18-47.214,47.214-47.214
					c17.684,0,33.707,9.735,41.883,25.427c2.876,4.407,4.711,10.12,6.485,15.646c1.729,5.384,3.518,10.951,5.836,13.205
					c1.955,1.901,4.373,2.622,6.933,3.384c3.44,1.025,7.339,2.187,8.982,6.58c0.811,2.167,0.548,4.459-0.722,6.29
					c-1.416,2.041-3.904,3.26-6.657,3.26c-0.402,0-0.804-0.025-1.201-0.073c1.011,0.469,2.069,0.88,3.176,1.231
					c1.367,0.434,2.672,0.837,3.904,1.218c5.38,1.663,9.267,2.864,11.714,4.514c3.811,2.568,5.146,6.349,3.76,10.645
					c-1.161,3.595-4.437,5.917-8.346,5.917c-3.517,0-7.001-1.79-9.813-5.04c-1-1.155-1.736-2.292-2.386-3.295
					c-1.403-2.166-2.25-3.473-5.003-4.246c-0.379-0.106-0.79-0.161-1.22-0.161c-1.612,0-3.193,0.744-4.23,1.989
					c-1.067,1.284-1.344,2.857-0.82,4.676c1.113,3.868,5.351,7.703,10.304,9.324c2.639,0.864,5.14,1.354,7.558,1.827
					c5.794,1.135,11.785,2.308,13.086,9.172c0.587,3.101-0.187,6.219-2.122,8.556c-1.876,2.264-4.637,3.563-7.573,3.563l0,0
					c-2.872,0-5.668-1.206-8.087-3.488c-5.604-5.287-8.633-6.396-10.186-6.396c-0.37,0-0.691,0.066-0.982,0.202
					c-0.996,0.464-1.662,1.324-1.829,2.357c-0.196,1.22,0.318,2.513,1.413,3.546c1.389,1.31,3.85,2.352,7.257,3.794
					c1.271,0.538,2.656,1.124,4.155,1.797c4.07,1.826,6.588,5.014,6.908,8.747c0.293,3.414-1.308,6.826-4.078,8.692
					C649.35,183.583,647.678,184.073,645.887,184.073z"/>
				<path style="fill:#FFFFFF;" d="M645.887,184.448c-3.226,0-6.581-1.471-9.208-4.037c-2.12-2.069-3.352-4.518-4.542-6.886
					c-2.179-4.335-3.9-7.758-10.925-8.366c-10.618-0.919-17.812-4.862-21.461-11.746c1.267,2.7,1.413,5.757,0.303,8.645
					c-1.516,3.948-4.999,6.499-8.874,6.499c-0.966,0-1.935-0.16-2.88-0.475c-6.603-2.201-7.53-6.826-8.814-13.227
					c-0.389-1.938-0.828-4.128-1.482-6.661c-2.014-7.814-5.85-10.086-12.205-13.85c-1.152-0.683-2.358-1.396-3.612-2.18
					c-7.469-4.663-13.601-9.662-19.252-18.905c-1.786-2.696-3.31-5.61-4.521-8.65l-0.045-0.117
					c-2.209-5.582-3.33-11.466-3.33-17.482c0-26.241,21.349-47.589,47.589-47.589c17.803,0,33.979,9.82,42.216,25.629
					c2.886,4.42,4.727,10.156,6.51,15.704c1.715,5.34,3.488,10.861,5.74,13.05c1.889,1.837,4.264,2.545,6.778,3.293
					c3.523,1.05,7.518,2.239,9.227,6.808c0.854,2.284,0.575,4.702-0.765,6.635c-1.354,1.95-3.632,3.184-6.198,3.39
					c0.435,0.163,0.875,0.315,1.32,0.457c1.366,0.434,2.67,0.837,3.901,1.217c5.411,1.672,9.32,2.88,11.814,4.562
					c3.961,2.67,5.349,6.602,3.906,11.072c-1.212,3.752-4.628,6.177-8.702,6.177c-3.627,0-7.212-1.836-10.096-5.17
					c-1.019-1.176-1.762-2.324-2.417-3.336c-1.402-2.163-2.174-3.354-4.79-4.089c-0.347-0.097-0.723-0.146-1.118-0.146
					c-1.502,0-2.976,0.693-3.942,1.854c-0.983,1.183-1.235,2.64-0.748,4.332c1.081,3.756,5.218,7.486,10.06,9.071
					c2.612,0.855,5.098,1.342,7.5,1.813c5.93,1.161,12.048,2.359,13.396,9.473c0.608,3.21-0.194,6.441-2.201,8.865
					c-1.948,2.351-4.813,3.699-7.862,3.699c-2.97,0-5.854-1.242-8.344-3.59c-5.516-5.203-8.444-6.294-9.93-6.294
					c-0.314,0-0.584,0.055-0.823,0.167c-0.882,0.411-1.471,1.167-1.618,2.077c-0.176,1.096,0.298,2.267,1.301,3.213
					c1.339,1.264,3.774,2.294,7.145,3.721c1.273,0.539,2.66,1.126,4.162,1.8c4.198,1.883,6.796,5.184,7.129,9.057
					c0.304,3.547-1.361,7.094-4.242,9.036C649.498,183.936,647.753,184.448,645.887,184.448z M597.944,146.919
					c0.032,0,0.065,0.004,0.096,0.013c0.126,0.036,0.233,0.128,0.269,0.255c0.077,0.287,0.154,0.582,0.229,0.885
					c2.405,9.745,10.056,15.243,22.739,16.341c7.442,0.644,9.246,4.233,11.53,8.776c1.163,2.313,2.365,4.704,4.396,6.686
					c2.488,2.43,5.653,3.823,8.685,3.823c1.716,0,3.316-0.467,4.629-1.352c2.659-1.792,4.196-5.069,3.914-8.349
					c-0.308-3.594-2.746-6.669-6.688-8.437c-1.496-0.671-2.879-1.257-4.148-1.794c-3.442-1.456-5.93-2.509-7.368-3.866
					c-1.186-1.12-1.742-2.533-1.525-3.878c0.188-1.159,0.931-2.12,2.041-2.637c2.197-1.029,6.25,1.23,11.585,6.261
					c2.347,2.214,5.055,3.385,7.829,3.386c2.825,0,5.479-1.249,7.284-3.427c1.864-2.251,2.608-5.256,2.043-8.247
					c-1.254-6.615-7.118-7.763-12.79-8.874c-2.438-0.478-4.946-0.969-7.603-1.839c-5.064-1.658-9.401-5.596-10.547-9.577
					c-0.56-1.945-0.26-3.634,0.892-5.019c1.108-1.33,2.797-2.124,4.519-2.124c0.464,0,0.909,0.059,1.321,0.175
					c2.889,0.812,3.814,2.24,5.216,4.402c0.643,0.993,1.371,2.118,2.354,3.254c2.739,3.167,6.124,4.911,9.529,4.911
					c3.743,0,6.879-2.221,7.989-5.657c1.329-4.124,0.047-7.753-3.613-10.219c-2.401-1.62-6.266-2.814-11.614-4.467
					c-1.233-0.381-2.539-0.785-3.907-1.219c-1.112-0.353-2.195-0.773-3.221-1.248c-0.167-0.078-0.253-0.266-0.202-0.443
					c0.05-0.177,0.228-0.293,0.405-0.269c3.025,0.364,5.963-0.806,7.506-3.028c1.197-1.727,1.445-3.894,0.678-5.944
					c-1.578-4.219-5.382-5.352-8.738-6.352c-2.604-0.776-5.065-1.508-7.087-3.474c-2.385-2.32-4.188-7.932-5.932-13.359
					c-1.766-5.5-3.593-11.188-6.442-15.555c-8.125-15.591-24.046-25.257-41.568-25.257c-25.827,0-46.839,21.012-46.839,46.839
					c0,5.92,1.104,11.712,3.279,17.214l-0.306,0.247l0.349-0.139c1.191,2.992,2.69,5.86,4.456,8.525
					c5.581,9.129,11.638,14.065,19.016,18.672c1.25,0.78,2.45,1.491,3.599,2.17c6.521,3.862,10.457,6.193,12.549,14.308
					c0.658,2.553,1.1,4.754,1.488,6.696c1.236,6.159,2.129,10.604,8.317,12.667c0.869,0.29,1.759,0.437,2.644,0.437
					c3.562,0,6.771-2.362,8.175-6.018c1.582-4.12,0.419-8.614-3.037-11.729c-0.411-0.371-0.82-0.725-1.226-1.069
					c-0.107-0.091-0.154-0.236-0.121-0.374s0.141-0.245,0.278-0.277c0.901-0.211,1.716-0.654,2.424-1.316
					C597.745,146.958,597.846,146.919,597.944,146.919z M596.101,148.87c0.238,0.207,0.479,0.419,0.719,0.636
					c1.084,0.977,1.957,2.081,2.606,3.267c-0.677-1.394-1.216-2.901-1.616-4.523c-0.023-0.099-0.048-0.196-0.073-0.293
					C597.227,148.352,596.682,148.657,596.101,148.87z"/>
			</g>
			
				<linearGradient id="SVGID_00000064331478800816317790000013351964497773220237_" gradientUnits="userSpaceOnUse" x1="541.5228" y1="57.0124" x2="658.434" y2="161.6632">
				<stop  offset="0" style="stop-color:#56E7F2"/>
				<stop  offset="0.2918" style="stop-color:#C2A7DE"/>
				<stop  offset="0.6174" style="stop-color:#E8FBA9"/>
				<stop  offset="0.8366" style="stop-color:#32ABDF"/>
				<stop  offset="1" style="stop-color:#FEFCEF"/>
			</linearGradient>
			<path style="fill:url(#SVGID_00000064331478800816317790000013351964497773220237_);" d="M591.27,139.817
				c3.264-2.355,7.48,2.608,4.61,5.292C592.945,147.854,587.744,142.361,591.27,139.817z M641.985,121.572
				c5.419,1.522,5.877,5.034,8.846,8.466c5.02,5.804,11.538,4.799,13.034,0.165c0.74-2.292,0.695-5.028-2.581-7.237
				c-2.595-1.75-7.919-3.161-14.849-5.361c-5.321-1.689-9.328-4.506-12.289-7.912c-0.111-0.16-0.246-0.327-0.423-0.504
				c-0.347-0.42-0.679-0.847-0.995-1.282c-1.934-3.396,1.383-6.714,5.546-1.368c5.657,7.264,13.51,3.484,11.664-1.449
				c-2.081-5.563-9.814-3.63-15.197-8.864c-5.383-5.234-7.084-20.745-12.777-29.416l-0.002,0.017
				c-7.335-14.265-22.19-24.029-39.334-24.029c-24.419,0-44.214,19.795-44.214,44.214c0,5.739,1.105,11.217,3.095,16.248
				l-0.006,0.001c0.014,0.031,0.028,0.06,0.042,0.091c1.138,2.859,2.56,5.573,4.241,8.102c5.505,9.023,11.568,13.717,18.187,17.85
				c8.383,5.233,14.531,7.307,17.299,18.05c2.768,10.743,1.816,15.435,8.094,17.528c6.279,2.093,11.504-7.182,5.194-12.869
				c-2.95-2.658-5.798-4.454-7.387-7.291c-2.542-4.539-0.8-7.936,1.634-8.988c4.247-1.835,9.628,0.965,12.279,11.708
				c2.651,10.743,12.047,13.631,20.417,14.355c13.069,1.131,12.152,10.945,17.533,16.2c3.001,2.93,7.289,4.008,10.012,2.173
				c3.501-2.359,4.698-9.039-2.381-12.215c-5.789-2.596-9.852-3.889-12.243-6.146c-3.784-3.57-2.863-8.905,1.206-10.803
				c3.733-1.742,8.832,1.387,14.496,6.731c6.389,6.028,14.06,0.887,12.776-5.89c-1.318-6.958-9.255-5.637-18.629-8.707
				c-9.375-3.069-15.949-12.648-10.855-18.77C635.647,121.691,639.19,120.787,641.985,121.572z"/>
			<path style="fill:#171717;" d="M618.22,87.352c-0.527,0.262-1.089,0.43-1.662,0.521c-0.46,18.324-15.499,33.091-33.931,33.091
				c-18.432,0-33.47-14.767-33.931-33.091c-0.572-0.091-1.134-0.259-1.661-0.521c-0.469-0.233-0.659-0.802-0.426-1.269
				c0.233-0.468,0.804-0.659,1.269-0.426c1.089,0.542,2.391,0.541,3.486-0.001c0.469-0.234,1.036-0.04,1.269,0.427
				c0.232,0.468,0.04,1.037-0.428,1.269c-0.514,0.254-1.06,0.419-1.616,0.512c0.455,17.284,14.647,31.206,32.038,31.206
				s31.582-13.922,32.038-31.206c-0.556-0.093-1.102-0.258-1.616-0.512c-0.468-0.232-0.66-0.801-0.428-1.269
				c0.233-0.468,0.802-0.66,1.269-0.427c1.094,0.542,2.397,0.543,3.485,0.001c0.471-0.234,1.036-0.043,1.27,0.425
				C618.878,86.551,618.688,87.119,618.22,87.352z M570.696,96.879c4.236,0,7.67-7.689,7.67-17.174s-3.434-17.174-7.67-17.174
				c-4.236,0-7.671,7.689-7.671,17.174S566.46,96.879,570.696,96.879z M594.56,96.879c4.236,0,7.671-7.689,7.671-17.174
				s-3.434-17.174-7.671-17.174c-4.236,0-7.67,7.689-7.67,17.174S590.324,96.879,594.56,96.879z"/>
		</g>
		<g>
			<g>
				<path style="fill:#171717;" d="M460.208,460.202c-36.067,0-65.41-29.343-65.41-65.41s29.343-65.41,65.41-65.41
					c36.066,0,65.409,29.343,65.409,65.41S496.274,460.202,460.208,460.202z"/>
				<path style="fill:#FFFFFF;" d="M460.208,460.577c-36.274,0-65.785-29.511-65.785-65.785s29.511-65.785,65.785-65.785
					c36.273,0,65.784,29.511,65.784,65.785S496.481,460.577,460.208,460.577z M460.208,329.757
					c-35.86,0-65.035,29.175-65.035,65.035c0,35.86,29.175,65.035,65.035,65.035c35.86,0,65.034-29.175,65.034-65.035
					C525.242,358.932,496.068,329.757,460.208,329.757z"/>
			</g>
			
				<linearGradient id="SVGID_00000008868175236019036220000002101531349398688190_" gradientUnits="userSpaceOnUse" x1="397.7978" y1="394.792" x2="522.6171" y2="394.792">
				<stop  offset="0" style="stop-color:#56E7F2"/>
				<stop  offset="0.2918" style="stop-color:#C2A7DE"/>
				<stop  offset="0.6174" style="stop-color:#E8FBA9"/>
				<stop  offset="0.8366" style="stop-color:#32ABDF"/>
				<stop  offset="1" style="stop-color:#FEFCEF"/>
			</linearGradient>
			<circle style="fill:url(#SVGID_00000008868175236019036220000002101531349398688190_);" cx="460.207" cy="394.792" r="62.41"/>
			<path style="fill:#171717;" d="M507.302,421.644c4.536-7.924,7.143-17.086,7.143-26.852c0-9.766-2.608-18.929-7.143-26.853
				c-0.063-0.185-0.16-0.352-0.286-0.496c-9.425-16.069-26.872-26.89-46.809-26.89c-19.937,0-37.384,10.82-46.809,26.889
				c-0.126,0.145-0.224,0.312-0.287,0.498c-4.536,7.923-7.143,17.086-7.143,26.852c0,9.765,2.607,18.927,7.143,26.851
				c0.063,0.186,0.161,0.354,0.287,0.499c9.425,16.069,26.872,26.888,46.809,26.888c19.937,0,37.384-10.82,46.809-26.89
				C507.142,421.996,507.239,421.829,507.302,421.644z M409.007,396.292h23.35c0.113,8.456,1.173,16.37,2.989,23.369h-19.915
				C411.55,412.702,409.253,404.751,409.007,396.292z M415.431,369.923h19.915c-1.816,6.999-2.876,14.913-2.989,23.369h-23.35
				C409.253,384.833,411.55,376.882,415.431,369.923z M511.407,393.292h-23.35c-0.113-8.457-1.173-16.37-2.989-23.369h19.916
				C508.864,376.882,511.162,384.833,511.407,393.292z M485.058,393.292h-23.35v-23.369h20.232
				C483.823,376.882,484.939,384.833,485.058,393.292z M461.708,366.923v-23.268c8.103,0.999,15.169,10.027,19.351,23.268H461.708z
				 M458.708,343.655v23.268h-19.353C443.538,353.683,450.604,344.654,458.708,343.655z M458.708,369.923v23.369h-23.351
				c0.119-8.459,1.234-16.41,3.118-23.369H458.708z M435.357,396.292h23.351v23.369h-20.233
				C436.591,412.702,435.476,404.751,435.357,396.292z M458.708,422.661v23.268c-8.104-0.999-15.17-10.027-19.353-23.268H458.708z
				 M461.708,445.928v-23.268h19.351C476.877,435.901,469.811,444.929,461.708,445.928z M461.708,419.661v-23.369h23.35
				c-0.119,8.459-1.234,16.41-3.118,23.369H461.708z M488.057,396.292h23.35c-0.245,8.459-2.543,16.41-6.423,23.369h-19.916
				C486.884,412.662,487.944,404.748,488.057,396.292z M503.17,366.923h-18.939c-2.996-9.913-7.564-17.715-13.092-22.183
				C484.505,347.657,495.932,355.803,503.17,366.923z M449.276,344.74c-5.527,4.468-10.097,12.27-13.092,22.183h-18.939
				C424.483,355.803,435.91,347.657,449.276,344.74z M417.245,422.661h18.939c2.995,9.913,7.564,17.715,13.092,22.183
				C435.91,441.927,424.483,433.78,417.245,422.661z M471.139,444.844c5.527-4.468,10.097-12.271,13.092-22.183h18.939
				C495.932,433.78,484.505,441.927,471.139,444.844z"/>
			<g>
				
					<ellipse transform="matrix(0.7071 -0.7071 0.7071 0.7071 -144.3685 441.0477)" style="fill:#171717;" cx="460.207" cy="394.792" rx="37.186" ry="37.186"/>
				
					<linearGradient id="SVGID_00000055689014572881607110000003501210287698443142_" gradientUnits="userSpaceOnUse" x1="412.1692" y1="442.8113" x2="515.0068" y2="348.8046">
					<stop  offset="0" style="stop-color:#56E7F2"/>
					<stop  offset="0.2918" style="stop-color:#C2A7DE"/>
					<stop  offset="0.6174" style="stop-color:#E8FBA9"/>
					<stop  offset="0.8366" style="stop-color:#32ABDF"/>
					<stop  offset="1" style="stop-color:#FEFCEF"/>
				</linearGradient>
				<path style="fill:url(#SVGID_00000055689014572881607110000003501210287698443142_);" d="M490.297,395.389
					c-0.387,0.193-0.795,0.33-1.212,0.421c-0.539,15.466-13.28,27.884-28.876,27.884s-28.337-12.418-28.876-27.884
					c-0.418-0.09-0.826-0.228-1.213-0.421c-0.565-0.282-0.795-0.968-0.513-1.533c0.282-0.564,0.968-0.794,1.534-0.513
					c0.817,0.407,1.799,0.407,2.623-0.001c0.57-0.282,1.251-0.048,1.532,0.517c0.28,0.565,0.048,1.251-0.517,1.531
					c-0.372,0.184-0.761,0.32-1.16,0.41c0.533,14.211,12.253,25.608,26.591,25.608s26.058-11.397,26.591-25.607
					c-0.398-0.09-0.788-0.227-1.16-0.411c-0.566-0.281-0.797-0.966-0.516-1.532c0.279-0.565,0.967-0.796,1.531-0.516
					c0.813,0.403,1.818,0.402,2.622,0.001c0.568-0.281,1.251-0.051,1.534,0.513C491.091,394.421,490.861,395.107,490.297,395.389z
					 M450.172,403.091c3.563,0,6.451-6.467,6.451-14.444c0-7.978-2.888-14.444-6.451-14.444c-3.563,0-6.451,6.466-6.451,14.444
					C443.721,396.624,446.609,403.091,450.172,403.091z M470.243,403.091c3.563,0,6.451-6.467,6.451-14.444
					c0-7.978-2.888-14.444-6.451-14.444c-3.563,0-6.451,6.466-6.451,14.444C463.791,396.624,466.68,403.091,470.243,403.091z"/>
			</g>
		</g>
		<g>
			<g>
				<path style="fill:#171717;" d="M556.17,460.202c-7.35,0-13.932-3.8-17.607-10.165c-3.676-6.365-3.676-13.966,0-20.331
					l45.36-78.567c3.675-6.365,10.257-10.165,17.606-10.165s13.932,3.8,17.606,10.165l45.36,78.567
					c3.676,6.365,3.676,13.965,0,20.331c-3.675,6.365-10.257,10.165-17.606,10.165H556.17z"/>
				<path style="fill:#FFFFFF;" d="M646.891,460.577H556.17c-7.485,0-14.188-3.87-17.932-10.352c-3.743-6.482-3.743-14.224,0-20.706
					l45.36-78.566c3.743-6.482,10.446-10.352,17.932-10.352c7.485,0,14.189,3.87,17.932,10.352l45.36,78.566
					c3.743,6.482,3.743,14.224,0,20.706C661.079,456.707,654.376,460.577,646.891,460.577z M601.53,341.35
					c-7.214,0-13.675,3.729-17.281,9.977l-45.36,78.566c-3.608,6.248-3.608,13.708,0,19.956c3.606,6.248,10.067,9.977,17.281,9.977
					h90.721c7.214,0,13.675-3.729,17.281-9.977c3.608-6.248,3.608-13.708,0-19.956l-45.36-78.566
					C615.205,345.079,608.744,341.35,601.53,341.35z"/>
			</g>
			
				<linearGradient id="SVGID_00000050628372827231987230000006106480606754596014_" gradientUnits="userSpaceOnUse" x1="556.2625" y1="467.3444" x2="653.688" y2="371.628">
				<stop  offset="0" style="stop-color:#56E7F2"/>
				<stop  offset="0.2918" style="stop-color:#C2A7DE"/>
				<stop  offset="0.6174" style="stop-color:#E8FBA9"/>
				<stop  offset="0.8366" style="stop-color:#32ABDF"/>
				<stop  offset="1" style="stop-color:#FEFCEF"/>
			</linearGradient>
			<path style="fill:url(#SVGID_00000050628372827231987230000006106480606754596014_);" d="M556.17,457.202
				c-6.266,0-11.876-3.239-15.009-8.665c-3.133-5.426-3.133-11.905,0-17.331l45.36-78.567c3.133-5.426,8.743-8.665,15.009-8.665
				s11.876,3.239,15.009,8.665l45.36,78.567c3.133,5.426,3.133,11.905,0,17.331c-3.133,5.426-8.743,8.665-15.009,8.665H556.17z"/>
			<path style="fill:#171717;" d="M591.718,355.64l-45.36,78.567c-4.361,7.554,1.09,16.996,9.813,16.996h90.721
				c8.722,0,14.174-9.442,9.813-16.996l-45.361-78.567C606.982,348.086,596.079,348.086,591.718,355.64z"/>
			
				<linearGradient id="SVGID_00000152265093755488547430000008622199744659497096_" gradientUnits="userSpaceOnUse" x1="574.6306" y1="385.8192" x2="621.8975" y2="442.2173">
				<stop  offset="0" style="stop-color:#56E7F2"/>
				<stop  offset="0.2918" style="stop-color:#C2A7DE"/>
				<stop  offset="0.6174" style="stop-color:#E8FBA9"/>
				<stop  offset="0.8366" style="stop-color:#32ABDF"/>
				<stop  offset="1" style="stop-color:#FEFCEF"/>
			</linearGradient>
			<path style="fill:url(#SVGID_00000152265093755488547430000008622199744659497096_);" d="M636.789,425.034
				c0.045-5.339-2.696-10.548-7.65-13.408c-7.016-4.051-15.892-1.907-20.347,4.715l-2.468-1.425
				c-0.058-2.074-1.967-5.377-3.733-6.455v-2.861c7.963-0.547,14.256-7.162,14.256-15.263c0-5.72-3.141-10.699-7.787-13.329
				c6.995,2.942,11.907,9.858,11.907,17.923c0,2.978-0.689,5.788-1.886,8.31c2.783,0.225,5.561,1.033,8.14,2.522
				C634.206,409.793,637.738,417.505,636.789,425.034z M594.268,416.34l2.468-1.425c0.058-2.074,1.967-5.377,3.733-6.455v-2.861
				c-7.962-0.547-14.256-7.162-14.256-15.263c0-5.72,3.141-10.699,7.787-13.329c-6.995,2.943-11.907,9.858-11.907,17.923
				c0,2.978,0.689,5.788,1.886,8.31c-2.783,0.225-5.561,1.033-8.14,2.522c-6.984,4.032-10.517,11.744-9.568,19.273
				c-0.045-5.338,2.696-10.548,7.65-13.408C580.938,407.575,589.814,409.718,594.268,416.34z M594.728,424.085
				c-3.623-2.298-5.708-6.151-5.882-10.179c-1.691-1.121-3.626-1.859-5.675-2.11c-0.588,6.905,2.739,13.855,9.138,17.549
				c0.455,0.263,0.921,0.49,1.388,0.71C594.49,428.182,594.851,426.137,594.728,424.085z M595.649,402.122
				c3.576-1.865,7.956-1.986,11.758,0.003c1.839-0.92,3.429-2.255,4.654-3.878c-0.424-0.295-0.854-0.584-1.309-0.847
				c-6.392-3.691-14.065-3.101-19.75,0.85C592.226,399.87,593.814,401.202,595.649,402.122z M617.503,422.594
				c1.963-3.4,2.709-7.163,2.393-10.799c-2.05,0.251-3.984,0.987-5.676,2.108c-0.081,1.986-0.623,3.982-1.686,5.823
				c-1.063,1.841-2.521,3.309-4.201,4.373c-0.12,2.049,0.241,4.09,1.034,5.96C612.665,428.512,615.544,425.987,617.503,422.594z
				 M613.822,438.156c-7.016-4.051-9.598-12.809-6.091-19.978l-2.457-1.419c-1.82,0.999-5.668,0.999-7.488,0l-2.458,1.419
				c3.507,7.169,0.925,15.927-6.09,19.978c-4.954,2.86-10.836,2.629-15.437-0.079c6.046,4.586,14.491,5.383,21.475,1.35
				c2.579-1.489,4.668-3.491,6.254-5.789c1.586,2.298,3.675,4.3,6.254,5.789c6.984,4.032,15.429,3.236,21.475-1.35
				C624.659,440.785,618.776,441.015,613.822,438.156z"/>
		</g>
		<g>
			<g>
				<path style="fill:#171717;" d="M655.462,343.72c-14.165,0-25.689-11.524-25.689-25.689V214.156c0-1.657,1.343-3,3-3h8.553
					c14.165,0,25.69,11.524,25.69,25.689V340.72c0,1.657-1.343,3-3,3H655.462z"/>
				<path style="fill:#FFFFFF;" d="M664.016,344.095h-8.554c-14.371,0-26.063-11.692-26.063-26.064V214.156
					c0-1.861,1.514-3.375,3.375-3.375h8.553c14.372,0,26.064,11.692,26.064,26.064V340.72
					C667.391,342.581,665.877,344.095,664.016,344.095z M632.773,211.531c-1.447,0-2.625,1.178-2.625,2.625V318.03
					c0,13.958,11.356,25.314,25.313,25.314h8.554c1.447,0,2.625-1.178,2.625-2.625V236.845c0-13.958-11.356-25.314-25.314-25.314
					H632.773z"/>
			</g>
			
				<linearGradient id="SVGID_00000059996530176817740520000015733665305092391078_" gradientUnits="userSpaceOnUse" x1="623.2165" y1="341.0945" x2="673.8244" y2="213.1424">
				<stop  offset="0" style="stop-color:#56E7F2"/>
				<stop  offset="0.2918" style="stop-color:#C2A7DE"/>
				<stop  offset="0.6174" style="stop-color:#E8FBA9"/>
				<stop  offset="0.8366" style="stop-color:#32ABDF"/>
				<stop  offset="1" style="stop-color:#FEFCEF"/>
			</linearGradient>
			<path style="fill:url(#SVGID_00000059996530176817740520000015733665305092391078_);" d="M664.015,236.845V340.72h-8.554
				c-12.531,0-22.689-10.158-22.689-22.689V214.156h8.553C653.857,214.156,664.015,224.314,664.015,236.845z"/>
		</g>
		<g>
			<g>
				<path style="fill:#171717;" d="M370.468,375.228c-0.042-0.092-0.082-0.171-0.114-0.228
					c-5.772-11.335-14.906-21.031-26.427-28.047c-0.398-0.241-0.846-0.41-1.331-0.502c-0.11-0.021-0.335-0.045-0.446-0.054
					c-0.074-0.005-0.22-0.011-0.294-0.011c-0.215,0-0.428,0.017-0.685,0.059c-0.108,0.019-0.214,0.04-0.301,0.061
					c-0.148,0.034-0.299,0.078-0.431,0.128c-0.281,0.107-0.495,0.23-0.628,0.314c-0.12,0.069-0.247,0.15-0.346,0.223
					c-0.346,0.258-0.647,0.569-0.87,0.892c-0.052,0.069-0.1,0.14-0.145,0.212c-0.089,0.144-0.17,0.306-0.237,0.472
					c-0.115,0.258-0.202,0.526-0.259,0.793c-0.021,0.097-0.037,0.19-0.053,0.302c-0.028,0.174-0.046,0.368-0.046,0.533l0.001,13.016
					c-5.172-6.398-11.577-11.989-18.892-16.443c-0.073-0.045-0.159-0.09-0.248-0.132c-0.08-0.043-0.162-0.082-0.241-0.116
					c-0.094-0.039-0.204-0.079-0.311-0.112c-0.328-0.109-0.659-0.177-1.002-0.201c-0.086-0.007-0.173-0.011-0.26-0.011
					c-0.075,0-0.15,0.003-0.225,0.008c-0.348,0.021-0.697,0.09-1.034,0.204c-0.109,0.033-0.221,0.073-0.315,0.113
					c-0.035,0.015-0.069,0.03-0.104,0.046c-0.046,0.022-0.094,0.046-0.141,0.072c-0.094,0.045-0.184,0.094-0.263,0.141
					c-9.352,5.696-17.179,13.21-22.877,21.922c-5.698-8.711-13.521-16.224-22.848-21.903c-0.088-0.055-0.19-0.111-0.295-0.162
					c-0.08-0.043-0.162-0.082-0.241-0.116c-0.094-0.04-0.204-0.079-0.311-0.112c-0.336-0.113-0.676-0.181-1.027-0.204
					c-0.078-0.006-0.157-0.009-0.235-0.009c-0.057,0-0.113,0.001-0.17,0.005c-0.35,0.016-0.703,0.082-1.065,0.2
					c-0.115,0.035-0.236,0.077-0.338,0.12c-0.033,0.014-0.065,0.028-0.098,0.044c-0.049,0.023-0.098,0.048-0.147,0.075
					c-0.093,0.045-0.184,0.094-0.263,0.142c-7.3,4.446-13.703,10.035-18.873,16.432l0.001-13.016c0-0.154-0.016-0.333-0.041-0.499
					c-0.013-0.096-0.031-0.204-0.061-0.354c-0.061-0.274-0.15-0.541-0.262-0.789c-0.079-0.191-0.176-0.377-0.285-0.54
					c-0.036-0.055-0.075-0.109-0.115-0.162c-0.238-0.329-0.521-0.616-0.837-0.852c-0.117-0.088-0.237-0.165-0.36-0.234
					c-0.125-0.078-0.344-0.205-0.646-0.32c-0.131-0.048-0.282-0.091-0.429-0.123c-0.101-0.024-0.201-0.044-0.307-0.062
					c-0.22-0.037-0.439-0.054-0.656-0.054c-0.06,0-0.22,0.006-0.279,0.01c-0.13,0.008-0.344,0.033-0.471,0.057
					c-0.435,0.083-0.84,0.229-1.206,0.433c-0.043,0.023-0.085,0.047-0.126,0.072c-11.51,7.01-20.645,16.706-26.376,27.965
					c-0.055,0.097-0.105,0.194-0.149,0.294c-4.478,8.873-6.748,18.317-6.748,28.071c0,9.753,2.27,19.197,6.747,28.069
					c0.042,0.092,0.088,0.183,0.139,0.274c5.773,11.311,14.896,20.987,26.375,27.978c0.084,0.051,0.183,0.104,0.283,0.153
					c0.086,0.046,0.172,0.087,0.257,0.122c0.095,0.04,0.202,0.077,0.31,0.109c0.413,0.137,0.83,0.207,1.255,0.207
					c0.002,0,0.003,0,0.005,0c0.327-0.001,0.66-0.046,1.01-0.141c0.139-0.032,0.276-0.074,0.405-0.123
					c0.035-0.014,0.07-0.028,0.105-0.043c0.075-0.032,0.152-0.069,0.227-0.109c0.176-0.086,0.343-0.186,0.499-0.293
					c0.116-0.079,0.226-0.16,0.27-0.2c0.056-0.045,0.186-0.159,0.186-0.159c0.133-0.12,0.252-0.249,0.362-0.392
					c0.03-0.035,0.065-0.079,0.101-0.124c0.091-0.112,0.176-0.233,0.247-0.353c0.075-0.125,0.144-0.263,0.202-0.405
					c0.036-0.076,0.07-0.154,0.093-0.212c0.078-0.199,0.135-0.399,0.194-0.679c0.015-0.076,0.026-0.149,0.038-0.238
					c0.028-0.174,0.046-0.366,0.046-0.53l-0.001-13.016c5.171,6.398,11.576,11.989,18.89,16.442
					c0.076,0.045,0.166,0.093,0.257,0.137c0.061,0.033,0.122,0.063,0.181,0.089c0.109,0.049,0.234,0.095,0.357,0.133
					c0.422,0.143,0.848,0.215,1.27,0.215c0.427,0,0.858-0.074,1.275-0.217c0.114-0.035,0.228-0.078,0.328-0.121
					c0.065-0.028,0.133-0.061,0.199-0.097c0.099-0.047,0.195-0.099,0.278-0.149c9.351-5.694,17.178-13.209,22.877-21.921
					c5.699,8.713,13.528,16.229,22.893,21.931c0.076,0.046,0.166,0.094,0.258,0.138c0.061,0.032,0.121,0.062,0.18,0.088
					c0.109,0.049,0.235,0.095,0.358,0.134c0.422,0.143,0.848,0.215,1.27,0.215c0.427,0,0.858-0.074,1.276-0.217
					c0.113-0.036,0.228-0.078,0.327-0.121c0.065-0.028,0.133-0.061,0.199-0.097c0.099-0.047,0.195-0.099,0.278-0.149
					c7.3-4.446,13.702-10.035,18.872-16.432v13.016c0,0.15,0.015,0.325,0.039,0.487c0.014,0.113,0.032,0.217,0.049,0.296
					c0.046,0.232,0.107,0.454,0.166,0.599c0.023,0.063,0.064,0.156,0.103,0.245c0.062,0.152,0.135,0.301,0.214,0.434
					c0.081,0.136,0.17,0.26,0.266,0.377c0.022,0.026,0.092,0.113,0.108,0.133c0.074,0.092,0.156,0.185,0.235,0.264
					c0.06,0.059,0.159,0.147,0.235,0.211c0.102,0.086,0.207,0.165,0.314,0.238c0.184,0.126,0.376,0.239,0.501,0.296
					c0.077,0.041,0.156,0.08,0.234,0.113c0.034,0.015,0.069,0.029,0.104,0.043c0.118,0.045,0.243,0.084,0.37,0.115
					c0.313,0.087,0.627,0.137,0.938,0.147c0.041,0.001,0.082,0.002,0.123,0.002c0.421,0,0.848-0.073,1.256-0.211
					c0.119-0.036,0.238-0.079,0.344-0.126c0.068-0.03,0.14-0.064,0.209-0.102c0.097-0.046,0.19-0.097,0.271-0.146
					c11.508-7.008,20.642-16.704,26.368-27.95c0.057-0.102,0.109-0.203,0.157-0.308c4.477-8.874,6.747-18.318,6.747-28.072
					C377.21,393.538,374.941,384.098,370.468,375.228z"/>
				<path style="fill:#FFFFFF;" d="M341.857,460.577l-0.141-0.003c-0.331-0.011-0.677-0.064-1.021-0.16
					c-0.131-0.032-0.27-0.076-0.403-0.126l-0.127-0.053c-0.079-0.033-0.168-0.076-0.254-0.122c-0.12-0.055-0.334-0.178-0.538-0.317
					c-0.117-0.081-0.232-0.168-0.343-0.262c-0.083-0.07-0.191-0.166-0.256-0.23c-0.09-0.091-0.182-0.194-0.265-0.298l-0.083-0.103
					c-0.129-0.158-0.229-0.298-0.319-0.449c-0.089-0.149-0.171-0.316-0.24-0.485c-0.038-0.084-0.082-0.186-0.107-0.256
					c-0.064-0.155-0.131-0.398-0.182-0.655c-0.018-0.086-0.039-0.2-0.053-0.325c-0.026-0.17-0.042-0.364-0.042-0.531v-11.968
					c-5.113,6.139-11.266,11.418-18.302,15.704c-0.095,0.057-0.203,0.114-0.313,0.167c-0.059,0.032-0.136,0.069-0.211,0.102
					c-0.109,0.049-0.238,0.096-0.365,0.136c-0.895,0.307-1.854,0.313-2.778-0.001c-0.128-0.04-0.269-0.092-0.391-0.146
					c-0.067-0.03-0.135-0.064-0.203-0.1c-0.089-0.042-0.189-0.096-0.275-0.147c-9.172-5.585-17.01-13.036-22.699-21.571
					c-5.689,8.535-13.521,15.982-22.682,21.56c-0.092,0.057-0.201,0.115-0.312,0.168c-0.059,0.032-0.136,0.069-0.212,0.102
					c-0.11,0.049-0.238,0.097-0.367,0.136c-0.889,0.308-1.851,0.314-2.776-0.001c-0.128-0.04-0.268-0.091-0.39-0.146
					c-0.067-0.03-0.136-0.064-0.204-0.101c-0.087-0.042-0.187-0.095-0.271-0.145c-7.051-4.294-13.209-9.577-18.324-15.718
					l0.001,11.968c0,0.183-0.019,0.397-0.051,0.591c-0.011,0.085-0.024,0.165-0.04,0.248c-0.065,0.309-0.129,0.528-0.213,0.744
					c-0.025,0.064-0.064,0.153-0.104,0.237c-0.057,0.142-0.135,0.298-0.219,0.438c-0.079,0.132-0.174,0.268-0.276,0.393
					c-0.034,0.045-0.074,0.095-0.108,0.135c-0.112,0.145-0.246,0.29-0.395,0.425c-0.004,0.003-0.145,0.127-0.204,0.174
					c-0.034,0.032-0.159,0.126-0.292,0.216c-0.169,0.117-0.351,0.226-0.544,0.32c-0.072,0.039-0.16,0.081-0.245,0.117l-0.117,0.048
					c-0.146,0.057-0.3,0.102-0.456,0.139c-0.826,0.223-1.665,0.191-2.472-0.074c-0.11-0.033-0.23-0.075-0.335-0.119
					c-0.096-0.04-0.193-0.087-0.29-0.139c-0.097-0.046-0.207-0.105-0.3-0.162c-11.544-7.031-20.712-16.758-26.515-28.129
					c-0.049-0.088-0.1-0.188-0.146-0.291c-4.497-8.909-6.78-18.41-6.78-28.224c0-9.813,2.284-19.314,6.788-28.24
					c0.043-0.095,0.097-0.201,0.157-0.309c5.769-11.333,14.938-21.055,26.508-28.102l0.141-0.081
					c0.398-0.222,0.842-0.382,1.315-0.472c0.14-0.027,0.376-0.055,0.519-0.063c0.067-0.004,0.238-0.011,0.302-0.011
					c0.238,0,0.478,0.02,0.719,0.06c0.114,0.02,0.223,0.041,0.333,0.067c0.154,0.032,0.324,0.081,0.471,0.136
					c0.252,0.095,0.492,0.214,0.714,0.353c0.122,0.069,0.256,0.155,0.387,0.253c0.346,0.258,0.655,0.571,0.915,0.932
					c0.041,0.055,0.085,0.114,0.125,0.175c0.12,0.181,0.228,0.385,0.319,0.604c0.12,0.266,0.216,0.555,0.281,0.851
					c0.033,0.17,0.053,0.284,0.066,0.387c0.027,0.176,0.044,0.376,0.044,0.548l-0.001,11.968
					c5.113-6.139,11.266-11.419,18.303-15.704c0.089-0.054,0.19-0.108,0.294-0.159c0.039-0.021,0.094-0.049,0.149-0.075l0.117-0.052
					c0.11-0.047,0.245-0.095,0.374-0.133c0.378-0.124,0.77-0.197,1.154-0.216c0.148-0.007,0.303-0.008,0.456,0.006
					c0.373,0.024,0.74,0.097,1.113,0.222c0.111,0.034,0.233,0.078,0.337,0.122c0.093,0.04,0.185,0.083,0.274,0.132
					c0.103,0.05,0.218,0.111,0.316,0.173c9.139,5.565,16.961,13.007,22.649,21.541c5.687-8.533,13.519-15.98,22.682-21.561
					c0.09-0.054,0.191-0.108,0.296-0.158c0.032-0.019,0.086-0.046,0.138-0.071l0.125-0.055c0.104-0.045,0.229-0.089,0.35-0.126
					c0.361-0.122,0.742-0.196,1.121-0.219c0.166-0.015,0.359-0.013,0.541,0.004c0.365,0.025,0.723,0.098,1.086,0.219
					c0.112,0.034,0.235,0.078,0.34,0.123c0.087,0.036,0.18,0.082,0.271,0.131c0.083,0.038,0.181,0.091,0.264,0.141
					c7.05,4.294,13.209,9.577,18.324,15.717l-0.001-11.968c0-0.184,0.019-0.398,0.051-0.593c0.016-0.113,0.034-0.215,0.056-0.32
					c0.063-0.294,0.158-0.586,0.283-0.867c0.071-0.175,0.162-0.356,0.261-0.517c0.051-0.083,0.105-0.163,0.165-0.241
					c0.242-0.35,0.572-0.688,0.945-0.966c0.109-0.081,0.249-0.171,0.382-0.248c0.206-0.13,0.439-0.247,0.682-0.34
					c0.148-0.056,0.317-0.105,0.482-0.143c0.087-0.021,0.202-0.045,0.319-0.064c0.283-0.047,0.514-0.065,0.748-0.065
					c0.081,0,0.238,0.006,0.318,0.012c0.126,0.01,0.371,0.037,0.49,0.059c0.533,0.103,1.022,0.287,1.457,0.55
					c11.578,7.052,20.764,16.803,26.566,28.199c0.027,0.045,0.072,0.132,0.119,0.235c4.498,8.922,6.779,18.417,6.779,28.223
					c0,9.811-2.284,19.313-6.787,28.24c-0.046,0.101-0.103,0.211-0.165,0.321c-5.767,11.326-14.933,21.044-26.501,28.088
					c-0.089,0.055-0.194,0.111-0.303,0.164c-0.065,0.035-0.147,0.075-0.225,0.108c-0.114,0.051-0.249,0.1-0.383,0.14
					C342.779,460.5,342.316,460.577,341.857,460.577z M337.856,442.811c0.042,0,0.084,0.007,0.125,0.022
					c0.15,0.053,0.25,0.194,0.25,0.353v13.016c0,0.132,0.013,0.287,0.035,0.431c0.014,0.112,0.031,0.205,0.045,0.276
					c0.042,0.208,0.094,0.406,0.147,0.534c0.025,0.068,0.061,0.151,0.098,0.231c0.06,0.148,0.125,0.279,0.194,0.396
					c0.071,0.119,0.149,0.228,0.234,0.331l0.104,0.127c0.073,0.091,0.145,0.173,0.215,0.242c0.052,0.052,0.143,0.132,0.212,0.19
					c0.092,0.078,0.188,0.149,0.284,0.216c0.164,0.111,0.334,0.213,0.445,0.264c0.087,0.046,0.156,0.079,0.224,0.108l-0.042,0.388
					l0.133-0.351c0.104,0.04,0.214,0.074,0.327,0.102c0.296,0.082,0.583,0.127,0.86,0.136l0.111,0.003
					c0.378,0,0.76-0.064,1.136-0.191c0.115-0.035,0.219-0.072,0.311-0.113c0.064-0.027,0.125-0.058,0.185-0.09
					c0.098-0.048,0.181-0.091,0.252-0.135c11.45-6.973,20.52-16.586,26.23-27.801c0.058-0.105,0.106-0.196,0.15-0.293
					c4.457-8.836,6.713-18.224,6.713-27.916c0-9.69-2.255-19.074-6.702-27.892c-0.002-0.005-0.004-0.01-0.007-0.015
					c-0.036-0.079-0.069-0.146-0.097-0.194c-5.749-11.29-14.839-20.936-26.297-27.915c-0.357-0.217-0.764-0.369-1.207-0.454
					c-0.099-0.019-0.304-0.04-0.405-0.048c-0.064-0.004-0.197-0.01-0.265-0.01c-0.196,0-0.39,0.017-0.624,0.055
					c-0.096,0.017-0.192,0.036-0.271,0.056c-0.139,0.031-0.272,0.069-0.388,0.113c-0.194,0.074-0.383,0.169-0.56,0.281
					c-0.12,0.069-0.234,0.142-0.322,0.207c-0.308,0.23-0.58,0.509-0.786,0.805c-0.054,0.071-0.095,0.134-0.134,0.196
					c-0.078,0.126-0.149,0.269-0.208,0.414c-0.109,0.245-0.188,0.487-0.24,0.73c-0.019,0.088-0.034,0.174-0.048,0.275
					c-0.026,0.163-0.043,0.335-0.043,0.481l0.001,13.016c0,0.159-0.1,0.301-0.25,0.354c-0.15,0.052-0.317,0.006-0.417-0.118
					c-5.189-6.419-11.512-11.923-18.795-16.358c-0.061-0.037-0.136-0.076-0.213-0.113c-0.086-0.046-0.158-0.08-0.226-0.109
					c-0.085-0.036-0.183-0.07-0.277-0.1c-0.311-0.104-0.608-0.163-0.918-0.186c-0.153-0.015-0.29-0.014-0.428-0.003
					c-0.32,0.019-0.635,0.081-0.944,0.185c-0.108,0.032-0.206,0.068-0.289,0.103l-0.206,0.1c-0.105,0.051-0.185,0.094-0.254,0.135
					c-9.236,5.626-17.105,13.167-22.756,21.806c-0.139,0.213-0.489,0.213-0.628,0c-5.652-8.641-13.512-16.175-22.728-21.788
					c-0.081-0.05-0.172-0.1-0.264-0.145c-0.084-0.044-0.156-0.079-0.226-0.109c-0.079-0.032-0.177-0.068-0.273-0.098
					c-0.319-0.106-0.624-0.167-0.94-0.188c-0.076-0.006-0.144-0.009-0.211-0.009l-0.15,0.004c-0.323,0.016-0.64,0.075-0.969,0.183
					c-0.111,0.033-0.218,0.071-0.308,0.109l-0.211,0.102c-0.099,0.048-0.179,0.091-0.249,0.134
					c-7.271,4.428-13.588,9.928-18.776,16.346c-0.1,0.124-0.268,0.17-0.417,0.118c-0.15-0.053-0.25-0.194-0.25-0.354l0.001-13.016
					c0-0.137-0.014-0.296-0.037-0.442c-0.013-0.099-0.031-0.198-0.058-0.34c-0.052-0.235-0.132-0.477-0.235-0.705
					c-0.074-0.18-0.159-0.343-0.255-0.487c-0.033-0.05-0.068-0.098-0.104-0.146c-0.219-0.302-0.474-0.561-0.76-0.774
					c-0.106-0.079-0.212-0.147-0.321-0.208c-0.198-0.124-0.388-0.218-0.595-0.296c-0.113-0.042-0.246-0.079-0.374-0.106
					c-0.102-0.025-0.194-0.043-0.29-0.059c-0.2-0.034-0.398-0.05-0.595-0.05c-0.056,0-0.205,0.007-0.261,0.01
					c-0.113,0.006-0.305,0.029-0.418,0.051c-0.395,0.075-0.763,0.207-1.094,0.392l-0.117,0.067
					c-11.448,6.973-20.521,16.591-26.234,27.813c-0.056,0.102-0.101,0.189-0.142,0.278c-4.458,8.835-6.715,18.223-6.715,27.917
					c0,9.695,2.256,19.082,6.707,27.9c0.045,0.098,0.086,0.179,0.131,0.261c5.747,11.26,14.819,20.883,26.243,27.841
					c0.073,0.044,0.16,0.092,0.249,0.134c0.09,0.048,0.165,0.085,0.239,0.115c0.083,0.034,0.179,0.068,0.274,0.097
					c0.694,0.231,1.36,0.254,2.064,0.063c0.135-0.031,0.255-0.067,0.368-0.11c0.003-0.001,0.089-0.037,0.092-0.038
					c0.065-0.028,0.132-0.059,0.196-0.094c0.171-0.085,0.322-0.174,0.463-0.272c0.102-0.069,0.196-0.138,0.235-0.172
					c0.068-0.055,0.188-0.159,0.188-0.159c0.112-0.103,0.217-0.215,0.314-0.34l0.099-0.124c0.086-0.105,0.161-0.212,0.223-0.316
					c0.067-0.11,0.126-0.232,0.177-0.355c0.04-0.086,0.07-0.155,0.09-0.205c0.072-0.183,0.122-0.365,0.177-0.621
					c0.012-0.063,0.023-0.129,0.033-0.209c0.026-0.165,0.042-0.335,0.042-0.48l-0.001-13.016c0-0.159,0.1-0.301,0.25-0.353
					c0.148-0.054,0.316-0.006,0.417,0.118c5.189,6.42,11.512,11.923,18.793,16.357c0.064,0.037,0.144,0.08,0.226,0.119
					c0.066,0.035,0.12,0.062,0.171,0.085c0.096,0.042,0.206,0.083,0.314,0.116c0.787,0.269,1.555,0.262,2.312,0.002
					c0.112-0.034,0.212-0.071,0.299-0.109c0.058-0.025,0.115-0.053,0.171-0.083c0.105-0.051,0.189-0.096,0.262-0.141
					c9.236-5.624,17.106-13.165,22.759-21.806c0.139-0.213,0.489-0.213,0.628,0c5.652,8.642,13.528,16.186,22.773,21.815
					c0.065,0.039,0.145,0.081,0.225,0.12c0.067,0.035,0.12,0.061,0.171,0.084c0.096,0.042,0.207,0.084,0.315,0.117
					c0.788,0.269,1.553,0.262,2.314,0.002c0.11-0.034,0.21-0.071,0.297-0.109c0.058-0.025,0.115-0.053,0.171-0.083
					c0.105-0.051,0.191-0.097,0.265-0.141c7.269-4.428,13.586-9.928,18.773-16.346C337.637,442.861,337.746,442.811,337.856,442.811
					z"/>
			</g>
			
				<linearGradient id="SVGID_00000170273383384307313110000015663001069583155628_" gradientUnits="userSpaceOnUse" x1="255.6868" y1="339.9221" x2="322.399" y2="456.5123">
				<stop  offset="0" style="stop-color:#56E7F2"/>
				<stop  offset="0.2918" style="stop-color:#C2A7DE"/>
				<stop  offset="0.6174" style="stop-color:#E8FBA9"/>
				<stop  offset="0.8366" style="stop-color:#32ABDF"/>
				<stop  offset="1" style="stop-color:#FEFCEF"/>
			</linearGradient>
			<path style="fill:url(#SVGID_00000170273383384307313110000015663001069583155628_);" d="M367.745,430.086
				c4.202-8.301,6.465-17.413,6.465-26.798c0-9.384-2.263-18.497-6.465-26.798c-0.017-0.046-0.041-0.086-0.064-0.129
				c-5.442-10.687-14.105-20.02-25.303-26.84c-0.001-0.001-0.002-0.001-0.002-0.001c-0.103-0.062-0.216-0.099-0.333-0.121
				c-0.039-0.007-0.076-0.008-0.114-0.011c-0.078-0.006-0.156-0.002-0.234,0.011c-0.042,0.007-0.081,0.014-0.122,0.026
				c-0.023,0.006-0.046,0.006-0.068,0.014c-0.06,0.023-0.111,0.06-0.164,0.093c-0.027,0.017-0.056,0.027-0.081,0.046
				c-0.095,0.071-0.174,0.159-0.238,0.258c-0.005,0.007-0.013,0.011-0.018,0.019c-0.012,0.021-0.013,0.044-0.023,0.065
				c-0.041,0.079-0.071,0.161-0.09,0.25c-0.009,0.041-0.015,0.079-0.019,0.121c-0.003,0.029-0.013,0.056-0.013,0.085l0.001,22.572
				c-5.54-9.371-13.571-17.42-23.433-23.426c-0.024-0.015-0.051-0.021-0.076-0.033c-0.015-0.008-0.027-0.02-0.042-0.027
				c-0.019-0.008-0.04-0.011-0.06-0.018c-0.109-0.04-0.221-0.066-0.335-0.067c-0.003,0-0.005-0.001-0.007-0.001
				c-0.004,0-0.006,0.002-0.01,0.002c-0.113,0.001-0.224,0.028-0.331,0.067c-0.02,0.007-0.041,0.01-0.061,0.018
				c-0.016,0.007-0.027,0.019-0.043,0.027c-0.025,0.012-0.052,0.018-0.076,0.033c-10.474,6.378-18.886,15.06-24.438,25.184
				c-5.551-10.123-13.963-18.805-24.437-25.184c-0.024-0.015-0.051-0.021-0.076-0.033c-0.015-0.008-0.027-0.02-0.043-0.027
				c-0.019-0.008-0.04-0.011-0.06-0.018c-0.109-0.04-0.222-0.067-0.336-0.068c-0.002,0-0.004-0.001-0.006-0.001
				c-0.002,0-0.004,0.001-0.006,0.001c-0.115,0.001-0.227,0.028-0.336,0.068c-0.02,0.007-0.041,0.01-0.06,0.018
				c-0.016,0.007-0.027,0.019-0.043,0.027c-0.025,0.012-0.052,0.018-0.076,0.033c-9.864,6.007-17.895,14.057-23.434,23.427
				l0.001-9.341c0-0.001,0.001-0.003,0.001-0.005c0-0.001-0.001-0.003-0.001-0.004l0.001-13.223c0-0.029-0.01-0.056-0.013-0.085
				c-0.003-0.042-0.01-0.08-0.018-0.121c-0.019-0.088-0.05-0.171-0.091-0.25c-0.011-0.021-0.011-0.044-0.023-0.064
				c-0.005-0.007-0.012-0.011-0.017-0.019c-0.064-0.099-0.143-0.186-0.238-0.258c-0.025-0.019-0.054-0.029-0.08-0.045
				c-0.054-0.033-0.105-0.07-0.165-0.093c-0.022-0.008-0.046-0.008-0.068-0.015c-0.04-0.012-0.079-0.018-0.12-0.025
				c-0.079-0.013-0.157-0.017-0.236-0.011c-0.039,0.003-0.076,0.003-0.114,0.011c-0.116,0.022-0.23,0.059-0.332,0.12
				c-0.001,0.001-0.002,0.001-0.004,0.001c-11.199,6.82-19.862,16.153-25.304,26.84c-0.023,0.043-0.047,0.083-0.064,0.129
				c-4.203,8.301-6.466,17.414-6.466,26.798c0,9.385,2.263,18.497,6.465,26.798c0.017,0.047,0.042,0.087,0.065,0.13
				c5.442,10.686,14.105,20.019,25.303,26.838c0.025,0.016,0.053,0.021,0.078,0.034c0.016,0.008,0.028,0.021,0.044,0.027
				c0.017,0.007,0.037,0.009,0.054,0.015c0.112,0.042,0.227,0.07,0.343,0.07c0,0,0,0,0.001,0c0,0,0,0,0,0c0.001,0,0.001,0,0.002,0
				c0.107-0.001,0.21-0.023,0.311-0.057c0.013-0.004,0.027-0.002,0.04-0.007c0.007-0.003,0.013-0.008,0.02-0.011
				c0.016-0.006,0.03-0.016,0.046-0.023c0.05-0.023,0.097-0.052,0.144-0.083c0.029-0.02,0.057-0.039,0.083-0.061
				c0.018-0.015,0.037-0.028,0.053-0.044c0.01-0.01,0.016-0.022,0.026-0.032c0.016-0.017,0.03-0.037,0.044-0.055
				c0.022-0.027,0.045-0.051,0.064-0.08c0.006-0.009,0.015-0.016,0.02-0.025c0.012-0.02,0.012-0.042,0.023-0.063
				c0.001-0.003,0.003-0.006,0.004-0.009c0.017-0.033,0.035-0.063,0.048-0.097c0.018-0.047,0.029-0.096,0.039-0.146
				c0.009-0.041,0.015-0.08,0.018-0.121c0.003-0.029,0.013-0.056,0.013-0.085l0,0l0,0l-0.001-8.819l0-4.404
				c0-0.002,0.001-0.003,0.001-0.005c0-0.001-0.001-0.003-0.001-0.005l-0.001-9.341c5.54,9.371,13.571,17.421,23.434,23.427
				c0.024,0.015,0.051,0.021,0.076,0.033c0.015,0.008,0.028,0.02,0.043,0.026c0.018,0.008,0.038,0.01,0.057,0.017
				c0.112,0.042,0.226,0.07,0.344,0.07c0.118,0,0.232-0.028,0.344-0.07c0.019-0.007,0.039-0.009,0.057-0.017
				c0.016-0.007,0.028-0.018,0.044-0.026c0.025-0.013,0.052-0.019,0.076-0.033c10.474-6.378,18.885-15.06,24.437-25.184
				c5.552,10.123,13.964,18.806,24.438,25.184c0.024,0.015,0.051,0.021,0.076,0.033c0.015,0.008,0.028,0.02,0.043,0.026
				c0.018,0.008,0.038,0.01,0.057,0.017c0.112,0.042,0.226,0.07,0.344,0.07s0.232-0.028,0.344-0.07
				c0.019-0.007,0.039-0.009,0.057-0.017c0.016-0.007,0.028-0.018,0.044-0.026c0.025-0.013,0.052-0.019,0.076-0.033
				c9.862-6.006,17.893-14.055,23.433-23.426l-0.001,13.753l0,8.819l0,0l0,0c0,0.029,0.011,0.056,0.013,0.085
				c0.003,0.041,0.01,0.08,0.019,0.121c0.011,0.05,0.021,0.098,0.039,0.145c0.013,0.035,0.031,0.064,0.048,0.097
				c0.001,0.003,0.003,0.005,0.004,0.008c0.011,0.021,0.011,0.044,0.023,0.064c0.006,0.01,0.015,0.016,0.021,0.026
				c0.018,0.028,0.042,0.051,0.063,0.077c0.016,0.02,0.03,0.04,0.046,0.058c0.009,0.01,0.016,0.022,0.025,0.031
				c0.017,0.017,0.036,0.03,0.054,0.045c0.026,0.022,0.054,0.04,0.082,0.06c0.047,0.032,0.094,0.061,0.145,0.084
				c0.016,0.008,0.03,0.017,0.046,0.023c0.007,0.003,0.012,0.008,0.02,0.011c0.013,0.005,0.027,0.003,0.04,0.007
				c0.101,0.033,0.205,0.056,0.311,0.057c0.001,0,0.001,0,0.002,0c0,0,0,0,0,0c0,0,0,0,0.001,0c0.115,0,0.23-0.028,0.343-0.07
				c0.018-0.006,0.037-0.008,0.054-0.015c0.016-0.007,0.029-0.02,0.045-0.027c0.026-0.013,0.053-0.019,0.078-0.034
				c11.197-6.819,19.859-16.151,25.301-26.837C367.702,430.175,367.727,430.134,367.745,430.086z M357.3,441.974h-5.349
				c1.57-3.497,2.93-7.256,4.052-11.229h9.132C362.977,434.715,360.352,438.479,357.3,441.974z M332.274,442.07
				c-0.127-0.059-0.266-0.096-0.415-0.096h-4.865c1.57-3.497,2.928-7.256,4.05-11.229h9.154
				C338.005,434.772,335.348,438.567,332.274,442.07z M293.609,430.745h9.153c1.122,3.973,2.48,7.732,4.05,11.229h-5.367
				C298.406,438.498,295.781,434.735,293.609,430.745z M282.444,441.974h-5.367c1.57-3.497,2.928-7.256,4.05-11.229h9.153
				C288.108,434.735,285.483,438.498,282.444,441.974z M243.693,430.745h9.153c1.122,3.973,2.48,7.732,4.05,11.229h-5.366
				C248.491,438.498,245.865,434.735,243.693,430.745z M218.754,430.745h9.132c1.122,3.973,2.482,7.732,4.052,11.229h-5.349
				C223.537,438.479,220.913,434.715,218.754,430.745z M229.967,430.745h11.065l0.001,11.229h-6.878
				C232.537,438.492,231.123,434.742,229.967,430.745z M241.033,443.974l0.001,9.455c-2.18-2.79-4.154-5.971-5.913-9.455H241.033z
				 M254.941,430.745h11.046v11.229h-6.874C257.497,438.496,256.097,434.738,254.941,430.745z M265.987,443.974v9.413
				c-2.175-2.786-4.16-5.936-5.916-9.413H265.987z M267.987,443.974h5.915c-1.755,3.477-3.74,6.626-5.915,9.413V443.974z
				 M267.987,441.974v-11.229h11.045c-1.156,3.993-2.556,7.75-4.172,11.229H267.987z M304.857,430.745h11.046v11.229h-6.874
				C307.413,438.496,306.013,434.738,304.857,430.745z M315.903,443.974v9.413c-2.175-2.786-4.16-5.936-5.915-9.413H315.903z
				 M317.903,443.974h5.915c-1.755,3.477-3.74,6.626-5.915,9.413V443.974z M317.903,441.974v-11.229h11.045
				c-1.156,3.993-2.556,7.75-4.172,11.229H317.903z M342.857,443.974h5.912c-1.759,3.483-3.733,6.665-5.913,9.455L342.857,443.974z
				 M342.857,441.974l0-11.229h11.065c-1.156,3.997-2.57,7.747-4.188,11.229H342.857z M226.59,364.603h5.349
				c-1.57,3.497-2.93,7.256-4.052,11.23h-9.133C220.913,371.862,223.537,368.098,226.59,364.603z M234.155,364.603h6.878
				l-0.001,11.23h-11.065C231.123,371.836,232.537,368.085,234.155,364.603z M241.033,362.603h-5.912
				c1.759-3.483,3.734-6.665,5.913-9.455L241.033,362.603z M251.529,364.603h5.367c-1.57,3.497-2.928,7.256-4.05,11.23h-9.153
				C245.865,371.843,248.49,368.079,251.529,364.603z M259.113,364.603h6.874v11.23H254.94
				C256.096,371.84,257.496,368.082,259.113,364.603z M267.987,353.191c2.175,2.786,4.159,5.935,5.915,9.412h-5.915V353.191z
				 M265.987,362.603h-5.916c1.756-3.477,3.741-6.626,5.916-9.413V362.603z M267.987,364.603h6.873
				c1.617,3.479,3.016,7.237,4.172,11.23h-11.046V364.603z M281.128,375.832c-1.122-3.973-2.48-7.733-4.05-11.23h5.367
				c3.039,3.477,5.664,7.24,7.836,11.23H281.128z M301.445,364.603h5.366c-1.57,3.497-2.928,7.256-4.05,11.23h-9.153
				C295.781,371.843,298.406,368.079,301.445,364.603z M309.029,364.603h6.874v11.23h-11.047
				C306.013,371.84,307.413,368.082,309.029,364.603z M317.903,353.191c2.175,2.786,4.16,5.935,5.915,9.412h-5.915V353.191z
				 M315.903,362.603h-5.915c1.756-3.477,3.741-6.626,5.915-9.413V362.603z M317.903,364.603h6.873
				c1.617,3.479,3.017,7.237,4.172,11.23h-11.046V364.603z M331.044,375.832c-1.122-3.973-2.48-7.733-4.05-11.23h4.865
				c0.149,0,0.288-0.037,0.415-0.096c3.075,3.504,5.731,7.298,7.924,11.325H331.044z M342.857,375.832l-0.001-11.23h6.878
				c1.618,3.482,3.031,7.233,4.188,11.23H342.857z M342.856,353.148c2.18,2.79,4.154,5.972,5.913,9.455h-5.913L342.856,353.148z
				 M351.951,364.603h5.349c3.052,3.496,5.677,7.26,7.836,11.23h-9.133C354.881,371.859,353.521,368.1,351.951,364.603z
				 M355.479,362.603h-4.467c-1.395-2.866-2.938-5.536-4.612-7.982C349.714,357.051,352.747,359.725,355.479,362.603z
				 M330.529,362.603h-4.471c-1.392-2.861-2.931-5.527-4.601-7.968C324.75,357.051,327.786,359.717,330.529,362.603z
				 M312.35,354.634c-1.67,2.442-3.209,5.107-4.601,7.968h-4.471C306.02,359.717,309.056,357.051,312.35,354.634z M280.613,362.603
				h-4.472c-1.392-2.861-2.931-5.526-4.601-7.968C274.835,357.051,277.87,359.717,280.613,362.603z M262.434,354.635
				c-1.67,2.441-3.209,5.107-4.601,7.968h-4.471C256.103,359.717,259.139,357.051,262.434,354.635z M237.489,354.621
				c-1.674,2.445-3.217,5.115-4.612,7.981h-4.467C231.142,359.725,234.175,357.051,237.489,354.621z M217.717,377.832h24.315h49.912
				c0,0,0,0,0.001,0c0,0,0,0,0,0h49.912h24.315c3.923,7.908,6.038,16.557,6.038,25.456c0,8.9-2.115,17.548-6.038,25.457h-24.315
				c-0.001,0-0.002,0-0.003,0h-24.949c-0.001,0-0.002,0-0.002,0c-0.001,0-0.002,0-0.003,0h-24.956c0,0,0,0,0,0c0,0,0,0-0.001,0
				H266.99c-0.001,0-0.002,0-0.002,0c-0.001,0-0.002,0-0.003,0h-24.95c-0.001,0-0.002,0-0.002,0h-24.315
				c-3.923-7.908-6.038-16.557-6.038-25.457S213.794,385.74,217.717,377.832z M228.411,443.974h4.466
				c1.395,2.867,2.938,5.536,4.611,7.982C234.175,449.526,231.142,446.852,228.411,443.974z M253.362,443.974h4.471
				c1.392,2.861,2.931,5.526,4.601,7.968C259.14,449.526,256.104,446.86,253.362,443.974z M271.541,451.943
				c1.67-2.442,3.208-5.107,4.6-7.968h4.471C277.87,446.86,274.834,449.526,271.541,451.943z M303.277,443.974h4.471
				c1.392,2.861,2.931,5.527,4.602,7.968C309.056,449.527,306.02,446.861,303.277,443.974z M321.456,451.943
				c1.67-2.442,3.208-5.107,4.601-7.968h4.472C327.786,446.86,324.75,449.527,321.456,451.943z M346.402,451.956
				c1.674-2.446,3.216-5.115,4.611-7.982h4.467C352.748,446.852,349.715,449.526,346.402,451.956z"/>
		</g>
		<g>
			<g>
				<path style="fill:#171717;" d="M518.461,317.272c-0.823,0-1.621-0.339-2.194-0.955c-8.979-9.632-13.958-22.216-14.075-35.202
					l-17.428,10.062c-0.464,0.268-0.981,0.402-1.5,0.402c-0.492,0-0.984-0.121-1.432-0.364c-0.917-0.498-1.51-1.438-1.564-2.479
					c-0.686-13.137,3.6-25.976,11.878-36.008l-19.85-3.5c-1.028-0.182-1.889-0.884-2.27-1.855c-0.383-0.971-0.233-2.071,0.395-2.905
					c7.927-10.516,19.454-17.604,32.224-19.974l-12.936-15.416c-0.671-0.799-0.878-1.891-0.547-2.88
					c0.331-0.99,1.153-1.736,2.17-1.971c3.839-0.886,7.788-1.335,11.738-1.335c9.143,0,17.954,2.328,25.786,6.774v-20.151
					c0-1.044,0.543-2.013,1.433-2.558c0.479-0.294,1.023-0.442,1.567-0.442c0.467,0,0.934,0.108,1.362,0.327
					c11.732,5.98,20.715,16.102,25.267,28.266l12.936-15.416c0.574-0.685,1.419-1.072,2.298-1.072c0.148,0,0.296,0.011,0.443,0.033
					c1.033,0.154,1.91,0.834,2.318,1.795c5.138,12.109,5.501,25.64,1.154,37.899l19.851-3.501c0.173-0.03,0.348-0.045,0.521-0.045
					c0.852,0,1.672,0.362,2.247,1.012c0.691,0.782,0.927,1.867,0.622,2.865c-3.853,12.593-12.261,23.196-23.449,29.791
					l17.428,10.062c0.904,0.522,1.472,1.477,1.499,2.52c0.027,1.043-0.49,2.026-1.365,2.594c-8.521,5.531-18.396,8.456-28.557,8.456
					c-0.001,0,0,0-0.001,0c-2.871,0-5.732-0.237-8.555-0.708l6.884,18.912c0.357,0.981,0.179,2.077-0.472,2.894
					c-0.573,0.72-1.44,1.132-2.348,1.132c-0.121,0-0.243-0.007-0.366-0.022c-13.056-1.605-24.955-8.056-33.399-17.95l-6.894,18.941
					c-0.357,0.981-1.198,1.706-2.222,1.914C518.859,317.252,518.659,317.272,518.461,317.272z"/>
				<path style="fill:#FFFFFF;" d="M518.461,317.647c-0.933,0-1.832-0.392-2.469-1.074c-8.876-9.522-13.893-21.863-14.166-34.814
					l-16.875,9.743c-0.998,0.573-2.281,0.591-3.298,0.043c-1.024-0.557-1.699-1.626-1.76-2.79
					c-0.679-12.987,3.422-25.663,11.558-35.77l-19.221-3.389c-1.148-0.203-2.128-1.003-2.554-2.087
					c-0.428-1.085-0.258-2.337,0.444-3.268c7.836-10.395,19.119-17.479,31.826-19.996l-12.525-14.927
					c-0.75-0.893-0.985-2.135-0.615-3.241c0.369-1.105,1.305-1.955,2.441-2.217c3.865-0.892,7.843-1.344,11.822-1.344
					c8.912,0,17.684,2.249,25.411,6.509v-19.512c0-1.165,0.617-2.269,1.611-2.878c0.983-0.603,2.27-0.652,3.297-0.129
					c11.598,5.912,20.532,15.794,25.219,27.87l12.525-14.927c0.748-0.893,1.916-1.348,3.085-1.168
					c1.169,0.174,2.143,0.929,2.606,2.019c5.08,11.972,5.561,25.286,1.374,37.565l19.221-3.389c1.168-0.204,2.345,0.218,3.114,1.087
					c0.771,0.873,1.04,2.108,0.699,3.223c-3.809,12.448-11.988,22.963-23.067,29.675l16.875,9.742
					c1.01,0.584,1.656,1.67,1.686,2.836c0.03,1.165-0.558,2.283-1.536,2.918c-8.582,5.571-18.528,8.517-28.761,8.517
					c-2.667,0-5.351-0.206-7.985-0.611l6.666,18.311c0.398,1.097,0.195,2.344-0.531,3.255c-0.729,0.916-1.864,1.394-3.051,1.249
					c-12.909-1.587-24.681-7.827-33.222-17.594l-6.675,18.34c-0.399,1.097-1.357,1.922-2.5,2.153
					C518.914,317.623,518.688,317.647,518.461,317.647z M502.191,280.74c0.065,0,0.128,0.017,0.187,0.05
					c0.115,0.065,0.188,0.188,0.188,0.322c0.117,12.995,5.08,25.407,13.975,34.948c0.615,0.66,1.567,0.965,2.442,0.783
					c0.902-0.184,1.629-0.81,1.944-1.675l6.894-18.94c0.046-0.126,0.154-0.218,0.286-0.241c0.129-0.024,0.265,0.023,0.352,0.126
					c8.451,9.901,20.227,16.23,33.16,17.821c0.912,0.108,1.807-0.258,2.374-0.972c0.565-0.709,0.723-1.679,0.413-2.532
					l-6.884-18.911c-0.046-0.125-0.021-0.265,0.064-0.367c0.085-0.103,0.217-0.149,0.35-0.131c2.797,0.467,5.654,0.703,8.493,0.703
					c10.088,0,19.893-2.903,28.354-8.396c0.761-0.494,1.218-1.363,1.194-2.27c-0.024-0.921-0.515-1.745-1.311-2.206l-17.428-10.06
					c-0.115-0.067-0.187-0.19-0.188-0.323c-0.001-0.134,0.069-0.257,0.185-0.325c11.197-6.6,19.465-17.104,23.281-29.577
					c0.265-0.867,0.056-1.828-0.545-2.507c-0.599-0.676-1.521-1.003-2.422-0.846l-19.85,3.5c-0.139,0.023-0.266-0.025-0.352-0.127
					c-0.086-0.102-0.112-0.242-0.067-0.368c4.35-12.27,3.943-25.632-1.146-37.627c-0.36-0.848-1.119-1.435-2.029-1.57
					c-0.917-0.142-1.816,0.214-2.398,0.908l-12.936,15.417c-0.085,0.103-0.221,0.148-0.351,0.128
					c-0.132-0.023-0.241-0.113-0.288-0.238c-4.555-12.172-13.464-22.139-25.085-28.063c-0.797-0.406-1.8-0.368-2.563,0.101
					c-0.773,0.474-1.254,1.331-1.254,2.238v20.151c0,0.133-0.071,0.257-0.187,0.324c-0.113,0.066-0.257,0.069-0.374,0.002
					c-7.749-4.399-16.602-6.725-25.601-6.725c-3.923,0-7.844,0.446-11.654,1.325c-0.883,0.204-1.61,0.865-1.898,1.725
					c-0.287,0.86-0.104,1.826,0.479,2.52l12.935,15.416c0.086,0.103,0.111,0.242,0.066,0.368c-0.045,0.126-0.153,0.218-0.284,0.242
					c-12.778,2.372-24.141,9.414-31.992,19.831c-0.547,0.724-0.679,1.698-0.347,2.542c0.332,0.844,1.093,1.466,1.987,1.624
					l19.85,3.5c0.131,0.023,0.24,0.114,0.286,0.239c0.047,0.125,0.022,0.266-0.063,0.368c-8.284,10.041-12.473,22.737-11.793,35.751
					c0.048,0.905,0.572,1.736,1.369,2.17c0.789,0.426,1.79,0.415,2.566-0.034l17.428-10.062
					C502.061,280.757,502.127,280.74,502.191,280.74z"/>
			</g>
			
				<linearGradient id="SVGID_00000033339506783758854570000017379688539593506228_" gradientUnits="userSpaceOnUse" x1="476.9269" y1="300.4532" x2="598.6724" y2="200.192">
				<stop  offset="0" style="stop-color:#56E7F2"/>
				<stop  offset="0.2918" style="stop-color:#C2A7DE"/>
				<stop  offset="0.6174" style="stop-color:#E8FBA9"/>
				<stop  offset="0.8366" style="stop-color:#32ABDF"/>
				<stop  offset="1" style="stop-color:#FEFCEF"/>
			</linearGradient>
			<path style="fill:url(#SVGID_00000033339506783758854570000017379688539593506228_);" d="M598.005,237.8l-25.244,4.451
				c6.208-12.886,6.426-27.743,0.957-40.633l-16.454,19.609c-3.531-13.854-12.938-25.358-25.408-31.714v25.634
				c-11.613-8.351-26.206-11.146-39.849-7.998l16.454,19.609c-14.257,1.072-27.219,8.339-35.644,19.515l25.244,4.451
				c-10.241,9.986-15.527,23.872-14.796,37.855l22.168-12.799c-1.42,14.227,3.486,28.254,13.029,38.491l8.767-24.088
				c8.056,11.819,20.813,19.437,34.711,21.145l-8.755-24.054c13.764,3.869,28.43,1.474,40.169-6.147l-22.168-12.799
				C584.216,262.446,593.911,251.184,598.005,237.8z"/>
			<path style="fill:#171717;" d="M535.411,230.711c-9.199,0-16.655,7.457-16.655,16.655c0,12.185,10.884,25.707,16.655,25.707
				c5.772,0,16.655-13.522,16.655-25.707C552.066,238.168,544.61,230.711,535.411,230.711z M532.309,258.773
				c-0.913,0.749-5.359-1.162-7.816-4.155c-1.854-2.26-2.178-5.06-0.723-6.253c1.455-1.193,4.137-0.328,5.991,1.932
				C532.217,253.29,533.222,258.024,532.309,258.773z M538.513,258.773c-0.913-0.749,0.092-5.483,2.548-8.477
				c1.854-2.26,4.536-3.125,5.991-1.932c1.455,1.193,1.131,3.993-0.723,6.253C543.872,257.611,539.426,259.522,538.513,258.773z"/>
		</g>
	</g>
</g>
<g id="TEXTS">
	<g>
		<g>
			<path style="fill:none;stroke:#000000;stroke-width:6;stroke-linecap:round;stroke-linejoin:round;" d="M128.749,79.826
				c2.163-0.454,5.384-0.705,8.409-0.705c4.731,0,7.329,0.856,8.789,2.77c1.208,1.51,1.745,3.827,2.03,6.445
				c0.571,4.481-1.095,7.452-4.571,8.661c0.01,0.05,0.02,0.101,0.03,0.151c2.776,0.906,5.112,3.323,6.369,6.849
				c1.726,4.733,1.124,8.006,1.049,9.315c-1.511,0-3.021,0-4.532,0c-0.079-0.957,0.332-3.877-0.907-8.107
				c-1.403-4.683-3.838-6.445-7.865-6.596c-1.42,0-2.841,0-4.264,0c0.307,4.901,0.496,9.802-0.156,14.704c-1.46,0-2.921,0-4.381,0
				C128.749,102.15,128.749,90.988,128.749,79.826z M133.068,95.285c1.474,0,2.948,0,4.423,0c4.723,0,6.92-2.568,6.437-6.445
				c-0.375-4.381-2.657-6.294-7.088-6.345c-1.979,0-3.398,0.202-4.059,0.403C132.556,87.027,132.796,91.156,133.068,95.285z"/>
			<path style="fill:none;stroke:#000000;stroke-width:6;stroke-linecap:round;stroke-linejoin:round;" d="M165.953,102.636
				c-0.421,3.558-1.891,7.117-5.629,10.675c-1.511,0-3.021,0-4.532,0c12.033-11.313-0.472-22.626,11.334-33.939
				c1.758,0,3.517,0,5.276,0c-5.591,11.313,17.849,22.626,11.789,33.939c-1.561,0-3.122,0-4.683,0
				c1.926-3.558,0.876-7.117-1.237-10.675C174.203,102.636,170.097,102.636,165.953,102.636z M176.227,99.212
				c-2.392-3.256-5.165-6.512-6.969-9.769c-1.229-2.215-1.732-4.23-1.638-6.193c-0.033,0-0.066,0-0.099,0
				c-1.096,2.014-1.563,4.079-1.762,6.143c-0.383,3.273,0.1,6.546,0.119,9.819C169.342,99.212,172.791,99.212,176.227,99.212z"/>
			<path style="fill:none;stroke:#000000;stroke-width:6;stroke-linecap:round;stroke-linejoin:round;" d="M199.151,113.312
				c6.082-11.313-16.997-22.626-11.296-33.939c1.578,0,3.157,0,4.737,0c-2.877,5.573,1.353,11.145,5.449,16.718
				c3.433,4.582,6.172,8.711,6.025,12.689c0.033,0,0.065,0,0.098,0c1.965-3.928,1.736-8.207,1.505-12.639
				c-0.291-5.589-0.092-11.179,5.599-16.768c1.567,0,3.134,0,4.702,0c-11.702,11.313,0.218,22.626-11.983,33.939
				C202.374,113.312,200.763,113.312,199.151,113.312z"/>
			<path style="fill:none;stroke:#000000;stroke-width:6;stroke-linecap:round;stroke-linejoin:round;" d="M239.919,97.399
				c-4.318,0-8.645,0-12.982,0c0.812,4.079,1.501,8.158,0.802,12.236c4.606,0,9.161,0,13.663,0c0,1.225,0,2.451,0,3.676
				c-6.361,0-12.723,0-19.084,0c5.664-11.313-5.539-22.626-0.123-33.939c6.141,0,12.29,0,18.446,0
				c-0.028,1.225-0.046,2.451-0.058,3.676c-5.037,0-10.026,0-14.966,0c-0.563,3.575-0.079,7.15,0.598,10.725c4.52,0,9.06,0,13.619,0
				C239.862,94.982,239.891,96.191,239.919,97.399z"/>
		</g>
		<g>
			
				<linearGradient id="SVGID_00000034057660883852845630000003145818389054991535_" gradientUnits="userSpaceOnUse" x1="129.957" y1="116.6304" x2="239.6684" y2="76.6987">
				<stop  offset="0" style="stop-color:#56E7F2"/>
				<stop  offset="0.2918" style="stop-color:#C2A7DE"/>
				<stop  offset="0.6174" style="stop-color:#E8FBA9"/>
				<stop  offset="0.8366" style="stop-color:#32ABDF"/>
				<stop  offset="1" style="stop-color:#FEFCEF"/>
			</linearGradient>
			<path style="fill:url(#SVGID_00000034057660883852845630000003145818389054991535_);" d="M128.749,79.826
				c2.163-0.454,5.384-0.705,8.409-0.705c4.731,0,7.329,0.856,8.789,2.77c1.208,1.51,1.745,3.827,2.03,6.445
				c0.571,4.481-1.095,7.452-4.571,8.661c0.01,0.05,0.02,0.101,0.03,0.151c2.776,0.906,5.112,3.323,6.369,6.849
				c1.726,4.733,1.124,8.006,1.049,9.315c-1.511,0-3.021,0-4.532,0c-0.079-0.957,0.332-3.877-0.907-8.107
				c-1.403-4.683-3.838-6.445-7.865-6.596c-1.42,0-2.841,0-4.264,0c0.307,4.901,0.496,9.802-0.156,14.704c-1.46,0-2.921,0-4.381,0
				C128.749,102.15,128.749,90.988,128.749,79.826z M133.068,95.285c1.474,0,2.948,0,4.423,0c4.723,0,6.92-2.568,6.437-6.445
				c-0.375-4.381-2.657-6.294-7.088-6.345c-1.979,0-3.398,0.202-4.059,0.403C132.556,87.027,132.796,91.156,133.068,95.285z"/>
			
				<linearGradient id="SVGID_00000071529466850783208160000001278990244111591555_" gradientUnits="userSpaceOnUse" x1="129.957" y1="116.6304" x2="239.6684" y2="76.6987">
				<stop  offset="0" style="stop-color:#56E7F2"/>
				<stop  offset="0.2918" style="stop-color:#C2A7DE"/>
				<stop  offset="0.6174" style="stop-color:#E8FBA9"/>
				<stop  offset="0.8366" style="stop-color:#32ABDF"/>
				<stop  offset="1" style="stop-color:#FEFCEF"/>
			</linearGradient>
			<path style="fill:url(#SVGID_00000071529466850783208160000001278990244111591555_);" d="M165.953,102.636
				c-0.421,3.558-1.891,7.117-5.629,10.675c-1.511,0-3.021,0-4.532,0c12.033-11.313-0.472-22.626,11.334-33.939
				c1.758,0,3.517,0,5.276,0c-5.591,11.313,17.849,22.626,11.789,33.939c-1.561,0-3.122,0-4.683,0
				c1.926-3.558,0.876-7.117-1.237-10.675C174.203,102.636,170.097,102.636,165.953,102.636z M176.227,99.212
				c-2.392-3.256-5.165-6.512-6.969-9.769c-1.229-2.215-1.732-4.23-1.638-6.193c-0.033,0-0.066,0-0.099,0
				c-1.096,2.014-1.563,4.079-1.762,6.143c-0.383,3.273,0.1,6.546,0.119,9.819C169.342,99.212,172.791,99.212,176.227,99.212z"/>
			
				<linearGradient id="SVGID_00000028293142051929579510000006977082149586926241_" gradientUnits="userSpaceOnUse" x1="129.957" y1="116.6304" x2="239.6684" y2="76.6987">
				<stop  offset="0" style="stop-color:#56E7F2"/>
				<stop  offset="0.2918" style="stop-color:#C2A7DE"/>
				<stop  offset="0.6174" style="stop-color:#E8FBA9"/>
				<stop  offset="0.8366" style="stop-color:#32ABDF"/>
				<stop  offset="1" style="stop-color:#FEFCEF"/>
			</linearGradient>
			<path style="fill:url(#SVGID_00000028293142051929579510000006977082149586926241_);" d="M199.151,113.312
				c6.082-11.313-16.997-22.626-11.296-33.939c1.578,0,3.157,0,4.737,0c-2.877,5.573,1.353,11.145,5.449,16.718
				c3.433,4.582,6.172,8.711,6.025,12.689c0.033,0,0.065,0,0.098,0c1.965-3.928,1.736-8.207,1.505-12.639
				c-0.291-5.589-0.092-11.179,5.599-16.768c1.567,0,3.134,0,4.702,0c-11.702,11.313,0.218,22.626-11.983,33.939
				C202.374,113.312,200.763,113.312,199.151,113.312z"/>
			
				<linearGradient id="SVGID_00000003816138786305562080000014057323634002830746_" gradientUnits="userSpaceOnUse" x1="129.957" y1="116.6304" x2="239.6684" y2="76.6987">
				<stop  offset="0" style="stop-color:#56E7F2"/>
				<stop  offset="0.2918" style="stop-color:#C2A7DE"/>
				<stop  offset="0.6174" style="stop-color:#E8FBA9"/>
				<stop  offset="0.8366" style="stop-color:#32ABDF"/>
				<stop  offset="1" style="stop-color:#FEFCEF"/>
			</linearGradient>
			<path style="fill:url(#SVGID_00000003816138786305562080000014057323634002830746_);" d="M239.919,97.399
				c-4.318,0-8.645,0-12.982,0c0.812,4.079,1.501,8.158,0.802,12.236c4.606,0,9.161,0,13.663,0c0,1.225,0,2.451,0,3.676
				c-6.361,0-12.723,0-19.084,0c5.664-11.313-5.539-22.626-0.123-33.939c6.141,0,12.29,0,18.446,0
				c-0.028,1.225-0.046,2.451-0.058,3.676c-5.037,0-10.026,0-14.966,0c-0.563,3.575-0.079,7.15,0.598,10.725c4.52,0,9.06,0,13.619,0
				C239.862,94.982,239.891,96.191,239.919,97.399z"/>
		</g>
	</g>
	<path id="SVGID_x5F_00000044861074549591222750000005654742741661182899_x5F_" style="fill:none;" d="M320.288,298.482
		c-24.902,8.06-51.624-5.594-59.683-30.497c-8.059-24.903,5.594-51.624,30.497-59.683c24.902-8.059,51.623,5.594,59.683,30.497
		S345.19,290.423,320.288,298.482z"/>
	<text>	<textPath  xlink:href="#SVGID_x5F_00000044861074549591222750000005654742741661182899_x5F_" startOffset="66.6667%">
<tspan  style="fill:#171717; font-family:'Montserrat-ExtraBold'; font-size:11.3px; letter-spacing:150;">RAVE NIGHT PARTY </tspan><tspan  style="fill:#171717; font-family:'Montserrat-ExtraBold'; font-size:11.3px; letter-spacing:150;"></tspan><tspan  style="fill:#171717; font-family:'Montserrat-ExtraBold'; font-size:11.3px; letter-spacing:150;"> RAVE NIGHT PARTY </tspan><tspan  style="fill:#171717; font-family:'Montserrat-ExtraBold'; font-size:11.3px; letter-spacing:150;"></tspan><tspan  style="fill:#171717; font-family:'Montserrat-ExtraBold'; font-size:11.3px; letter-spacing:150;">  </tspan>	</textPath>
</text>
	<g>
		
			<text transform="matrix(0 -1 1 0 658.266 308.4258)" style="fill:#171717; font-family:'Montserrat-ExtraBold'; font-size:28.0872px;">RAVE</text>
	</g>
	
		<text transform="matrix(1 0 0 1 233.891 417.436)" style="fill:#FFFFFF; font-family:'Montserrat-BlackItalic'; font-size:43.4113px;">GOOD</text>
	<path id="SVGID_x5F_00000176762944798872392880000014396183891582633369_x5F_" style="fill:none;" d="M543.324,276.342
		c-13.503,4.37-27.993-3.034-32.363-16.537c-4.37-13.503,3.033-27.993,16.537-32.363c13.503-4.37,27.993,3.034,32.363,16.537
		C564.231,257.483,556.827,271.972,543.324,276.342z"/>
	<text>	<textPath  xlink:href="#SVGID_x5F_00000176762944798872392880000014396183891582633369_x5F_" startOffset="66.6667%">
<tspan  style="fill:#171717; font-family:'Montserrat-ExtraBold'; font-size:8.1px; letter-spacing:150;"></tspan><tspan  style="fill:#171717; font-family:'Montserrat-ExtraBold'; font-size:8.1px; letter-spacing:150;"> RAVE ON </tspan><tspan  style="fill:#171717; font-family:'Montserrat-ExtraBold'; font-size:8.1px; letter-spacing:150;"></tspan><tspan  style="fill:#171717; font-family:'Montserrat-ExtraBold'; font-size:8.1px; letter-spacing:150;"> RAVE ON </tspan><tspan  style="fill:#171717; font-family:'Montserrat-ExtraBold'; font-size:8.1px; letter-spacing:150;"></tspan><tspan  style="fill:#171717; font-family:'Montserrat-ExtraBold'; font-size:8.1px; letter-spacing:150;"> RAVE ON  </tspan>	</textPath>
</text>
</g>
</svg>
